<?xml version="1.0" encoding="utf-8"?>
<!-- Generator: Adobe Illustrator 26.0.1, SVG Export Plug-In . SVG Version: 6.00 Build 0)  -->
<svg version="1.1" id="Layer_1" xmlns="http://www.w3.org/2000/svg" xmlns:xlink="http://www.w3.org/1999/xlink" x="0px" y="0px"
	 viewBox="0 0 233.5 80.5" style="enable-background:new 0 0 233.5 80.5;" xml:space="preserve">
<style type="text/css">
	.st0{fill:none;stroke:url(#SVGID_1_);stroke-width:0.5;stroke-miterlimit:10;}
	.st1{fill:none;stroke:#00E9BA;stroke-width:0.5;stroke-miterlimit:10;}
	.st2{fill:#FFFFFF;}
	.st3{clip-path:url(#SVGID_00000090259554774360318690000011648055911174454151_);fill:#FFFFFF;}
	.st4{fill-rule:evenodd;clip-rule:evenodd;fill:#FFFFFF;}
</style>
<g>
	<path class="st2" d="M122.2,45.3c-5.4,0-9.6,4.1-9.6,9.6c0,5.5,4.3,9.6,9.6,9.6c5.4,0,9.6-4.2,9.6-9.6
		C131.8,49.4,127.6,45.3,122.2,45.3z M122.2,60.6c-3.2,0-5.7-2.4-5.7-5.8c-0.1-3.3,2.4-5.8,5.7-5.8c3.2,0,5.7,2.4,5.7,5.8
		C127.9,58.2,125.4,60.6,122.2,60.6z"/>
	<path class="st2" d="M202.1,58.3v-8.8h4.5v-3.8h-4.5v-5.1l-3.9,1.2v3.9h-3.3v3.8h3.3v8.8c0,4.7,2.4,6.5,8.5,5.7v-3.5
		C203.6,60.6,202.1,60.6,202.1,58.3z"/>
	<path class="st2" d="M222.5,60.3h-9l9-10.8l0,0v-3.6h-13.9v3.6h9l-9,10.8l0,0v3.7h13.9V60.3z"/>
	<path class="st2" d="M65.3,17.2v7.6c-1.6-1.1-3.5-1.8-5.7-1.8c-0.3,0-0.7,0.1-1,0.1c-0.1,0-0.1,0-0.2,0h-0.1
		c-0.2,0-0.4,0.1-0.6,0.1c-0.1,0.1-0.2,0.1-0.3,0.1h-0.2c-0.2,0-0.3,0-0.5,0.1c-0.1,0-0.2,0.1-0.3,0.1h-0.1
		c-0.2,0.1-0.3,0.1-0.5,0.2c-0.1,0-0.2,0.1-0.3,0.1h-0.1c-0.2,0-0.3,0.1-0.5,0.2c-0.1,0.1-0.2,0.1-0.3,0.2h-0.1
		c-0.1,0.1-0.3,0.2-0.4,0.3c-0.1,0.1-0.2,0.2-0.6,0.4c-0.1,0.1-0.3,0.2-0.4,0.3l-0.3,0.3c-0.2,0.2-0.3,0.3-0.4,0.4
		c-0.1,0.1-0.2,0.2-0.3,0.3c-0.1,0.1-0.2,0.3-0.3,0.4c-0.1,0.1-0.2,0.2-0.3,0.3c-0.1,0.1-0.2,0.3-0.3,0.4c-0.1,0.1-0.1,0.2-0.2,0.3
		c0,0.2-0.1,0.3-0.2,0.5c0,0.1,0,0.1,0,0.1c0,0.1-0.1,0.2-0.1,0.3c-0.1,0.2-0.1,0.3-0.2,0.5v0.1c0,0.1-0.1,0.2-0.1,0.3
		c0,0.2-0.1,0.3-0.1,0.5v0.2c-0.1,0-0.1,0.1-0.1,0.2c0,0.2-0.1,0.4-0.1,0.6v0.2c0,0.1,0,0.1,0,0.2c-0.1,0.3-0.1,0.6-0.1,0.9
		c0,0.4,0.1,0.7,0.1,1.1c0.4,4.5,4.1,8.2,8.6,8.6c2.5,0.2,4.8-0.5,6.7-1.8v1.4h4V16L65.3,17.2z M65.3,32.5c0,3.4-3.2,6.3-6.9,5.4
		c-2.1-0.4-3.8-2.1-4-4.5c-0.1-0.5-0.1-0.9-0.1-1.3c0-0.1,0-0.1,0-0.2v-0.5c0,0,0-0.1,0-0.2c0.1-0.2,0.1-0.3,0.1-0.4
		c0.1,0,0.1-0.1,0.1-0.2c0-0.1,0.1-0.2,0.1-0.3c0-0.1,0.1-0.1,0.1-0.2c0-0.1,0-0.2,0.1-0.3c0-0.1,0.1-0.1,0.1-0.2
		c0.1-0.1,0.1-0.2,0.2-0.3c0-0.1,0-0.1,0-0.1c0.1,0,0.1-0.1,0.1-0.1c0.1-0.1,0.2-0.3,0.3-0.4c0.1-0.1,0.3-0.3,0.4-0.4
		c0.1-0.1,0.1-0.1,0.1-0.1c0.1-0.1,0.2-0.2,0.3-0.3l0.1-0.1c0.1,0,0.1,0,0.1,0c0.1-0.1,0.2-0.1,0.3-0.2c0.1,0,0.1-0.1,0.2-0.1
		c0.1-0.1,0.2-0.1,0.3-0.2c0.1,0,0.1-0.1,0.2-0.1c0.1,0,0.2-0.1,0.3-0.1c0,0,0.1-0.1,0.2-0.1c0.1,0,0.2-0.1,0.3-0.1h0.1
		c0.1-0.1,0.3-0.1,0.4-0.1c0.1,0,0.1,0,0.1,0h0.7c3.1,0,5.7,2.5,5.7,5.7V32.5z"/>
	<path class="st2" d="M26.2,23.4v1.2c-1.5-1.1-3.5-1.8-5.5-1.8c-5.7,0-10.2,4.9-9.6,10.7c0.5,4.4,4.1,8.1,8.6,8.6
		c2.5,0.2,4.8-0.5,6.7-1.8v1.4h4V23.4H26.2z M19.3,37.9c-2.1-0.4-3.8-2.1-4.3-4.3c-0.7-3.6,2.1-6.9,5.7-6.9c3,0,5.5,2.5,5.5,5.8
		C26.2,36,23,38.7,19.3,37.9z"/>
	<path class="st2" d="M142.9,45.5v4.2c-2.6-0.2-5.7,1-5.7,5.1v9.2h-3.9V45.8h3.9v3C138.4,46.4,140.6,45.5,142.9,45.5z"/>
	<path class="st2" d="M152.4,45.3c-5.4,0-9.6,4.1-9.6,9.6c0,5.5,4.3,9.6,9.6,9.6c5.4,0,9.6-4.2,9.6-9.6
		C162.1,49.4,157.9,45.3,152.4,45.3z M152.4,60.6c-3.2,0-5.7-2.4-5.7-5.8c0-3.3,2.5-5.8,5.7-5.8c3.2,0,5.7,2.4,5.7,5.8
		C158.1,58.2,155.6,60.6,152.4,60.6z"/>
	<path class="st2" d="M188.1,45.8l-5.8,18.3h-3.8l-3.8-12.3l-3.8,12.3H167l-5.8-18.3h4.1l3.5,12.6l3.8-12.6h3.7l3.8,12.6l3.5-12.6
		H188.1z"/>
	<path class="st2" d="M193.3,45.8h-3.9v18.3h3.9V45.8z"/>
	<path class="st2" d="M80.4,23.1v4.2c-2.6-0.2-5.7,1-5.7,5.1v9.2h-3.9V23.4h3.9v3C75.9,24,78.1,23.1,80.4,23.1z"/>
	<path class="st2" d="M104.2,45.3c-2.5,0-4.5,0.9-5.7,2.8v-10l-3.2-1.8c-0.2,0.3-0.4,0.6-0.7,0.8c-1,0.8-2.3,1.4-4,1.4
		c-2.9,0-5.2-1.5-5.9-4.3h14.6c0-0.5,0.1-1.1,0.1-1.6c0-5.3-3.7-9.6-9.2-9.6c-5.7,0-9.6,4.2-9.6,9.6c0,5.5,3.8,9.6,9.9,9.6
		c1.5,0,2.8-0.3,4-0.8v22.7h3.9v-9.8c0-3.7,2-5.3,4.6-5.3c2.4,0,4,1.5,4,4.2v10.8h3.9V52.7C111.1,48,108.2,45.3,104.2,45.3z
		 M90.1,26.5c2.4,0,4.6,1.3,5.2,4.4H84.7C85.2,28.2,87.2,26.5,90.1,26.5z"/>
	<path class="st2" d="M118.9,32.5c0-5.3-3.7-9.6-9.2-9.6c-5.7,0-9.6,4.2-9.6,9.6c0,5.4,3.9,9.6,9.9,9.6c3.5,0,6.4-1.5,8-3.9
		l-3.1-1.9c-0.9,1.3-2.5,2.2-4.8,2.2c-2.9,0-5.3-1.4-5.9-4.3h14.5C118.9,33.6,118.9,33,118.9,32.5z M104.3,30.9
		c0.6-2.7,2.6-4.4,5.6-4.4c2.4,0,4.6,1.3,5.3,4.4H104.3z"/>
	<path class="st2" d="M168.9,32.6c0-5.3-3.7-9.6-9.2-9.6c-5.7,0-9.6,4.2-9.6,9.6c0,5.5,3.8,9.6,9.9,9.6c3.5,0,6.3-1.4,8-3.9
		l-3.2-1.9c-0.9,1.2-2.5,2.2-4.8,2.2c-2.9,0-5.2-1.5-5.8-4.3h14.5C168.8,33.7,168.9,33.1,168.9,32.6z M154,30.9
		c0.6-2.7,2.6-4.4,5.6-4.4c2.4,0,4.7,1.3,5.2,4.4H154z"/>
	<path class="st2" d="M189.4,41.6h3.9v-3.5h-3.9V41.6z"/>
	<path class="st2" d="M41.4,22.9c-2.5,0-4.4,0.9-5.7,2.8v-2.1l0,0v-0.3h-3.9v1.5l0,0v16.8h3.9v-9.8c0-3.7,2-5.3,4.6-5.3
		c2.5,0,4,1.4,4,4.2v10.8h3.9V30.4C48.5,25.7,45.6,22.9,41.4,22.9z"/>
	<path class="st2" d="M174.7,41.6h-3.9V23.4h3.9v2.3c1.2-1.9,3.1-2.8,5.7-2.8c4,0,7,2.7,7,7.5v11.2h-3.9V30.8c0-2.7-1.6-4.2-4-4.2
		c-2.6,0-4.6,1.5-4.6,5.3V41.6z"/>
	<path class="st2" d="M124.1,28.4c0-1.3,1.2-1.9,2.6-1.9s2.6,0.6,3.3,1.8l3.4-1.7c-1.3-2.3-3.7-3.7-6.8-3.7c-3.7,0-6.7,2.1-6.7,5.6
		c0,3.8,3.3,4.7,6.2,5.6c2,0.6,3.6,1,3.6,2.4c0,1.4-1.3,2-3.1,2c-1.7,0-3.1-0.7-3.8-2l-3.5,1.7c1.2,2.4,3.8,3.9,7.3,3.9
		c3.9,0,7.2-2,7.2-5.7c0-3.9-3.4-4.9-6.2-5.7C125.9,30.2,124.1,29.7,124.1,28.4z"/>
	<path class="st2" d="M142,26.5c-1.4,0-2.6,0.6-2.6,1.9c0,1.4,1.7,1.8,3.6,2.4c2.8,0.8,6.2,1.7,6.2,5.7c0,3.6-3.1,5.7-7.2,5.7
		c-3.5,0-6.1-1.5-7.3-3.9l3.5-1.7c0.7,1.3,2,2,3.8,2c1.7,0,3.1-0.6,3.1-2c0-1.3-1.7-1.8-3.6-2.4c-2.8-0.8-6.2-1.7-6.2-5.6
		c0-3.4,2.9-5.6,6.7-5.6c2.9,0,5.5,1.4,6.8,3.7l-3.4,1.7C144.6,27.1,143.4,26.5,142,26.5z"/>
</g>
</svg>
