<?xml version="1.0" encoding="utf-8"?>
<!-- Generator: Adobe Illustrator 26.0.1, SVG Export Plug-In . SVG Version: 6.00 Build 0)  -->
<svg version="1.1" id="Layer_1" xmlns="http://www.w3.org/2000/svg" xmlns:xlink="http://www.w3.org/1999/xlink" x="0px" y="0px"
	 viewBox="0 0 233.5 80.5" style="enable-background:new 0 0 233.5 80.5;" xml:space="preserve">
<style type="text/css">
	.st0{fill:none;stroke:url(#SVGID_1_);stroke-width:0.5;stroke-miterlimit:10;}
	.st1{fill:none;stroke:#00E9BA;stroke-width:0.5;stroke-miterlimit:10;}
	.st2{fill:#FFFFFF;}
	.st3{clip-path:url(#SVGID_00000039844983843530103440000014950078213772838805_);fill:#FFFFFF;}
	.st4{fill-rule:evenodd;clip-rule:evenodd;fill:#FFFFFF;}
</style>
<g>
	<g>
		<g>
			<path class="st2" d="M53.8,18.9c2.8,0,5.1,1,7,2.9c1.9,2,2.9,4.4,2.9,7.4s-1,5.5-2.9,7.4c-1.9,2-4.2,2.9-7,2.9
				c-2.5,0-4.5-0.9-6.1-2.7V39h-5.2V11.7h5.2v10C49.3,19.8,51.3,18.9,53.8,18.9L53.8,18.9z M49.2,33.3c1.1,1,2.4,1.5,3.9,1.5
				s2.8-0.5,3.8-1.5s1.6-2.3,1.6-4.1c0-1.7-0.5-3.1-1.6-4.1c-1.1-1-2.4-1.5-3.9-1.5s-2.8,0.5-3.9,1.5c-1.1,1-1.6,2.3-1.6,4.1
				C47.5,31,48,32.3,49.2,33.3L49.2,33.3z"/>
		</g>
		<g>
			<rect x="67.7" y="19.5" class="st2" width="5.2" height="19.5"/>
		</g>
		<g>
			<path class="st2" d="M90.6,33.3l3.2,3.4c-1.8,1.9-3.9,2.8-6.3,2.8c-2.6,0-4.7-0.7-6.2-2.2s-2.2-3.4-2.2-6v-6.7l1.3-2.9l-1.3-2.3
				v-5.2h5.2v17.2c0,2.2,1.1,3.2,3.3,3.2C88.8,34.7,89.8,34.2,90.6,33.3L90.6,33.3z"/>
		</g>
		<g>
			<path class="st2" d="M103.7,39.6c-3.4,0-6.1-1.2-8.1-3.7l3.5-2.7c1.8,1.5,3.5,2.3,5.1,2.3c0.9,0,1.7-0.2,2.2-0.6
				c0.5-0.4,0.8-0.8,0.8-1.4c0-0.4-0.2-0.8-0.6-1.1s-0.8-0.5-1.2-0.6c-0.4-0.1-1.1-0.3-2-0.6c-1-0.3-1.8-0.5-2.4-0.7
				c-0.6-0.2-1.3-0.5-2.1-0.9c-0.8-0.4-1.4-1-1.7-1.7c-0.4-0.7-0.6-1.6-0.6-2.6c0-2,0.7-3.5,2.1-4.6s3.1-1.7,5.2-1.7
				c3.3,0,5.8,1.2,7.7,3.6l-3.4,2.8c-1.2-1.4-2.6-2.2-4.2-2.2c-0.8,0-1.4,0.2-1.9,0.6c-0.5,0.4-0.7,0.8-0.7,1.3
				c0,0.4,0.2,0.8,0.6,1.1c0.4,0.3,0.8,0.5,1.2,0.6s1.1,0.3,2,0.5c0.8,0.2,1.4,0.4,1.8,0.5c0.4,0.1,1,0.3,1.7,0.6
				c0.7,0.3,1.3,0.7,1.6,1c0.4,0.4,0.7,0.9,1,1.5c0.3,0.6,0.4,1.3,0.4,2.2c0,2-0.7,3.5-2.2,4.8C108.1,39,106.2,39.6,103.7,39.6
				L103.7,39.6z"/>
		</g>
		<g>
			<path class="st2" d="M130.1,25.9c-1.4-1.5-3.1-2.2-4.9-2.2c-1.5,0-2.8,0.5-3.8,1.5c-1,1-1.6,2.4-1.6,4.1c0,1.6,0.5,2.9,1.6,3.9
				c1.1,1,2.4,1.5,3.9,1.5c1.9,0,3.5-0.7,5-2.1l3.3,3.1c-2.3,2.6-5,3.9-8.4,3.9c-3.1,0-5.6-1-7.6-2.9c-2-1.9-3-4.4-3-7.4
				s1-5.5,3-7.5c2-2,4.5-2.9,7.6-2.9c3.3,0,6,1.3,8.1,3.8L130.1,25.9z"/>
		</g>
		<g>
			<path class="st2" d="M151.2,19.5h5.2V39h-5.2v-2.2c-1.5,1.8-3.5,2.7-6.1,2.7c-2.8,0-5.1-1-7-2.9s-2.9-4.4-2.9-7.4
				c0-3,1-5.5,2.9-7.4s4.2-2.9,7-2.9c2.5,0,4.5,0.9,6.1,2.7V19.5z M142,33.3c1.1,1,2.3,1.5,3.8,1.5c1.5,0,2.8-0.5,3.9-1.5
				s1.6-2.4,1.6-4.1c0-1.7-0.6-3.1-1.6-4.1c-1.1-1-2.4-1.5-3.9-1.5s-2.8,0.5-3.9,1.5c-1.1,1-1.6,2.3-1.6,4.1
				C140.4,31,141,32.3,142,33.3L142,33.3z"/>
		</g>
		<g>
			<rect x="161.7" y="11.7" class="st2" width="5.2" height="27.3"/>
		</g>
		<g>
			<path class="st2" d="M190.9,28.5c0,0.8-0.1,1.6-0.2,2.4L176.1,31c0.4,1.3,1,2.4,2,3.2c1,0.8,2.2,1.2,3.7,1.2
				c1.7,0,3.5-0.7,5.5-2.1l2.8,3c-2.2,2.1-5,3.2-8.4,3.2c-3.2,0-5.7-1-7.7-2.9s-3-4.5-3-7.5c0-3,1-5.5,2.9-7.4
				c1.9-1.9,4.4-2.9,7.5-2.9c2.9,0,5.2,0.9,6.9,2.6C190,23.2,190.9,25.6,190.9,28.5L190.9,28.5z M181.4,23c-1.2,0-2.3,0.4-3.3,1
				c-0.9,0.7-1.6,1.6-1.9,2.9h9.9c-0.3-1.2-0.8-2.2-1.6-2.9C183.6,23.3,182.6,23,181.4,23L181.4,23z"/>
		</g>
	</g>
	<g>
		<g>
			<defs>
				<rect id="SVGID_00000099641126492029508500000007394160136942468012_" x="79.2" y="19.5" width="11.7" height="5.2"/>
			</defs>
			<use xlink:href="#SVGID_00000099641126492029508500000007394160136942468012_"  style="overflow:visible;fill:#FFFFFF;"/>
			<clipPath id="SVGID_00000152226137635804033320000000037175810932512676_">
				<use xlink:href="#SVGID_00000099641126492029508500000007394160136942468012_"  style="overflow:visible;"/>
			</clipPath>
			
				<rect x="79.2" y="19.5" style="clip-path:url(#SVGID_00000152226137635804033320000000037175810932512676_);fill:#FFFFFF;" width="11.7" height="5.2"/>
		</g>
	</g>
	<g>
		<g>
			<path class="st2" d="M114.7,57.3c0-3.6,2.7-6.2,6.2-6.2c2.7,0,5,1.6,5.8,4.2h-1.2c-0.6-1.9-2.4-3.1-4.5-3.1c-2.8,0-5,2.2-5,5.1
				s2.2,5.1,5,5.1c2.2,0,3.9-1.3,4.5-3.1h1.2c-0.7,2.6-3.1,4.2-5.8,4.2C117.4,63.6,114.7,60.9,114.7,57.3L114.7,57.3z"/>
		</g>
		<g>
			<path class="st2" d="M140.8,51.3v12h-1.2v-2.9c-0.9,1.9-2.8,3.1-5,3.1c-3.4,0-5.7-2.6-5.7-6.2c0-3.6,2.4-6.2,5.7-6.2
				c2.3,0,4.1,1.2,5,3.1v-2.9L140.8,51.3L140.8,51.3z M139.6,57.3c0-3-2.1-5.1-4.9-5.1c-2.8,0-4.7,2.2-4.7,5.1c0,3,1.9,5.1,4.7,5.1
				C137.5,62.5,139.6,60.3,139.6,57.3L139.6,57.3z"/>
		</g>
		<g>
			<path class="st2" d="M156.3,57.3c0,3.6-2.3,6.2-5.7,6.2c-2.3,0-4.1-1.2-5-3.1v8.3h-1.2V51.3h1.2v2.9c0.9-1.9,2.8-3.1,5-3.1
				C154,51.1,156.3,53.7,156.3,57.3L156.3,57.3z M155.2,57.3c0-3-1.9-5.1-4.7-5.1c-2.8,0-4.9,2.2-4.9,5.1s2.1,5.1,4.9,5.1
				S155.2,60.3,155.2,57.3L155.2,57.3z"/>
		</g>
		<g>
			<rect x="159.4" y="51.3" class="st2" width="1.2" height="12"/>
		</g>
		<g>
			<path class="st2" d="M172.6,62.9c-0.6,0.3-1.8,0.7-3.1,0.7c-2.7,0-4.2-1.8-4.2-4.8v-6.4h-2.4v-1.1h2.4v-3h1.2v3h5.9v1.1h-5.9v6.3
				c0,2.4,1,3.8,3.2,3.8c0.9,0,1.8-0.2,2.7-0.6L172.6,62.9z"/>
		</g>
		<g>
			<path class="st2" d="M186.1,51.3v12h-1.2v-2.9c-0.9,1.9-2.8,3.1-5,3.1c-3.4,0-5.7-2.6-5.7-6.2c0-3.6,2.4-6.2,5.7-6.2
				c2.3,0,4.1,1.2,5,3.1v-2.9L186.1,51.3L186.1,51.3z M184.9,57.3c0-3-2.1-5.1-4.9-5.1c-2.8,0-4.7,2.2-4.7,5.1c0,3,1.9,5.1,4.7,5.1
				S184.9,60.3,184.9,57.3L184.9,57.3z"/>
		</g>
		<g>
			<rect x="189.7" y="46.5" class="st2" width="1.2" height="16.8"/>
		</g>
		<g>
			<rect x="85.7" y="19.5" class="st2" width="5.2" height="5.2"/>
		</g>
	</g>
</g>
</svg>
