<?xml version="1.0" encoding="UTF-8"?><svg id="a" xmlns="http://www.w3.org/2000/svg" viewBox="0 0 233.5 80.47"><defs><style>.c{fill:#fff;}.d{isolation:isolate;}</style></defs><g id="b"><g><g><path class="c" d="M47.36,24.41v1.44h-3.04v5.2h3.04v17.98h6.91V31.05h4.2v-5.2h-4.2v-1.38c0-1.22,.72-1.83,2.05-1.83h2.16v-5.86h-3.76c-4.92,0-7.36,2.49-7.36,7.63Z"/><path class="c" d="M62.52,24.41v1.44h-3.04v5.2h3.04v17.98h6.91V31.05h4.2v-5.2h-4.2v-1.38c0-1.22,.72-1.83,2.05-1.83h2.16v-5.86h-3.76c-4.98,0-7.36,2.49-7.36,7.63Z"/><path class="c" d="M119.27,29.72l.11-2.88h-6.8v22.51h6.97v-6.47c0-4.26,.22-6.25,.83-7.69,.66-1.55,2.43-2.49,4.59-2.49,.55,0,.83,0,1.6,.11l.28,.06v-6.64h-.22c-4.2,0-6.08,.77-7.36,3.48Z"/><path class="c" d="M194.16,28.56c-1.49-1.38-3.15-1.99-5.37-1.99-6.03,0-10.07,4.81-10.07,11.89s3.98,11.84,9.9,11.84c2.54,0,4.31-.77,5.86-2.54v1.94h6.64V18.83h-6.91l-.06,9.73h0Zm-4.2,16.04c-2.71,0-4.42-2.43-4.42-6.19s1.71-6.19,4.42-6.19,4.42,2.43,4.42,6.25c.06,3.71-1.77,6.14-4.42,6.14Z"/><path class="c" d="M32.26,25.46c-7.74,0-12.39,5.09-12.39,12.28s4.65,12.28,12.39,12.28,12.33-5.09,12.33-12.28c.06-7.14-4.65-12.28-12.33-12.28Zm0,19.19c-3.21,0-5.14-2.38-5.14-6.86s1.94-6.86,5.14-6.86,5.09,2.38,5.09,6.86c.06,4.48-1.88,6.86-5.09,6.86Z"/><path class="c" d="M99.69,25.46c-3.37,0-5.81,1.83-6.69,3.04h-.11v-11.45h-7.25V49.41h7.25v-2.32h.11c.88,1.22,3.37,3.04,6.69,3.04,6.14,0,10.07-4.7,10.07-12.28,.06-7.69-3.87-12.39-10.07-12.39Zm-1.88,19.19c-2.93,0-4.76-2.38-4.76-6.86s1.83-6.86,4.76-6.86,4.76,2.38,4.76,6.86-1.83,6.86-4.76,6.86Z"/><path class="c" d="M149.8,45.93v-10.62c0-7.3-3.6-9.79-10.12-9.79-7.58,0-10.73,3.76-10.95,8.19h6.8c.22-2.21,1.49-3.21,4.09-3.21,1.99,0,2.93,.83,2.93,2.16,0,1.94-2.93,2.38-5.92,2.99-5.42,1.11-8.79,3.21-8.79,7.8,0,3.87,2.71,6.64,7.58,6.64,3.1,0,5.81-1.44,7.3-3.15h.11c0,1.6,.88,3.15,4.15,3.15,1.44,0,2.77-.17,4.2-.72v-1.71c-.94,0-1.38-.5-1.38-1.71Zm-7.25-5.03c0,2.21-1.49,4.2-4.59,4.2-1.77,0-2.88-.83-2.88-2.71,0-1.44,.94-2.6,3.82-3.26,1.66-.39,2.82-.66,3.71-1.05l-.06,2.82h0Z"/><path class="c" d="M168.88,25.46c-4.09,0-6.36,1.94-7.58,4.09h-.11v-3.32h-7.25v23.18h7.25v-13.44c0-3.21,1.6-4.59,4.31-4.59,2.38,0,3.6,1.16,3.6,4.65v13.33h7.25v-15.65c0-5.25-3.04-8.24-7.47-8.24Z"/><path class="c" d="M209.81,42.11c-2.16,0-3.87,1.55-3.87,3.82s1.66,3.87,3.87,3.87,3.82-1.49,3.82-3.87c.06-2.32-1.66-3.82-3.82-3.82Z"/></g><g class="d"><path class="c" d="M86.24,55.78h2.43c1.77,0,2.82,1.11,2.82,3.15s-1.05,3.15-2.77,3.15h-2.49v-6.31Zm1.05,5.42h1.33c1.44,0,1.83-1.05,1.83-2.27s-.39-2.27-1.83-2.27h-1.33v4.54Z"/><path class="c" d="M92.22,56.33c0-.33,.28-.5,.5-.5,.28,0,.55,.17,.55,.5s-.28,.5-.55,.5c-.22,0-.5-.17-.5-.5Zm1,1.27v4.54h-.94v-4.54h.94Z"/><path class="c" d="M98.25,57.6v4.2c0,1.33-.77,1.88-2.05,1.88s-1.99-.66-2.1-1.44h.94c.11,.39,.39,.72,1.16,.72s1.16-.33,1.16-1.16v-.55h0c-.22,.33-.66,.66-1.38,.66-1.11,0-1.99-.77-1.99-2.21s.83-2.21,1.99-2.21c.72,0,1.11,.33,1.38,.66h0v-.55h.88Zm-.94,2.1c0-.94-.44-1.44-1.22-1.44-.83,0-1.22,.61-1.22,1.44s.44,1.44,1.22,1.44,1.22-.5,1.22-1.44Z"/><path class="c" d="M99.13,56.33c0-.33,.28-.5,.5-.5,.28,0,.55,.17,.55,.5s-.28,.5-.55,.5c-.22,0-.5-.17-.5-.5Zm1,1.27v4.54h-.94v-4.54h.94Z"/><path class="c" d="M102.34,58.38v2.43c0,.5,.22,.55,.83,.55v.77c-.17,.06-.39,.06-.66,.06-.72,0-1.16-.33-1.16-1.27v-2.54h-.66v-.77h.66v-1.44h.94v1.44h.83v.77h-.77Z"/><path class="c" d="M105.82,58.21c-.72,0-1,.22-1.05,.83h-.88c.06-.88,.61-1.55,1.94-1.55,1,0,1.77,.39,1.77,1.6v2.16c0,.33,.06,.5,.44,.44v.44c-.22,.06-.39,.11-.55,.11-.5,0-.72-.17-.83-.61h0c-.28,.39-.77,.66-1.49,.66-.94,0-1.49-.55-1.49-1.27,0-1,.72-1.33,1.88-1.55,.72-.11,1.11-.22,1.11-.66,0-.39-.22-.61-.83-.61Zm.83,2.16v-.66c-.17,.11-.5,.22-.94,.28-.77,.17-1.11,.39-1.11,.83s.22,.66,.77,.66c.72,.06,1.27-.33,1.27-1.11Z"/><path class="c" d="M109.48,55.78v6.31h-.94v-6.31h.94Z"/><path class="c" d="M116.33,58.38v.88h-3.1v1.94h3.6v.88h-4.65v-6.31h4.59v.88h-3.54v1.71h3.1Z"/><path class="c" d="M118.44,57.6l1.05,1.6h0l1.05-1.6h1.05l-1.55,2.21,1.71,2.32h-1.11l-1.16-1.71h0l-1.16,1.71h-1.11l1.71-2.32-1.55-2.21h1.05Z"/><path class="c" d="M126.57,59.87c0,1.49-.88,2.38-1.99,2.38-.72,0-1.16-.33-1.38-.66h0v2.1h-.94v-6.08h.94v.55h0c.22-.33,.66-.66,1.38-.66,1.11,0,1.99,.88,1.99,2.38Zm-.94,0c0-.88-.44-1.6-1.27-1.6-.77,0-1.22,.61-1.22,1.6s.44,1.6,1.22,1.6c.83,0,1.27-.72,1.27-1.6Z"/><path class="c" d="M130.38,60.75h.94c-.22,.88-.88,1.49-2.05,1.49-1.38,0-2.27-1-2.27-2.38,0-1.49,.88-2.38,2.21-2.38,1.44,0,2.16,1,2.16,2.6h-3.48c0,.77,.5,1.38,1.33,1.38,.77,0,1.11-.44,1.16-.72Zm-2.49-1.33h2.54c0-.72-.5-1.22-1.27-1.22-.72,0-1.27,.5-1.27,1.22Z"/><path class="c" d="M134.59,57.49v.88h0c-.88-.17-1.6,.44-1.6,1.44v2.32h-.94v-4.54h.94v.83h0c.22-.55,.61-.94,1.22-.94h.39Z"/><path class="c" d="M135.2,56.33c0-.33,.28-.5,.5-.5,.28,0,.55,.17,.55,.5s-.28,.5-.55,.5-.5-.17-.5-.5Zm.94,1.27v4.54h-.94v-4.54h.94Z"/><path class="c" d="M140.28,60.75h.94c-.22,.88-.88,1.49-2.05,1.49-1.38,0-2.27-1-2.27-2.38,0-1.49,.88-2.38,2.21-2.38,1.44,0,2.16,1,2.16,2.6h-3.48c0,.77,.5,1.38,1.33,1.38,.77,0,1.05-.44,1.16-.72Zm-2.49-1.33h2.54c0-.72-.5-1.22-1.27-1.22-.72,0-1.27,.5-1.27,1.22Z"/><path class="c" d="M145.81,58.98v3.1h-.94v-2.88c0-.61-.28-1-.88-1-.72,0-1.16,.44-1.16,1.11v2.77h-.94v-4.54h.94v.61h0c.22-.33,.72-.72,1.49-.72,.83,.06,1.49,.5,1.49,1.55Z"/><path class="c" d="M148.69,58.21c-.88,0-1.33,.77-1.33,1.6s.39,1.6,1.33,1.6c.77,0,1.11-.55,1.11-1.05h.94c-.06,1.05-.88,1.83-2.05,1.83-1.33,0-2.21-1-2.21-2.38s.88-2.38,2.21-2.38c1.16,0,1.94,.77,2.05,1.77h-.94c-.06-.44-.33-1-1.11-1Z"/><path class="c" d="M154.5,60.75h.94c-.22,.88-.88,1.49-2.05,1.49-1.38,0-2.27-1-2.27-2.38,0-1.49,.88-2.38,2.21-2.38,1.44,0,2.16,1,2.16,2.6h-3.48c0,.77,.5,1.38,1.33,1.38,.77,0,1.05-.44,1.16-.72Zm-2.49-1.33h2.54c0-.72-.5-1.22-1.27-1.22s-1.27,.5-1.27,1.22Z"/><path class="c" d="M159.81,60.81c0,.88-.72,1.38-1.83,1.38-1.44,0-2.1-.66-2.16-1.66h.88c.06,.5,.28,.88,1.22,.88,.66,0,.94-.33,.94-.61,0-.55-.55-.61-1.22-.77-.72-.17-1.71-.33-1.71-1.33,0-.72,.66-1.33,1.77-1.33,1.22,0,1.83,.66,1.88,1.44h-.88c-.06-.33-.22-.72-.94-.72-.55,0-.88,.22-.88,.55,0,.44,.5,.5,1.16,.66,.88,.28,1.77,.44,1.77,1.49Z"/><path class="c" d="M160.36,61.64c0-.39,.28-.61,.55-.61,.39,0,.61,.33,.61,.83,0,.66-.33,1.38-1.11,1.49v-.5c.33-.06,.55-.33,.55-.66-.33,.06-.61-.17-.61-.55Z"/><path class="c" d="M164.73,55.78l1.11,4.92h0l1.27-4.92h1.11l1.27,4.92h0l1.11-4.92h1.11l-1.6,6.31h-1.11l-1.33-4.98h0l-1.27,4.98h-1.11l-1.55-6.31h1Z"/><path class="c" d="M174.85,60.75h.94c-.22,.88-.88,1.49-2.05,1.49-1.38,0-2.27-1-2.27-2.38,0-1.49,.88-2.38,2.21-2.38,1.44,0,2.16,1,2.16,2.6h-3.48c0,.77,.5,1.38,1.33,1.38,.77,0,1.11-.44,1.16-.72Zm-2.49-1.33h2.54c0-.72-.5-1.22-1.27-1.22s-1.27,.5-1.27,1.22Z"/><path class="c" d="M180.83,59.87c0,1.49-.88,2.38-1.99,2.38-.72,0-1.16-.33-1.38-.66h0v.5h-.94v-6.31h.94v2.38h0c.22-.33,.66-.66,1.38-.66,1.16,0,1.99,.88,1.99,2.38Zm-.94,0c0-.88-.44-1.6-1.27-1.6-.77,0-1.22,.61-1.22,1.6s.44,1.6,1.22,1.6c.83,0,1.27-.72,1.27-1.6Z"/><path class="c" d="M187.13,62.08l-.44-.5c-.44,.39-1,.66-1.71,.66-1.27,0-1.99-.72-1.99-1.71,0-.94,.66-1.44,1.33-1.83-.44-.55-.72-.94-.72-1.55,0-.72,.55-1.49,1.6-1.49,1,0,1.6,.77,1.6,1.49s-.5,1.16-1.33,1.66l1.16,1.38c.17-.33,.28-.72,.33-1.11h.88c-.06,.61-.28,1.27-.66,1.83l1,1.22h-1.05v-.06Zm-1-1.16l-1.38-1.71c-.55,.33-.77,.77-.77,1.22s.39,.88,1.11,.88c.44,.06,.77-.11,1.05-.39Zm-1.66-3.71c0,.33,.28,.66,.61,1.05,.5-.33,.83-.61,.83-1.05,0-.39-.22-.72-.72-.72-.44,.06-.72,.33-.72,.72Z"/><path class="c" d="M190.23,57.82c0-1.16,.77-1.99,2.32-1.99,1.11,0,2.05,.61,2.05,1.71,0,.66-.33,1.05-.94,1.33h0c.83,.22,1.11,.77,1.11,1.49,0,1.22-.88,1.83-2.21,1.83-1.6,0-2.49-.83-2.49-2.21h1c0,.83,.39,1.33,1.44,1.33,.94,0,1.27-.33,1.27-1,0-.83-.61-1.05-1.22-1.05h-.55v-.83h.5c.66,0,1.05-.28,1.05-.88,0-.5-.33-.88-1.05-.88-.94,0-1.27,.5-1.27,1.11h-1v.06Z"/><path class="c" d="M195.54,55.78h2.43c1.77,0,2.82,1.11,2.82,3.15s-1.05,3.15-2.77,3.15h-2.49v-6.31Zm1.05,5.42h1.33c1.44,0,1.83-1.05,1.83-2.27s-.39-2.27-1.83-2.27h-1.33v4.54Z"/></g></g></g></svg>