<?xml version="1.0" encoding="UTF-8"?><svg id="a" xmlns="http://www.w3.org/2000/svg" viewBox="0 0 233.5 80.47"><defs><style>.b{fill:#fff;}</style></defs><path class="b" d="M63.88,14.18H27.13v52.1H63.89c0-4.67,0-9.34,0-14.01,0-4.92,0-9.85,0-14.77,0-7.76,.01-15.56,0-23.32ZM29.17,64.25c0-10.58,0-21.16,0-31.73,0-5.29,0-10.59,0-15.88v-.42c10.89,0,21.78,0,32.67,0,0,5.02,0,10.03,0,15.05-.01,.36,0,.7,.05,1.05-.03,1.22,.02,2.44-.05,3.66,0,9.42-.01,18.85,0,28.27-10.89,0-21.79,0-32.68,0Z"/><path class="b" d="M58.48,18.51c-2.69,2.65-5.34,5.33-8.02,7.99-1.65,1.65-3.3,3.29-4.96,4.94-4.24-4.23-8.48-8.47-12.73-12.7-.08-.08-.15-.15-.23-.23-.02,5.28,0,10.56,0,15.84,0,1.6,0,3.19,0,4.78,1.73,1.73,3.45,3.46,5.19,5.18,0-2.03,0-4.07,0-6.11,.02-2.18,0-4.36,.01-6.54,2.48,2.47,4.96,4.96,7.44,7.42,.11,.11,.23,.22,.34,.33,2.59-2.58,5.18-5.18,7.78-7.75,.01,4.21,0,8.42,0,12.63,1.73-1.73,3.47-3.44,5.18-5.18,0-2.93,0-5.87,0-8.79-.05-.6,.02-1.2,0-1.8,.01-3.34,0-6.67,0-10.01Z"/><path class="b" d="M95.04,40.22c0-7.23,0-14.46,0-21.69-.13,0-.26,0-.39,0-3.47,3.87-6.95,7.73-10.42,11.6-3.55-3.85-7.05-7.74-10.59-11.59-.12-.01-.24-.02-.36-.03,0,7.23,0,14.46,0,21.69,1.41,0,2.83,0,4.24,0,0-2.73,0-5.47,0-8.2,0-1.19-.1-2.38-.14-3.57,.76,1.09,1.56,2.19,2.45,3.18,1.37,1.53,2.74,3.06,4.12,4.59,.13,0,.27,0,.4,0,1.27-1.41,2.54-2.83,3.81-4.24,1.01-1.09,1.91-2.3,2.76-3.53-.03,1.13-.13,2.26-.13,3.39,0,2.8,0,5.59,0,8.39,1.42,0,2.85,0,4.27,0Z"/><path class="b" d="M137.28,28.9c-1.37-.9-2.83-1.45-4.31-2.1-.61-.28-1.29-.58-1.79-1.04-.81-.69-.86-2.12-.08-2.84,.66-.61,1.67-.68,2.5-.43,.91,.27,1.45,.98,1.9,1.76,1.16-.73,2.31-1.47,3.46-2.21-.72-1.25-1.68-2.32-3.02-2.91-1.39-.62-3.02-.74-4.51-.54-1.52,.21-2.99,.9-3.98,2.1-.86,1.02-1.31,2.37-1.28,3.69-.02,1.22,.27,2.44,.94,3.47,.56,.86,1.39,1.56,2.25,2.09,1.39,.87,3.06,1.41,4.55,2.15,.54,.27,1.11,.59,1.49,1.06,.38,.48,.49,1.12,.36,1.71-.13,.55-.51,.99-.99,1.27-.7,.41-1.6,.51-2.4,.45-.83-.06-1.64-.32-2.31-.82-.67-.49-1.17-1.14-1.61-1.84-1.21,.68-2.41,1.39-3.62,2.08,.74,1.48,1.94,2.7,3.4,3.46,1.65,.87,3.54,1.14,5.38,1.04,1.65-.11,3.28-.55,4.58-1.6,1.1-.87,1.8-2.17,1.98-3.56,.17-1.31,.04-2.75-.56-3.94-.53-1.06-1.37-1.84-2.34-2.48Z"/><path class="b" d="M182.8,40.22c0-1.29,0-2.59,0-3.88-3.42,0-6.83,0-10.25,0,0-1.03,0-2.07,0-3.1,2.88,0,5.76,0,8.64,0,0-1.26,0-2.52,0-3.78-2.88,0-5.76,0-8.64,0,0-2.27,0-4.54,0-6.81,3.27,0,6.54,0,9.8,0v-3.89c-4.74,0-9.49,0-14.23,0,0,7.16,0,14.31,0,21.47,4.89,0,9.79,0,14.68,0Z"/><path class="b" d="M197.3,34.8c1.17,1.81,2.36,3.61,3.53,5.42,1.71,.01,3.43,0,5.14,0-1.49-2.23-2.97-4.46-4.46-6.69,1.26-.58,2.37-1.41,3.11-2.6,.91-1.45,1.13-3.27,.99-4.95-.13-1.67-.72-3.3-1.88-4.53-1.01-1.09-2.34-1.78-3.75-2.19-1.4-.4-2.82-.52-4.27-.51-1.87,0-3.75-.02-5.61,.01-.03,.3,0,.6-.01,.89v20.56c1.48,0,2.95,0,4.43,0,0-1.78,0-3.56,0-5.33,.93,0,1.86,.04,2.79-.09Zm-2.78-3.77c0-2.8,0-5.6,0-8.39,.83,.01,1.67-.03,2.49,.05,1.01,.1,2.02,.31,2.84,.95,.72,.58,1.07,1.43,1.19,2.33,.12,.99,.08,2.1-.33,3.02-.34,.77-1.01,1.32-1.79,1.61-1.4,.53-2.93,.42-4.4,.43Z"/><path class="b" d="M145,18.75c0,1.29,0,2.59,0,3.88,2.05,.01,4.09,0,6.14,0,0,5.86,0,11.72,0,17.58,1.48,0,2.96,0,4.44,0,0-5.86,0-11.72,0-17.58,2.05,0,4.09,0,6.13,0,0-1.29,0-2.59,0-3.88-5.57-.01-11.14,0-16.71,0Z"/><path class="b" d="M115.13,37.8c.32,.81,.67,1.61,1,2.42,1.55,0,3.11,0,4.67,0-1.89-4.15-3.77-8.29-5.66-12.44-1.39-3.07-2.8-6.14-4.18-9.21-.13,0-.26,0-.39,.01-2.38,5.42-4.76,10.89-7.13,16.32-.77,1.77-1.56,3.54-2.32,5.32,1.42,.01,2.85,0,4.27,0,.33-.81,.67-1.62,1.01-2.43,.92,0,1.84,0,2.76,0,1.99,0,3.98,0,5.98,0Zm-7.24-3.72c.46-1.11,.92-2.22,1.39-3.33,.51-1.19,.91-2.43,1.26-3.68,.05-.16,.11-.31,.17-.47,.38,1.23,.74,2.45,1.23,3.65,.21,.53,.43,1.05,.65,1.57,.25,.59,.49,1.18,.74,1.77,.07,.17,.12,.33,.15,.51-1.87-.03-3.73-.02-5.6-.03Z"/><path class="b" d="M52.31,47.08c-2.27,2.26-4.53,4.53-6.8,6.79-4.24-4.22-8.47-8.45-12.71-12.68-.08-.08-.17-.16-.25-.25-.01,2.66,0,5.33,0,7.99,4.33,4.3,8.64,8.62,12.97,12.92,3.91-3.9,7.82-7.8,11.73-11.7,.41-.41,.83-.82,1.24-1.24,0-2.66,0-5.31,0-7.97-2.07,2.03-4.12,4.09-6.17,6.14Z"/><path class="b" d="M205.18,53.88c-1.11-1.15-2.76-1.77-4.21-2.4-.51-.23-1.09-.48-1.49-.86-.41-.38-.52-.99-.38-1.51,.15-.54,.67-.93,1.22-.99,.49-.05,.98-.02,1.42,.24,.48,.28,.77,.7,1.05,1.16,.87-.55,1.73-1.11,2.6-1.66-.51-.9-1.2-1.68-2.14-2.14-1.03-.5-2.18-.59-3.3-.5-1.35,.14-2.64,.74-3.43,1.87-.86,1.2-.95,2.8-.52,4.18,.32,.98,.99,1.74,1.83,2.32,1.29,.89,2.76,1.28,4.12,2.02,.47,.27,.89,.6,1.03,1.14,.15,.59-.03,1.19-.52,1.57-.69,.55-1.77,.57-2.6,.4-1.09-.24-1.82-1-2.39-1.92-.91,.51-1.81,1.04-2.72,1.56,.71,1.46,2.03,2.55,3.57,3.04,1.25,.39,2.6,.49,3.9,.26,1.18-.2,2.32-.69,3.12-1.6,.63-.7,.93-1.57,1.03-2.5v-.88c-.09-1.05-.45-2.03-1.19-2.8Z"/><path class="b" d="M119.24,51.75c-.01,1.12,.1,2.22,.2,3.33-.69-.89-1.43-1.81-2.28-2.56-2.23-2.08-4.45-4.17-6.68-6.25-.36-.33-.7-.69-1.08-1-.09-.09-.27-.03-.38-.01,0,.18,0,.36,.01,.54,0,5.25,0,10.5,0,15.74,1.04,0,2.09,0,3.13,0,0-2.26,0-4.52,0-6.78,0-.99-.12-1.93-.22-2.91,.57,.71,1.17,1.44,1.82,2.09,2.68,2.51,5.36,5.02,8.04,7.53,.2,.21,.3,.23,.59,.24,0-5.45,0-10.9,0-16.35-1.04,0-2.09,0-3.13,0,0,2.13,0,4.25,0,6.38Z"/><path class="b" d="M85.03,45.37c-.88,2.02-1.76,4.03-2.64,6.05-.41,.92-.73,1.89-1.03,2.86-.09,.32-.19,.62-.31,.93-.36-1.21-.74-2.42-1.24-3.57-.94-2.09-1.87-4.18-2.81-6.27-1.19,0-2.39,0-3.58,0,2.47,5.44,4.93,10.88,7.4,16.33,.11,0,.22,0,.34,.01,2.38-5.44,4.75-10.89,7.11-16.34-1.08,0-2.16,0-3.25,0Z"/><path class="b" d="M153.96,45.38c0,3.44,0,6.89,0,10.33,0,.85-.19,1.84-.87,2.41-.65,.56-1.59,.65-2.41,.65-.82-.01-1.71-.14-2.33-.73-.63-.58-.79-1.51-.82-2.33,0-3.45,0-6.9,0-10.34-1.11,0-2.22-.02-3.33,.01-.03,.3,0,.6-.01,.89,0,3.11,0,6.23,0,9.34,0,.9,.12,1.8,.45,2.64,.44,1.13,1.29,2.07,2.35,2.65,1.17,.64,2.46,.85,3.78,.88,1.59-.03,3.17-.35,4.45-1.34,1.11-.84,1.78-2.1,1.99-3.46,.08-.48,.11-.97,.11-1.46,0-3.38,0-6.77,0-10.15-1.12,0-2.24-.02-3.36,0Z"/><path class="b" d="M173.86,54.44c.52-.89,.69-1.87,.72-2.88-.01-1.32-.28-2.59-1.06-3.68-.83-1.16-2.11-1.85-3.46-2.19-.98-.26-2.03-.33-3.04-.32-1.4,0-2.79,0-4.19,0,0,5.39,0,10.78,0,16.17,1.12,0,2.24,0,3.36,0,0-1.33,0-2.67,0-4,.7,0,1.39,.02,2.08-.07,.89,1.35,1.78,2.71,2.66,4.07,1.29,.01,2.59,0,3.88,0-1.12-1.67-2.24-3.35-3.35-5.02,.99-.46,1.85-1.12,2.41-2.08Zm-2.77-2.24c-.11,.8-.48,1.53-1.22,1.92-1.06,.58-2.51,.49-3.69,.5,0-2.11,0-4.22,0-6.33,1.05,0,2.21-.06,3.21,.31,.61,.22,1.14,.63,1.42,1.23,.35,.73,.36,1.58,.28,2.37Z"/><path class="b" d="M183.01,58.62c0-.77,0-1.54,0-2.31,2.17,0,4.34,0,6.51,0,.02-.96,0-1.92,0-2.87-2.17,0-4.34,0-6.51,0,0-1.71,0-3.42,0-5.13,2.47,0,4.93,0,7.4,0,0-.98,0-1.95,0-2.93-3.27,0-6.54,0-9.81,0-.3,0-.61-.01-.91,.01-.03,.3-.01,.6-.01,.89,0,5.09,0,10.18,0,15.27,3.69,0,7.38,0,11.06,0,0-.98,0-1.95,0-2.93h-7.73Z"/><path class="b" d="M127.01,45.37c0,.98,0,1.95,0,2.93,1.54,0,3.09,0,4.63,0,0,4.41,0,8.83,0,13.24,1.11,0,2.23,0,3.34,0,0-4.41,0-8.83,0-13.24,1.54,0,3.09,0,4.63,0,0-.98,0-1.95,0-2.93-4.2,0-8.4,0-12.61,0Z"/><path class="b" d="M97.54,58.62c-.51,0-1.03-.02-1.54,.02,0-.78,0-1.55,0-2.33,2.17,0,4.35,0,6.52,0,0-.96,0-1.91,0-2.87-2.17,0-4.34,0-6.52,0,0-1.71,0-3.41,0-5.12,2.47,0,4.94,0,7.42,0,0-.98,0-1.95,0-2.93-3.59,0-7.17,0-10.76,0,0,5.39,0,10.78,0,16.17h.06c3.67,0,7.35,0,11.02,0,0-.98,0-1.96,0-2.93-2.06,0-4.12,0-6.19,0Z"/></svg>