<?xml version="1.0" encoding="utf-8"?>
<!-- Generator: Adobe Illustrator 26.0.1, SVG Export Plug-In . SVG Version: 6.00 Build 0)  -->
<svg version="1.1" id="Layer_1" xmlns="http://www.w3.org/2000/svg" xmlns:xlink="http://www.w3.org/1999/xlink" x="0px" y="0px"
	 viewBox="0 0 233.5 80.5" style="enable-background:new 0 0 233.5 80.5;" xml:space="preserve">
<style type="text/css">
	.st0{fill:none;stroke:url(#SVGID_1_);stroke-width:0.5;stroke-miterlimit:10;}
	.st1{fill:none;stroke:#00E9BA;stroke-width:0.5;stroke-miterlimit:10;}
	.st2{fill:#FFFFFF;}
	.st3{clip-path:url(#SVGID_00000135657222669888653140000010789781092531923358_);fill:#FFFFFF;}
	.st4{fill-rule:evenodd;clip-rule:evenodd;fill:#FFFFFF;}
</style>
<g>
	<path class="st2" d="M76.7,30.5c-2.4-4.7-6.6-8.4-11.5-10.3c-3.4-1.3-7-1.6-10.6-1.1c-5.7,0.8-11,4-14.3,8.7
		c-2.4,3.4-3.9,7.6-3.9,11.7c-0.4,7,3,13.8,8.6,17.9c7.1,5.3,17.4,5.5,24.7,0.5c4.3-2.9,7.5-7.5,8.7-12.6
		C79.7,40.4,79.1,35,76.7,30.5z M50.8,23.7c4.4-1.9,9.6-1.8,14,0.1c3.8,1.6,6.7,4.5,8.7,8c-1.9,1.9-3.7,3.7-5.6,5.6
		c-2.2-2.1-4.3-4.4-6.5-6.5c-1.5-1.5-3.7-1.9-5.7-1.2c-1.1,0.4-1.9,1.2-2.7,2c-1.9,1.9-3.7,3.8-5.6,5.6c-1.9-1.9-3.7-3.7-5.6-5.6
		C43.9,28.2,46.9,25.2,50.8,23.7z M65,40.2c-1.8,1.8-3.6,3.5-5.3,5.3c-0.5,0.5-1,1.1-1.7,1.4c-0.8,0.3-1.5-0.5-2-0.9
		c-1.9-1.9-3.8-3.9-5.8-5.8c1.8-1.8,3.6-3.6,5.4-5.5c0.5-0.5,1.1-1.1,1.7-1.3c0.7-0.1,1.3,0.5,1.7,1C61.2,36.3,63.1,38.3,65,40.2z
		 M40,37c0.1-0.3,0.1-0.7,0.2-1c1.4,1.4,2.9,2.8,4.3,4.3c-1.4,1.4-2.8,2.9-4.3,4.3C39.7,42,39.6,39.5,40,37z M64.1,57
		c-4.5,1.7-9.7,1.5-14-0.5c-3.5-1.6-6.3-4.4-8.2-7.8c1.9-1.8,3.7-3.7,5.6-5.5c2.3,2.1,4.4,4.5,6.7,6.6c1.6,1.5,4,1.8,6,0.9
		c0.9-0.4,1.6-1.1,2.3-1.8c1.9-1.9,3.8-3.8,5.7-5.7c1.9,1.9,3.7,3.7,5.6,5.6C71.4,52.5,68.2,55.5,64.1,57z M75.2,44.5
		c-1.4-1.4-2.9-2.8-4.3-4.3c1.4-1.4,2.8-2.9,4.3-4.2C75.8,38.8,75.8,41.6,75.2,44.5z"/>
	<path class="st2" d="M87.8,55.4c1,0,2.1,0,3.1,0.2c-0.8,1-2.7,0.5-3.9,0.6c0-2.1,0-4.3,0-6.4c0-0.7,0.1-0.7,0.7-1.1
		C87.9,50.9,87.8,53.2,87.8,55.4z"/>
	<path class="st2" d="M90,31.1c1.1,1.7,2,3.3,1.8,5.4c-0.2,1.5-1.2,2.7-2.6,3.3c-0.7,0.3-0.8,0.1-1.1-0.5c0.9-0.8,2.1-1.2,2.4-2.5
		c0.4-2.1-0.7-3.9-2-5.4c0.8-1.9,1.4-3.9,1.9-5.9c-1.2,0-2.4,0-3.6,0c0,5.6,0,11.2,0,16.9c0,0.6,0,1.1-0.2,1.7
		c-1.2,0.2-0.8-0.9-0.9-1.7c0-5.4,0-10.9,0-16.3c0-0.6,0-1.1,0.2-1.6c1.8-0.1,3.7-0.1,5.4,0c0.4,0.1,0.5,0.3,0.4,0.6
		C91.5,27,90.8,29.1,90,31.1z"/>
	<path class="st2" d="M98.1,51.6c-0.7-0.8-1.7-1.2-2.7-1c-2,0.3-2.9,2.6-1.9,4.3c0.8,1.6,3,1.9,4.4,0.8C98.9,54.7,99,52.8,98.1,51.6
		z M97.4,55c-0.8,0.9-2.3,0.9-3,0c-1-1-0.6-2.8,0.6-3.5c0.8-0.4,1.8-0.2,2.4,0.4C98.2,52.8,98.2,54.2,97.4,55z"/>
	<path class="st2" d="M106.4,54.2c-0.1,0.9,0.3,1.7-0.7,2.3c-0.1-1.4,0.1-3-0.3-4.4c-0.6-1.3-2.4-0.8-2.9,0.3
		c-0.4,1.2-0.2,2.5-0.2,3.7l-0.7,0c0-1.9-0.1-3.8,0.1-5.6c0.3,0.3,0.5,0.6,0.8,0.9c0.9-0.6,1.7-1.1,2.8-0.6
		C106.5,51.4,106.4,53,106.4,54.2z"/>
	<path class="st2" d="M109.2,43c-0.5,0.5-1.2,0.4-1.8,0.4c-5.1,0-10.3,0-15.5,0c0-0.4,0-0.7,0-1.1c2.7,0,5.4,0,8,0v-2.5
		c-1.8-0.1-3.8,0.3-5.5-0.2c0-0.3,0-0.6,0.2-0.8c1.8-0.2,3.6,0,5.3-0.1c0-0.7,0-1.3,0-2c-1.8,0-3.5,0-5.3,0c-0.6,0.6-1.2,1.2-2,1.6
		c-0.3-0.2-0.5-0.4-0.6-0.7c1.2-1.1,2-2.2,3-3.6c1.1,0.1,0.4,0.8,0.5,1.6c1.5,0,2.9,0,4.4,0v-2.3c-1.5,0-3.1,0.1-4.6-0.1
		c-0.2-0.5-0.1-0.8,0.1-1c1.7-0.2,3.4-0.1,5-0.1c1.8,0,3.6-0.1,5.4,0.1c0,0.3,0,0.6,0.1,0.9c-1.6,0.3-3.3,0.1-4.9,0.2v2.3
		c2.2,0,4.4-0.1,6.6,0.1c0.4,0.4,0.4,0.8,0,1c-2.2,0.3-4.4,0-6.6,0.1v2c1.6,0,3.3,0,4.9,0c0.5,0,1.2-0.1,1.6,0.3
		c0,0.7,0,0.7-0.6,0.8c-1.9,0.1-3.9,0-5.9,0v2.5c2.2,0,4.4,0,6.6,0C108.5,42.3,109.1,42,109.2,43z"/>
	<path class="st2" d="M94.2,30.7c1.7-0.4,3.3-1,5-1.6c-1.2-0.6-2.5-1-3.5-1.7c0-0.6-0.2-0.7,0.5-0.8c1.5,0.5,3,1.3,4.5,1.9
		c1.7-0.8,3.2-1.8,4.7-2.9c-2.9,0-5.9,0-8.8,0c-1.2,0.8-2.4,1.8-3.8,2.3c-0.5-0.2-0.6-0.2-0.5-0.8c1-0.7,2.1-1.2,3.1-2
		c1.2-0.9,2.1-2,3.2-2.9c0.3,0.2,0.5,0.4,0.7,0.6c-0.5,0.6-0.9,1.1-1.4,1.7c2.3,0,4.5,0,6.8,0c0.9,0,1.8,0,2.7,0.2
		c0.1,0.4,0,0.8-0.3,1c-1.4,1.4-3.2,2.5-4.9,3.5c2.2,0.9,4.5,1.5,6.8,2.2c0.7,0.4,0,1.1-0.5,0.9c-2.6-0.5-5.2-1.5-7.7-2.4
		c-2.4,1-5,1.9-7.6,2.4c-0.7,0.1-0.8,0-0.9-0.7C92.8,31,93.6,30.9,94.2,30.7z"/>
	<path class="st2" d="M114.9,50.5c-0.3,0.3-0.6,0.6-0.9,0.8c-0.7-0.4-1.3-0.9-2.2-0.8c-1.5,0.1-2.7,1.4-2.6,2.9
		c0,1.4,1.2,2.6,2.6,2.6c0.9,0.1,1.7-0.5,2.5-0.9c-0.3,0.9-0.3,1.8-1.3,2.1c-1.5,0.5-2.3-0.3-3.5-1c0.2,2.6,5.1,2.4,5.3-0.1
		C115.1,54.3,114.9,52.4,114.9,50.5z M113.6,54.9c-1,0.8-2.7,0.7-3.3-0.5c-0.6-1.1-0.1-2.4,1-2.9c0.8-0.4,1.9-0.2,2.5,0.5
		C114.4,52.8,114.4,54.1,113.6,54.9z"/>
	<path class="st2" d="M119.2,28.7c0.7,1.2,1.5,2.6,1.9,4c-0.2,0.2-0.5,0.4-0.8,0.6c-0.8-1.4-1.6-2.8-2.2-4.3
		C118.2,28.3,119,28.1,119.2,28.7z"/>
	<path class="st2" d="M118.9,55.4c1,0,2,0,3,0.1l-0.5,0.6c-1,0.2-2.2,0.2-3.3,0c-0.1-2.4-0.2-5,0.1-7.4l0.6,0.3
		C119,51.1,118.8,53.3,118.9,55.4z"/>
	<path class="st2" d="M122.7,42.7c0.1,0.4,0,0.7-0.3,0.9c-1.2-0.4-2.3-1.3-3.4-2c-1.2-0.8-2.6-1.4-3.7-2.4c0-0.5,0.2-0.7,0.6-0.7
		c1.1,0.5,2.1,1.2,3.2,1.8c1.4-1.6,2.7-3.4,3.8-5.2c-2.4-0.1-4.8,0.1-7.1-0.1c-0.6-0.6-0.1-0.9,0.5-1c2.4-0.1,4.8,0,7.2,0
		c0.5,0,1.3,0,0.9,0.8c-1.1,2.2-2.7,4.3-4.3,6.2C120.9,41.5,121.9,42,122.7,42.7z"/>
	<path class="st2" d="M114.7,32c-0.2-0.2-0.4-0.4-0.6-0.7c0.2-0.6,0.7-1.1,1.1-1.7c1.5-1.8,2.7-3.8,3.6-5.9c0.3-0.6,0.3-1.3,1.2-1.2
		c0.6,0.5-0.1,1.5-0.2,2.2c1.8,1.7,3.5,3.5,4.8,5.5c0.3,0.7,0.8,1-0.2,1.5c-0.7-0.7-1.2-1.5-1.8-2.2c-1-1.4-2.2-2.5-3.4-3.7
		C117.9,28,116.5,30.1,114.7,32z"/>
	<path class="st2" d="M124.4,49.7c-0.6-0.1-0.6-1,0.1-1.1C125.5,48.5,125.3,50.1,124.4,49.7z"/>
	<path class="st2" d="M125,54.5c-0.1,0.7,0.3,1.5-0.6,1.8c-0.2-1.8-0.2-3.7-0.1-5.5l0.5-0.2C125.1,51.8,124.9,53.2,125,54.5z"/>
	<path class="st2" d="M126.9,31.7c-0.1,2.3,0.1,4.6-0.1,6.8c-0.3,0.1-0.6,0.1-0.9,0c-0.2-1.8-0.1-3.6-0.1-5.4c0-1.7-0.1-3.4,0.1-5
		c0.3-0.1,0.6-0.1,0.8,0C127,29.2,126.8,30.5,126.9,31.7z"/>
	<path class="st2" d="M132.7,52.3c0.1,1.2,0.2,2.5,0,3.7l-0.5,0.4c-0.2-1.3-0.1-2.6-0.2-3.9c-0.1-0.6-0.4-1.1-1.1-1.2
		c-1.1-0.1-2.1,0.7-2.1,1.9c-0.2,1.2,0.3,2.5-0.7,3.4c-0.2-1.9-0.2-4,0-5.9c0.3,0.2,0.6,0.5,0.8,0.7c0.6-0.4,1.2-0.8,2-0.8
		C131.8,50.6,132.5,51.3,132.7,52.3z"/>
	<path class="st2" d="M125.4,43.7c-0.5,0.3-0.9-0.7-0.5-0.9c1.7-1.1,3.3-2.1,4.3-3.8c1.7-2.6,1.5-5.6,1.8-8.5c0.3-0.3,0.6-0.3,1-0.1
		c0.3,2-0.1,4.1-0.4,6c1.7,1.7,3.5,3.4,5.2,5.1c0.6,0.6,1.3,1.2,1.8,1.8l-0.3,0.7c-0.8-0.1-1.1-0.6-1.7-1c-1.8-1.8-3.6-3.5-5.4-5.3
		C130.1,40.2,128,42.6,125.4,43.7z"/>
	<path class="st2" d="M125.1,24.5c-0.1-0.3-0.1-0.6,0-0.9c1.2-0.2,2.5-0.1,3.8-0.1c3,0,5.9,0,8.9,0c0.7,0,1.4,0.2,0.9,1
		c-2,0.3-4,0.1-6,0.1c-0.6,1.1-1.2,2.2-1.7,3.4c2.2,0.1,4.3-0.1,6.5,0.1c0.3,1.5,0.1,3.1,0.1,4.6c0,1.9,0.1,3.9-0.1,5.8l-0.7,0.1
		c-0.5-0.2-0.3-1.1-0.4-1.5c0-2.7,0-5.4,0-8c-2.7-0.1-5.5,0.1-8.2-0.1c-0.3-1.3,0.7-0.9,1.5-1.1c0.6-1.1,1.1-2.2,1.7-3.3
		C129.2,24.6,127.1,24.8,125.1,24.5z"/>
	<path class="st2" d="M141.3,51.8c0-0.5-0.2-0.9-0.5-1.3l-0.3,0.9c-0.7-0.4-1.4-0.9-2.2-0.8c-1.4,0.1-2.6,1.1-2.7,2.6
		c-0.1,1.5,0.9,2.8,2.4,2.9c1,0.1,1.8-0.4,2.8-0.8c-0.4,1-0.4,1.8-1.6,2.1c-1.4,0.4-2.2-0.4-3.3-1.1c0,1.4,1.2,1.8,2.4,1.9
		c1.3,0,2.6-0.5,2.9-1.9C141.4,54.8,141.3,53.3,141.3,51.8z M140.2,54.6c-0.9,1.1-2.8,1-3.5-0.2c-0.6-1-0.2-2.3,0.8-2.9
		c0.8-0.4,1.9-0.4,2.5,0.3C140.7,52.6,140.8,53.8,140.2,54.6z"/>
	<path class="st2" d="M148.6,40.7c-0.8,1.7-2.4,2.9-4.2,3l-0.2-0.8c1.1-0.7,2.2-0.9,3-2c1.2-1.6,0.8-3.6,0.9-5.5
		c-1.3,0.3-2.6,0.7-4,0.7l-0.2-0.8c1.2-0.7,2.8-0.8,4.1-1.1c0-2,0-4,0-6c-1.3,0-2.6,0.1-3.9-0.1c-0.2-0.2-0.3-0.5-0.1-0.9
		c1.3-0.2,2.7-0.1,4-0.1c0-1.3-0.1-2.6,0.1-3.9c0.2-0.5,0.5-0.5,1-0.2c0.2,1.4,0.1,2.8,0.1,4.1c1.1,0,2.3-0.1,3.4,0.1
		c0.3,0.4,0.5,0.7,0,1c-1.1,0.2-2.2,0.1-3.3,0.1V34c1.1-0.2,2.3-0.6,3.4-0.6l0.3,0.8c-1.1,0.6-2.5,0.7-3.7,1
		C149.2,37,149.4,39,148.6,40.7z"/>
	<path class="st2" d="M151.3,52.8c0.1,1.9,1.9,3.1,3.7,2.8c0.8-0.1,1.6-0.7,2.4-1.1l0.3,0.4c-1,1.7-3.8,1.9-5.3,0.9
		c-2-1.1-2.4-3.9-1-5.7c1.5-2,4.9-2,6.4,0l-0.3,0.4c-1.1-0.5-1.9-1.2-3.1-1.1C152.5,49.5,151.1,51,151.3,52.8z"/>
	<path class="st2" d="M166.1,53.5c-0.1-1.1,0.2-2.2-0.5-3l-0.2,1c-0.7-0.4-1.4-1-2.3-0.9c-1.5,0.1-2.7,1.4-2.7,2.9
		c0,1.5,1.2,2.8,2.7,2.9c0.9,0.1,1.6-0.5,2.3-0.9l0.3,1C166.3,55.6,166.1,54.5,166.1,53.5z M164.6,55.3c-0.9,0.7-2.2,0.5-2.9-0.3
		c-0.9-1-0.6-2.6,0.6-3.3c0.9-0.5,2-0.3,2.7,0.5C165.7,53,165.6,54.5,164.6,55.3z"/>
	<path class="st2" d="M165.7,42.1c0.9,0.3,2,0.5,2.9,0.9c0,0.3-0.1,0.6-0.3,0.8c-2.6-0.2-5.3-1.5-7.6-2.8c-2.2,1.3-4.8,2.4-7.4,2.7
		c-0.2-0.3-0.3-0.6-0.5-0.9c2.4-0.6,4.7-1.2,6.8-2.5c-1.6-1.2-3.1-2.4-4.4-3.9c-0.5,0.1-1,0.1-1.5,0.2c-0.1-1.3,1.7-2,2.4-0.9
		c1.4,1.5,2.8,2.8,4.5,4c2.1-1.7,3.6-3.5,4.7-5.9c-3.2-0.1-6.5,0.1-9.7,0c-0.7-0.1-0.7-0.2-0.6-0.9c0.6-0.3,1.3-0.2,2-0.2
		c2.7,0,5.4,0,8.2,0c0.6,0.1,1.2-0.1,1.6,0.5c-0.8,2.9-2.8,5.4-5.1,7.3C162.9,41,164.2,41.6,165.7,42.1z"/>
	<path class="st2" d="M169.1,31c0,0.7-0.3,0.9-0.9,0.8c-1.4,0-2.7-0.6-3.4-1.7c-1.1-1.7-1-3.8-1-5.7c-2.1,0-4.3,0-6.4,0
		c-0.1,1.7-0.2,3.2-0.8,4.8c-0.4,1-1.2,2.1-2.3,2.5c-0.7,0.2-1.1,0.3-1.1-0.6c0.9-0.7,1.7-1,2.2-2.1c0.9-1.9,0.6-3.8,1-5.7
		c1.3-0.2,2.7-0.1,4-0.1c1.5,0,2.9-0.1,4.4,0.1c0.4,2.1-0.3,4.4,1.1,6.3C166.6,30.7,168,30.5,169.1,31z"/>
	<path class="st2" d="M172.3,50.6c-0.9-0.1-1.6,0.4-2.3,0.9l-0.2-1c-0.8,0.8-0.5,1.7-0.5,2.7c0.1,1.5-0.1,3.1,0.1,4.7
		c0.2,0.2,0.4,0.4,0.6,0.6c0.1-1,0.1-2,0.1-3c0.7,0.4,1.4,1,2.3,0.9c1.5-0.1,2.7-1.4,2.7-2.9C175,52,173.8,50.6,172.3,50.6z
		 M173.5,55.1c-0.8,0.8-2.1,0.8-2.9,0c-1.1-1-0.9-2.8,0.4-3.6c0.9-0.5,2-0.3,2.7,0.5C174.5,52.9,174.4,54.3,173.5,55.1z"/>
	<path class="st2" d="M174.6,33.4l-0.5-0.5c0.1-0.9,1.2-1.7,1.8-2.3c0.6-0.6,1.2-1.3,1.8-1.8c0.3-0.1,0.6,0.1,0.8,0.5
		C177.5,30.7,176,32.3,174.6,33.4z"/>
	<path class="st2" d="M174.6,24.3c-0.3-0.4-0.3-0.7,0.2-1c1.3,0.5,2.3,1.7,3.3,2.6c0.5,0.4,0.5,1.2-0.3,1.1
		C176.6,26.2,175.6,25.3,174.6,24.3z"/>
	<path class="st2" d="M178.8,49c-0.1,0.4-0.6,1.1-1,0.6c-0.4-0.2-0.4-0.9,0.1-1C178.3,48.4,178.5,48.8,178.8,49z"/>
	<path class="st2" d="M178.4,50.4c0.1,2,0.2,4,0,6c-0.2-0.2-0.4-0.4-0.6-0.7c-0.1-1.4-0.1-3.2,0-4.7
		C177.9,50.9,178.1,50.7,178.4,50.4z"/>
	<path class="st2" d="M184,51.3c-0.4,0-0.8,0-1.1,0.1c0,1.4,0,2.8,0,4.2c0.4,0.2,0.8,0.3,1.1,0.5c-0.7,0.2-1.1,0.6-1.8,0.1
		c-0.3-1.5-0.1-3.1-0.1-4.6c-0.4-0.2-0.8-0.4-1.2-0.7c0.4-0.1,0.8-0.2,1.2-0.2c0-0.7,0-1.3,0-2l0.7,0c0,0.7,0,1.4,0,2.1
		c0.3,0,0.6,0,1,0C183.9,50.9,184,51.1,184,51.3z"/>
	<path class="st2" d="M192,50.5c-0.3,0.3-0.6,0.6-0.8,0.8c-1-0.7-2-1.1-3.2-0.5c-1.9,0.9-2.2,3.5-0.6,4.9c1.2,1,2.5,0.7,3.7-0.1
		c0.2,0.3,0.5,0.5,0.9,0.6C192.1,54.3,192,52.4,192,50.5z M190.4,55.3c-1,0.7-2.4,0.4-3-0.7c-0.7-1.1-0.3-2.6,0.9-3.2
		c0.8-0.4,1.9-0.2,2.5,0.5C191.7,52.9,191.5,54.6,190.4,55.3z"/>
	<path class="st2" d="M178.7,33.4c4.8,0,9.5,0,14.3,0c0.5,0,1.1,0,1.6,0.2c0.2,1.5,0.1,3.1,0.1,4.6c0,0.7,0.1,1.5-0.3,2.1l-0.7-0.1
		c-0.4-1.8-0.1-3.8-0.2-5.7h-15.3c-0.1,1.9,0.2,3.9-0.2,5.7c-1.1,0.4-0.9-0.6-1-1.3c0-1.7-0.1-3.6,0.1-5.3
		C177.5,33.3,178.3,33.4,178.7,33.4z"/>
	<path class="st2" d="M195.8,48.6c0.1,2.6,0.1,5.3,0,7.9c-0.4-0.5-0.7-0.6-0.6-1.3c0-2.2-0.1-4.3,0.1-6.5L195.8,48.6z"/>
	<path class="st2" d="M180.4,32.6l-0.6-0.5c0.5-0.7,1.1-0.9,1.8-1.2c2-1,3.7-2.3,5.4-3.8c0.6-0.4,0.8-1,1.6-0.7
		c0.2,0.8-0.6,1.2-0.9,1.8c2.3,1.3,4.7,2.4,7.3,3c0.6,0.2,1.5,0.3,1.8,0.8c-0.1,0.6-0.5,0.7-0.9,0.6c-3.2-0.7-6.4-1.9-9.1-3.7
		C184.7,30.4,182.6,31.9,180.4,32.6z"/>
	<path class="st2" d="M180.4,28.3l-0.6-0.5c0.2-0.7,0.7-1.4,1.2-2c0.8-1,1.5-2.1,2.3-3.2c0.2-0.3,0.5-0.5,1-0.5
		c0.5,0.9-0.4,1.5-0.8,2.3c4.4,0,8.8-0.1,13.2,0.1c-0.2,1.3-0.3,2.7-0.8,4c-0.3,0.4-0.6,0.3-1-0.1c0-0.9,0.3-1.9,0.5-2.8
		c-4.3,0-8.5,0-12.8,0C181.9,26.5,181.3,27.6,180.4,28.3z"/>
	<path class="st2" d="M197.1,43.8c-4.4-0.8-8.7-2.8-12.3-5.4c-2.6,2.8-6.4,4.7-10.2,5.2c-0.1-0.2-0.2-0.5-0.3-0.7
		c0.6-0.4,1.3-0.6,2-0.8c2.8-0.7,5.5-2.2,7.5-4.4c0.8-0.9,1.3-1.9,2.1-2.8l0.6,0.3c0.2,0.8-0.6,1.6-0.9,2.3
		c3.4,2.5,7.4,4.1,11.4,5.2C197,43.1,197.1,43.5,197.1,43.8z"/>
	<path class="st2" d="M76.7,30.5c-2.4-4.7-6.6-8.4-11.5-10.3c-3.4-1.3-7-1.6-10.6-1.1c-5.7,0.8-11,4-14.3,8.7
		c-2.4,3.4-3.9,7.6-3.9,11.7c-0.4,7,3,13.8,8.6,17.9c7.1,5.3,17.4,5.5,24.7,0.5c4.3-2.9,7.5-7.5,8.7-12.6
		C79.7,40.4,79.1,35,76.7,30.5z M50.8,23.7c4.4-1.9,9.6-1.8,14,0.1c3.8,1.6,6.7,4.5,8.7,8c-1.9,1.9-3.7,3.7-5.6,5.6
		c-2.2-2.1-4.3-4.4-6.5-6.5c-1.5-1.5-3.7-1.9-5.7-1.2c-1.1,0.4-1.9,1.2-2.7,2c-1.9,1.9-3.7,3.8-5.6,5.6c-1.9-1.9-3.7-3.7-5.6-5.6
		C43.9,28.2,46.9,25.2,50.8,23.7z M65,40.2c-1.8,1.8-3.6,3.5-5.3,5.3c-0.5,0.5-1,1.1-1.7,1.4c-0.8,0.3-1.5-0.5-2-0.9
		c-1.9-1.9-3.8-3.9-5.8-5.8c1.8-1.8,3.6-3.6,5.4-5.5c0.5-0.5,1.1-1.1,1.7-1.3c0.7-0.1,1.3,0.5,1.7,1C61.2,36.3,63.1,38.3,65,40.2z
		 M40,37c0.1-0.3,0.1-0.7,0.2-1c1.4,1.4,2.9,2.8,4.3,4.3c-1.4,1.4-2.8,2.9-4.3,4.3C39.7,42,39.6,39.5,40,37z M64.1,57
		c-4.5,1.7-9.7,1.5-14-0.5c-3.5-1.6-6.3-4.4-8.2-7.8c1.9-1.8,3.7-3.7,5.6-5.5c2.3,2.1,4.4,4.5,6.7,6.6c1.6,1.5,4,1.8,6,0.9
		c0.9-0.4,1.6-1.1,2.3-1.8c1.9-1.9,3.8-3.8,5.7-5.7c1.9,1.9,3.7,3.7,5.6,5.6C71.4,52.5,68.2,55.5,64.1,57z M75.2,44.5
		c-1.4-1.4-2.9-2.8-4.3-4.3c1.4-1.4,2.8-2.9,4.3-4.2C75.8,38.8,75.8,41.6,75.2,44.5z"/>
	<path class="st2" d="M108.4,32.2c-2.6-0.5-5.2-1.5-7.7-2.4c-2.4,1-5,1.9-7.6,2.4c-0.7,0.1-0.8,0-0.9-0.7c0.6-0.4,1.4-0.5,2-0.7
		c1.7-0.4,3.3-1,5-1.6c-1.2-0.6-2.5-1-3.5-1.7c0-0.6-0.2-0.7,0.5-0.8c1.5,0.5,3,1.3,4.5,1.9c1.7-0.8,3.2-1.8,4.7-2.9
		c-2.9,0-5.9,0-8.8,0c-1.2,0.8-2.4,1.8-3.8,2.3c-0.5-0.2-0.6-0.2-0.5-0.8c1-0.7,2.1-1.2,3.1-2c1.2-0.9,2.1-2,3.2-2.9
		c0.3,0.2,0.5,0.4,0.7,0.6c-0.5,0.6-0.9,1.1-1.4,1.7c2.3,0,4.5,0,6.8,0c0.9,0,1.8,0,2.7,0.2c0.1,0.4,0,0.8-0.3,1
		c-1.4,1.4-3.2,2.5-4.9,3.5c2.2,0.9,4.5,1.5,6.8,2.2C109.6,31.7,109,32.3,108.4,32.2z"/>
	<path class="st2" d="M196.6,24.5c-0.2,1.3-0.3,2.7-0.8,4c-0.3,0.4-0.6,0.3-1-0.1c0-0.9,0.3-1.9,0.5-2.8c-4.3,0-8.5,0-12.8,0
		c-0.6,0.9-1.3,2-2.1,2.7l-0.6-0.5c0.2-0.7,0.7-1.4,1.2-2c0.8-1,1.5-2.1,2.3-3.2c0.2-0.3,0.5-0.5,1-0.5c0.5,0.9-0.4,1.5-0.8,2.3
		C187.8,24.5,192.2,24.4,196.6,24.5z"/>
	<path class="st2" d="M124.4,31.7c-0.7-0.7-1.2-1.5-1.8-2.2c-1-1.4-2.2-2.5-3.4-3.7c-1.3,2.2-2.7,4.3-4.4,6.2
		c-0.2-0.2-0.4-0.4-0.6-0.7c0.2-0.6,0.7-1.1,1.1-1.7c1.5-1.8,2.7-3.8,3.6-5.9c0.3-0.6,0.3-1.3,1.2-1.2c0.6,0.5-0.1,1.5-0.2,2.2
		c1.8,1.7,3.5,3.5,4.8,5.5C124.9,31,125.3,31.2,124.4,31.7z"/>
	<path class="st2" d="M148.6,40.7c-0.8,1.7-2.4,2.9-4.2,3l-0.2-0.8c1.1-0.7,2.2-0.9,3-2c1.2-1.6,0.8-3.6,0.9-5.5
		c-1.3,0.3-2.6,0.7-4,0.7l-0.2-0.8c1.2-0.7,2.8-0.8,4.1-1.1c0-2,0-4,0-6c-1.3,0-2.6,0.1-3.9-0.1c-0.2-0.2-0.3-0.5-0.1-0.9
		c1.3-0.2,2.7-0.1,4-0.1c0-1.3-0.1-2.6,0.1-3.9c0.2-0.5,0.5-0.5,1-0.2c0.2,1.4,0.1,2.8,0.1,4.1c1.1,0,2.3-0.1,3.4,0.1
		c0.3,0.4,0.5,0.7,0,1c-1.1,0.2-2.2,0.1-3.3,0.1V34c1.1-0.2,2.3-0.6,3.4-0.6l0.3,0.8c-1.1,0.6-2.5,0.7-3.7,1
		C149.2,37,149.4,39,148.6,40.7z"/>
	<path class="st2" d="M169.1,31c0,0.7-0.3,0.9-0.9,0.8c-1.4,0-2.7-0.6-3.4-1.7c-1.1-1.7-1-3.8-1-5.7c-2.1,0-4.3,0-6.4,0
		c-0.1,1.7-0.2,3.2-0.8,4.8c-0.4,1-1.2,2.1-2.3,2.5c-0.7,0.2-1.1,0.3-1.1-0.6c0.9-0.7,1.7-1,2.2-2.1c0.9-1.9,0.6-3.8,1-5.7
		c1.3-0.2,2.7-0.1,4-0.1c1.5,0,2.9-0.1,4.4,0.1c0.4,2.1-0.3,4.4,1.1,6.3C166.6,30.7,168,30.5,169.1,31z"/>
	<path class="st2" d="M177.8,27c-1.1-0.7-2.2-1.7-3.2-2.7c-0.3-0.4-0.3-0.7,0.2-1c1.3,0.5,2.3,1.7,3.3,2.6
		C178.6,26.3,178.6,27.1,177.8,27z"/>
	<path class="st2" d="M132.5,24.6c-0.6,1.1-1.2,2.2-1.7,3.4c2.2,0.1,4.3-0.1,6.5,0.1c0.3,1.5,0.1,3.1,0.1,4.6c0,1.9,0.1,3.9-0.1,5.8
		l-0.7,0.1c-0.5-0.2-0.3-1.1-0.4-1.5c0-2.7,0-5.4,0-8c-2.7-0.1-5.5,0.1-8.2-0.1c-0.3-1.3,0.7-0.9,1.5-1.1c0.6-1.1,1.1-2.2,1.7-3.3
		c-2-0.1-4.1,0.1-6.1-0.1c-0.1-0.3-0.1-0.6,0-0.9c1.2-0.2,2.5-0.1,3.8-0.1c3,0,5.9,0,8.9,0c0.7,0,1.4,0.2,0.9,1
		C136.6,24.8,134.5,24.6,132.5,24.6z"/>
	<path class="st2" d="M91.8,36.5c-0.2,1.5-1.2,2.7-2.6,3.3c-0.7,0.3-0.8,0.1-1.1-0.5c0.9-0.8,2.1-1.2,2.4-2.5c0.4-2.1-0.7-3.9-2-5.4
		c0.8-1.9,1.4-3.9,1.9-5.9c-1.2,0-2.4,0-3.6,0c0,5.6,0,11.2,0,16.9c0,0.6,0,1.1-0.2,1.7c-1.2,0.2-0.8-0.9-0.9-1.7
		c0-5.4,0-10.9,0-16.3c0-0.6,0-1.1,0.2-1.6c1.8-0.1,3.7-0.1,5.4,0c0.4,0.1,0.5,0.3,0.4,0.6c-0.3,2.1-1,4.2-1.8,6.2
		C91.1,32.7,92,34.4,91.8,36.5z"/>
	<path class="st2" d="M196.7,32.1c-0.1,0.6-0.5,0.7-0.9,0.6c-3.2-0.7-6.4-1.9-9.1-3.7c-1.9,1.5-4,2.9-6.2,3.7l-0.6-0.5
		c0.5-0.7,1.1-0.9,1.8-1.2c2-1,3.7-2.3,5.4-3.8c0.6-0.4,0.8-1,1.6-0.7c0.2,0.8-0.6,1.2-0.9,1.8c2.3,1.3,4.7,2.4,7.3,3
		C195.4,31.4,196.4,31.5,196.7,32.1z"/>
	<path class="st2" d="M126.7,38.5c-0.3,0.1-0.6,0.1-0.9,0c-0.2-1.8-0.1-3.6-0.1-5.4c0-1.7-0.1-3.4,0.1-5c0.3-0.1,0.6-0.1,0.8,0
		c0.3,1.2,0.1,2.5,0.2,3.7C126.8,34,127,36.3,126.7,38.5z"/>
	<path class="st2" d="M121.2,32.7c-0.2,0.2-0.5,0.4-0.8,0.6c-0.8-1.4-1.6-2.8-2.2-4.3c-0.1-0.7,0.8-0.9,1-0.3
		C120,30,120.8,31.3,121.2,32.7z"/>
	<path class="st2" d="M178.5,29.4c-1,1.4-2.6,3-3.9,4l-0.5-0.5c0.1-0.9,1.2-1.7,1.8-2.3c0.6-0.6,1.2-1.3,1.8-1.8
		C178,28.7,178.3,28.9,178.5,29.4z"/>
	<path class="st2" d="M138.6,43.3l-0.3,0.7c-0.8-0.1-1.1-0.6-1.7-1c-1.8-1.8-3.6-3.5-5.4-5.3c-1.1,2.6-3.2,5-5.8,6
		c-0.5,0.3-0.9-0.7-0.5-0.9c1.7-1.1,3.3-2.1,4.3-3.8c1.7-2.6,1.5-5.6,1.8-8.5c0.3-0.3,0.6-0.3,1-0.1c0.3,2-0.1,4.1-0.4,6
		c1.7,1.7,3.5,3.4,5.2,5.1C137.4,42,138,42.6,138.6,43.3z"/>
	<path class="st2" d="M109.2,43c-0.5,0.5-1.2,0.4-1.8,0.4c-5.1,0-10.3,0-15.5,0c0-0.4,0-0.7,0-1.1c2.7,0,5.4,0,8,0v-2.5
		c-1.8-0.1-3.8,0.3-5.5-0.2c0-0.3,0-0.6,0.2-0.8c1.8-0.2,3.6,0,5.3-0.1c0-0.7,0-1.3,0-2c-1.8,0-3.5,0-5.3,0c-0.6,0.6-1.2,1.2-2,1.6
		c-0.3-0.2-0.5-0.4-0.6-0.7c1.2-1.1,2-2.2,3-3.6c1.1,0.1,0.4,0.8,0.5,1.6c1.5,0,2.9,0,4.4,0v-2.3c-1.5,0-3.1,0.1-4.6-0.1
		c-0.2-0.5-0.1-0.8,0.1-1c1.7-0.2,3.4-0.1,5-0.1c1.8,0,3.6-0.1,5.4,0.1c0,0.3,0,0.6,0.1,0.9c-1.6,0.3-3.3,0.1-4.9,0.2v2.3
		c2.2,0,4.4-0.1,6.6,0.1c0.4,0.4,0.4,0.8,0,1c-2.2,0.3-4.4,0-6.6,0.1v2c1.6,0,3.3,0,4.9,0c0.5,0,1.2-0.1,1.6,0.3
		c0,0.7,0,0.7-0.6,0.8c-1.9,0.1-3.9,0-5.9,0v2.5c2.2,0,4.4,0,6.6,0C108.5,42.3,109.1,42,109.2,43z"/>
	<path class="st2" d="M168.5,43c0,0.3-0.1,0.6-0.3,0.8c-2.6-0.2-5.3-1.5-7.6-2.8c-2.2,1.3-4.8,2.4-7.4,2.7c-0.2-0.3-0.3-0.6-0.5-0.9
		c2.4-0.6,4.7-1.2,6.8-2.5c-1.6-1.2-3.1-2.4-4.4-3.9c-0.5,0.1-1,0.1-1.5,0.2c-0.1-1.3,1.7-2,2.4-0.9c1.4,1.5,2.8,2.8,4.5,4
		c2.1-1.7,3.6-3.5,4.7-5.9c-3.2-0.1-6.5,0.1-9.7,0c-0.7-0.1-0.7-0.2-0.6-0.9c0.6-0.3,1.3-0.2,2-0.2c2.7,0,5.4,0,8.2,0
		c0.6,0.1,1.2-0.1,1.6,0.5c-0.8,2.9-2.8,5.4-5.1,7.3c1.3,0.7,2.6,1.3,4,1.8C166.6,42.4,167.6,42.5,168.5,43z"/>
	<path class="st2" d="M194.7,38.2c0,0.7,0.1,1.5-0.3,2.1l-0.7-0.1c-0.4-1.8-0.1-3.8-0.2-5.7h-15.3c-0.1,1.9,0.2,3.9-0.2,5.7
		c-1.1,0.4-0.9-0.6-1-1.3c0-1.7-0.1-3.6,0.1-5.3c0.3-0.3,1.1-0.2,1.5-0.2c4.8,0,9.5,0,14.3,0c0.5,0,1.1,0,1.6,0.2
		C194.8,35.1,194.6,36.7,194.7,38.2z"/>
	<path class="st2" d="M124.3,34.7c-1.1,2.2-2.7,4.3-4.3,6.2c0.9,0.6,1.9,1.1,2.7,1.8c0.1,0.4,0,0.7-0.3,0.9c-1.2-0.4-2.3-1.3-3.4-2
		c-1.2-0.8-2.6-1.4-3.7-2.4c0-0.5,0.2-0.7,0.6-0.7c1.1,0.5,2.1,1.2,3.2,1.8c1.4-1.6,2.7-3.4,3.8-5.2c-2.4-0.1-4.8,0.1-7.1-0.1
		c-0.6-0.6-0.1-0.9,0.5-1c2.4-0.1,4.8,0,7.2,0C123.9,34,124.6,34,124.3,34.7z"/>
	<path class="st2" d="M197.1,43.8c-4.4-0.8-8.7-2.8-12.3-5.4c-2.6,2.8-6.4,4.7-10.2,5.2c-0.1-0.2-0.2-0.5-0.3-0.7
		c0.6-0.4,1.3-0.6,2-0.8c2.8-0.7,5.5-2.2,7.5-4.4c0.8-0.9,1.3-1.9,2.1-2.8l0.6,0.3c0.2,0.8-0.6,1.6-0.9,2.3
		c3.4,2.5,7.4,4.1,11.4,5.2C197,43.1,197.1,43.5,197.1,43.8z"/>
	<path class="st2" d="M124.4,49.7c-0.6-0.1-0.6-1,0.1-1.1C125.5,48.5,125.3,50.1,124.4,49.7z"/>
	<path class="st2" d="M178.8,49c-0.1,0.4-0.6,1.1-1,0.6c-0.4-0.2-0.4-0.9,0.1-1C178.3,48.4,178.5,48.8,178.8,49z"/>
	<path class="st2" d="M90.9,55.6c-0.8,1-2.7,0.5-3.9,0.6c0-2.1,0-4.3,0-6.4c0-0.7,0.1-0.7,0.7-1.1c0.2,2.3,0.1,4.6,0.1,6.9
		C88.9,55.4,89.9,55.5,90.9,55.6z"/>
	<path class="st2" d="M121.9,55.5l-0.5,0.6c-1,0.2-2.2,0.2-3.3,0c-0.1-2.4-0.2-5,0.1-7.4l0.6,0.3c0.2,2.1,0,4.3,0.1,6.5
		C119.9,55.4,120.9,55.5,121.9,55.5z"/>
	<path class="st2" d="M157.4,54.5l0.3,0.4c-1,1.7-3.8,1.9-5.3,0.9c-2-1.1-2.4-3.9-1-5.7c1.5-2,4.9-2,6.4,0l-0.3,0.4
		c-1.1-0.5-1.9-1.2-3.1-1.1c-1.7,0.1-3.1,1.7-3,3.4c0.1,1.9,1.9,3.1,3.7,2.8C155.8,55.5,156.6,54.9,157.4,54.5z"/>
	<path class="st2" d="M182.9,55.5c0.4,0.2,0.8,0.3,1.1,0.5c-0.7,0.2-1.1,0.6-1.8,0.1c-0.3-1.5-0.1-3.1-0.1-4.6
		c-0.4-0.2-0.8-0.4-1.2-0.7c0.4-0.1,0.8-0.2,1.2-0.2c0-0.7,0-1.3,0-2l0.7,0c0,0.7,0,1.4,0,2.1c0.3,0,0.6,0,1,0
		c0.1,0.2,0.1,0.4,0.2,0.6c-0.4,0-0.8,0-1.1,0.1C182.9,52.7,182.9,54.1,182.9,55.5z"/>
	<path class="st2" d="M195.7,56.5c-0.4-0.5-0.7-0.6-0.6-1.3c0-2.2-0.1-4.3,0.1-6.5l0.6-0.1C195.9,51.2,195.9,53.9,195.7,56.5z"/>
	<path class="st2" d="M98.1,51.6c-0.7-0.8-1.7-1.2-2.7-1c-2,0.3-2.9,2.6-1.9,4.3c0.8,1.6,3,1.9,4.4,0.8C98.9,54.7,99,52.8,98.1,51.6
		z M97.4,55c-0.8,0.9-2.3,0.9-3,0c-1-1-0.6-2.8,0.6-3.5c0.8-0.4,1.8-0.2,2.4,0.4C98.2,52.8,98.2,54.2,97.4,55z"/>
	<path class="st2" d="M105.7,56.4c-0.1-1.4,0.1-3-0.3-4.4c-0.6-1.3-2.4-0.8-2.9,0.3c-0.4,1.2-0.2,2.5-0.2,3.7l-0.7,0
		c0-1.9-0.1-3.8,0.1-5.6c0.3,0.3,0.5,0.6,0.8,0.9c0.9-0.6,1.7-1.1,2.8-0.6c1.2,0.6,1,2.2,1.1,3.4C106.3,55.1,106.7,55.9,105.7,56.4z
		"/>
	<path class="st2" d="M114.9,50.5c-0.3,0.3-0.6,0.6-0.9,0.8c-0.7-0.4-1.3-0.9-2.2-0.8c-1.5,0.1-2.7,1.4-2.6,2.9
		c0,1.4,1.2,2.6,2.6,2.6c0.9,0.1,1.7-0.5,2.5-0.9c-0.3,0.9-0.3,1.8-1.3,2.1c-1.5,0.5-2.3-0.3-3.5-1c0.2,2.6,5.1,2.4,5.3-0.1
		C115.1,54.3,114.9,52.4,114.9,50.5z M113.6,54.9c-1,0.8-2.7,0.7-3.3-0.5c-0.6-1.1-0.1-2.4,1-2.9c0.8-0.4,1.9-0.2,2.5,0.5
		C114.4,52.8,114.4,54.1,113.6,54.9z"/>
	<path class="st2" d="M125,54.5c-0.1,0.7,0.3,1.5-0.6,1.8c-0.2-1.8-0.2-3.7-0.1-5.5l0.5-0.2C125.1,51.8,124.9,53.2,125,54.5z"/>
	<path class="st2" d="M132.7,56l-0.5,0.4c-0.2-1.3-0.1-2.6-0.2-3.9c-0.1-0.6-0.4-1.1-1.1-1.2c-1.1-0.1-2.1,0.7-2.1,1.9
		c-0.2,1.2,0.3,2.5-0.7,3.4c-0.2-1.9-0.2-4,0-5.9c0.3,0.2,0.6,0.5,0.8,0.7c0.6-0.4,1.2-0.8,2-0.8c1,0.1,1.7,0.7,1.8,1.7
		C132.8,53.5,132.8,54.8,132.7,56z"/>
	<path class="st2" d="M141.3,51.8c0-0.5-0.2-0.9-0.5-1.3l-0.3,0.9c-0.7-0.4-1.4-0.9-2.2-0.8c-1.4,0.1-2.6,1.1-2.7,2.6
		c-0.1,1.5,0.9,2.8,2.4,2.9c1,0.1,1.8-0.4,2.8-0.8c-0.4,1-0.4,1.8-1.6,2.1c-1.4,0.4-2.2-0.4-3.3-1.1c0,1.4,1.2,1.8,2.4,1.9
		c1.3,0,2.6-0.5,2.9-1.9C141.4,54.8,141.3,53.3,141.3,51.8z M140.2,54.6c-0.9,1.1-2.8,1-3.5-0.2c-0.6-1-0.2-2.3,0.8-2.9
		c0.8-0.4,1.9-0.4,2.5,0.3C140.7,52.6,140.8,53.8,140.2,54.6z"/>
	<path class="st2" d="M166.1,53.5c-0.1-1.1,0.2-2.2-0.5-3l-0.2,1c-0.7-0.4-1.4-1-2.3-0.9c-1.5,0.1-2.7,1.4-2.7,2.9
		c0,1.5,1.2,2.8,2.7,2.9c0.9,0.1,1.6-0.5,2.3-0.9l0.3,1C166.3,55.6,166.1,54.5,166.1,53.5z M164.6,55.3c-0.9,0.7-2.2,0.5-2.9-0.3
		c-0.9-1-0.6-2.6,0.6-3.3c0.9-0.5,2-0.3,2.7,0.5C165.7,53,165.6,54.5,164.6,55.3z"/>
	<path class="st2" d="M172.3,50.6c-0.9-0.1-1.6,0.4-2.3,0.9l-0.2-1c-0.8,0.8-0.5,1.7-0.5,2.7c0.1,1.5-0.1,3.1,0.1,4.7
		c0.2,0.2,0.4,0.4,0.6,0.6c0.1-1,0.1-2,0.1-3c0.7,0.4,1.4,1,2.3,0.9c1.5-0.1,2.7-1.4,2.7-2.9C175,52,173.8,50.6,172.3,50.6z
		 M173.5,55.1c-0.8,0.8-2.1,0.8-2.9,0c-1.1-1-0.9-2.8,0.4-3.6c0.9-0.5,2-0.3,2.7,0.5C174.5,52.9,174.4,54.3,173.5,55.1z"/>
	<path class="st2" d="M178.4,56.5c-0.2-0.2-0.4-0.4-0.6-0.7c-0.1-1.4-0.1-3.2,0-4.7c0.1-0.2,0.3-0.5,0.6-0.7
		C178.6,52.4,178.6,54.5,178.4,56.5z"/>
	<path class="st2" d="M192,50.5c-0.3,0.3-0.6,0.6-0.8,0.8c-1-0.7-2-1.1-3.2-0.5c-1.9,0.9-2.2,3.5-0.6,4.9c1.2,1,2.5,0.7,3.7-0.1
		c0.2,0.3,0.5,0.5,0.9,0.6C192.1,54.3,192,52.4,192,50.5z M190.4,55.3c-1,0.7-2.4,0.4-3-0.7c-0.7-1.1-0.3-2.6,0.9-3.2
		c0.8-0.4,1.9-0.2,2.5,0.5C191.7,52.9,191.5,54.6,190.4,55.3z"/>
</g>
</svg>
