<?xml version="1.0" encoding="utf-8"?>
<!-- Generator: Adobe Illustrator 26.0.1, SVG Export Plug-In . SVG Version: 6.00 Build 0)  -->
<svg version="1.1" id="Layer_1" xmlns="http://www.w3.org/2000/svg" xmlns:xlink="http://www.w3.org/1999/xlink" x="0px" y="0px"
	 viewBox="0 0 233.5 80.5" style="enable-background:new 0 0 233.5 80.5;" xml:space="preserve">
<style type="text/css">
	.st0{fill:none;stroke:url(#SVGID_1_);stroke-width:0.5;stroke-miterlimit:10;}
	.st1{fill:none;stroke:#00E9BA;stroke-width:0.5;stroke-miterlimit:10;}
	.st2{fill:#FFFFFF;}
	.st3{clip-path:url(#SVGID_00000178921499380760629810000002147176525690251156_);fill:#FFFFFF;}
	.st4{fill-rule:evenodd;clip-rule:evenodd;fill:#FFFFFF;}
</style>
<g>
	<path class="st2" d="M35.8,25.5c0.2,4.6,0,9.2,0.1,13.8c1.2,0,2.4,0,3.7,0.1c0.4,1.6,0.2,3.2,0.3,4.9c0,2.5,0,5,0,7.6
		c-0.5,0-1.1-0.1-1.6-0.1c-0.5-0.7-0.5-1.4-0.5-2.3c0-2.8,0-5.5,0-8.3c-1.2,0-2.4,0-3.7-0.1c-0.1-4.6,0-9.2,0-13.8
		c-2.7-0.1-5.4,0-8.1-0.1c0-0.6,0.1-1.2,0.1-1.7C29.2,25.3,32.6,25.3,35.8,25.5z"/>
	<path class="st2" d="M60.9,25.3c0.2,0.7,0.5,1.3,0.5,2.1c0,3.5-0.1,6.9,0.1,10.4c4,0,8-0.1,12,0.1c0.1,4.8,0.1,9.6,0,14.4
		c-0.6,0-1.2,0-1.8-0.1c-0.1-4.2,0-8.3,0-12.5c-4-0.1-8,0.1-12-0.1c-0.1-4.5-0.1-9,0-13.5C60,25.8,60.5,25.6,60.9,25.3z"/>
	<path class="st2" d="M88.7,25.4c0.1,4,0,8,0.1,12.1c3.8,0,7.5,0,11.3,0.1c0,0.5,0.1,0.9,0.1,1.4c-0.6,0.3-1.3,0.4-2,0.4
		c-3.6,0.2-7.5,0.5-11-0.2c-0.4-0.8-0.4-1.7-0.4-2.6c0-2.8,0-5.6,0-8.5c0-0.9-0.1-1.8,0.4-2.6C87.5,25.3,88.2,25.5,88.7,25.4z"/>
	<path class="st2" d="M90.5,25.5c4.3-0.2,8.6,0,12.9-0.1c0.1,0.3,0.3,0.6,0.4,0.9c-0.1,0.3-0.3,0.6-0.4,0.9c-4.3,0-8.6,0-12.9,0
		C90.4,26.6,90.3,26.1,90.5,25.5z"/>
	<path class="st2" d="M38.5,25.4c2,0,4-0.1,5.9,0c0.8,0.4,0.5,1.1,0.7,1.8c-2.2,0.1-4.4,0-6.6,0.1c-0.2-0.3-0.4-0.6-0.6-1
		C38,26,38.3,25.7,38.5,25.4z"/>
	<path class="st2" d="M46.6,25.2c0.4,0.4,0.7,0.8,1.1,1.2c-0.2,0.3-0.4,0.7-0.7,1c-0.7-0.1-1.2-0.5-1.8-0.9
		C45.7,26,46.2,25.6,46.6,25.2z"/>
	<path class="st2" d="M57.7,25.7c0.1,4.5,0.1,9.1,0,13.7c-0.6,0-1.2,0-1.8,0c-0.1-3.5,0-7-0.1-10.5c0-1-0.1-2,0.2-3
		C56.5,25.7,57.2,25.7,57.7,25.7z"/>
	<path class="st2" d="M73.4,25.6c0.1,3.5,0,6.9,0.1,10.4c-0.5,0.1-0.9,0.3-1.4,0.4c-1.1-3.1-0.5-6.9-0.6-10.2
		C72.1,26,72.8,25.8,73.4,25.6z"/>
	<path class="st2" d="M77.1,28.7c0.2,1.2,0.4,2.3,0.3,3.5c0,5.6,0,11.2,0,16.8c0,2,0.2,3.9-0.5,5.8c-0.5-0.1-1-0.3-1.5-0.4
		c0-8.5,0-17,0-25.5C75.9,28.7,76.5,28.7,77.1,28.7z"/>
	<path class="st2" d="M26,29.4c2.1-0.5,4.5-0.3,6.7-0.1c-0.1,0.6-0.1,1.2-0.2,1.8c-2.2,0.1-4.4,0.1-6.6-0.3
		C25.9,30.4,25.9,29.9,26,29.4z"/>
	<path class="st2" d="M38,29.4c1-0.3,2-0.3,3.1-0.3c2.2,0,4.3-0.1,6.4,0.2c0,0.6-0.1,1.2-0.1,1.8c-2.5,0-5.1,0-7.6,0
		c0,2.1,0,4.1,0,6.2c-0.6,0-1.1,0.1-1.7,0.1C37.8,35,37.8,32,38,29.4z"/>
	<path class="st2" d="M90.4,29.4c1-0.5,2.3-0.3,3.4-0.4c3,0.1,6.1-0.1,9.1,0c0.8-0.1,0.8,1.2,1,1.7c-3.9,0.2-7.8,0-11.7,0.1
		c0,1.8,0,3.5-0.1,5.3c-0.6,0-1.1-0.1-1.7-0.1C90.4,33.8,90.3,31.6,90.4,29.4z"/>
	<path class="st2" d="M94.5,41.1c1.6,0,3.3-0.1,5,0.1c0.4,0.4,0.7,0.8,1,1.3c-0.7,0.3-1.4,0.6-2.3,0.6c-3.1,0-6.3,0-9.4,0
		c0,3.4-0.1,6.8,0,10.1c4.8,0,9.7,0,14.5,0c0.2,0.3,0.4,0.6,0.5,1c-0.2,0.3-0.3,0.6-0.5,0.9c-4.5,0.1-9.1,0-13.6,0
		c-0.8,0-1.5,0-2.3-0.1c-0.8-0.5-0.7-2.2-0.7-3c0.1-3.6-0.3-7.3,0.3-10.8C89.5,41,92,41.1,94.5,41.1z"/>
	<path class="st2" d="M69.9,41.5c0.1,0.5,0.2,1,0.3,1.4c-0.9,0.2-1.9,0.4-2.8,0.4c-3.2,0-6.4,0-9.7,0c-0.1,3.5,0,6.9-0.1,10.4
		c0,0.6-0.2,0.7-0.6,1c-0.4-0.1-0.8-0.2-1.3-0.4c0-3,0-6,0-9c0-1.3,0-2.6,0.2-3.9C60.7,41.4,65.3,41.4,69.9,41.5z"/>
	<path class="st2" d="M36,43.3c0,3.8,0,7.5,0,11.3c-0.5,0.2-1.1,0.5-1.6,0.7c-0.7-2.3-0.4-4.6-0.4-7c0-1.7-0.1-3.3,0.3-5
		C34.9,43.3,35.5,43.3,36,43.3z"/>
	<path class="st2" d="M90.6,44.4c0.5,0,1.1,0,1.6,0.1c0,1.8,0,3.5,0,5.3c2.7,0,5.5-0.1,8.2,0.1c1,0,0.8,0.8,1.1,1.6
		c-3.6,0.3-7.3,0.2-10.9,0.1C90.2,49.1,90.3,46.7,90.6,44.4z"/>
	<path class="st2" d="M59.6,44.8c0.5,0,1-0.1,1.6-0.1c0.1,3.2,0.2,6.4,0.2,9.6c-0.5,0.2-1,0.4-1.5,0.6c-0.2-0.9-0.3-1.7-0.3-2.7
		C59.6,49.8,59.6,47.3,59.6,44.8z"/>
	<path class="st2" d="M101.8,49.7c0.9,0,1.6,0.2,2.1,0.7c-0.3,0.6-0.7,1.1-1.4,1.5C102.1,51.2,101.9,50.5,101.8,49.7z"/>
	<path class="st2" d="M72.4,52.3c0.4,0.2,0.8,0.5,1.2,0.7c-0.1,0.5-0.1,1.1-0.2,1.6c-0.4,0-0.8,0-1.2,0c-0.2-0.3-0.4-0.6-0.6-0.9
		C71.9,53.3,72.1,52.8,72.4,52.3z"/>
	<path class="st2" d="M131.8,25.7c0.1,1.3,0,2.5,0,3.8c0,6.6,0,13.2,0,19.8c3.2,0,6.4,0,9.6,0c0.6,0,1.2-0.1,1.7,0.1
		c0.6,0.4,0.2,1,0.1,1.5c-0.4-0.1-0.8-0.1-1.3-0.1c-3.6,0-7.1,0-10.7,0c-0.5,0-1-0.3-1-0.8c0-7.7,0-15.4,0-23.2c0-0.3,0-0.6,0-1
		C130.9,25.5,131.3,25.5,131.8,25.7z"/>
	<path class="st2" d="M194.5,25.5c2.9-0.1,5.8,1.2,7.9,3.1c0.8,0.6,1.4,1.2,2,2c1.8,2.3,3,5.2,3.1,8.2c0.1,0.8,0.2,1.5,0,2.3
		c-0.1,1.3-0.3,2.6-0.8,3.9c-0.9,2.7-2.6,5.1-4.8,6.9c-1.6,1.2-3.6,2.1-5.6,2.4c-1.2,0.3-2.4,0.3-3.6,0.1c-1.1-0.2-2.2-0.4-3.2-0.9
		c-2-0.9-4-2.3-5.3-4c-1.6-2-2.7-4.5-3.1-7c-0.4-2.2-0.2-4.5,0.4-6.6c0.7-2.3,1.9-4.6,3.6-6.3c1-1.1,2.1-1.9,3.4-2.5
		c0.4-0.3,0.8,0.1,1.2,0.3c-0.1,0.3-0.2,0.7-0.4,0.9c-0.6,0.5-1.3,0.8-1.9,1.3c-2.4,1.8-4,4.6-4.6,7.5c-0.3,1.3-0.2,2.7-0.2,4
		c0,1.3,0.3,2.4,0.7,3.6c1.2,3.7,4.2,6.8,8,7.9c1.5,0.5,3,0.4,4.5,0.4c2-0.2,3.8-1,5.3-2.2c1.6-1.3,2.9-2.9,3.8-4.7
		c1.5-3,1.7-6.4,0.9-9.6c-0.8-3.1-2.7-5.8-5.4-7.6c-1.6-1-3.4-1.7-5.3-1.8c-0.1,1.2,0.2,2.6-0.3,3.6c-0.3,0-0.7,0-1,0
		c-1.3,0-2.7,0.6-3.8,1.3c-2,1.4-3.2,3.5-3.7,5.8c-0.2,1.1-0.2,2.2-0.2,3.3c0.1,1.4,0.6,2.7,1.3,4c1.2,2,3.2,3.7,5.6,4.1
		c1,0.1,1.9,0.1,2.9,0c1.5-0.3,3-1.1,4-2.2c1.6-1.5,2.5-3.7,2.8-5.8c0-1,0.1-2.1-0.1-3.2c-0.4-2.4-1.8-4.6-3.7-5.9
		c-0.6-0.4-1.2-0.7-1.8-1c0-0.5,0.2-1.1,0.8-1.2c3,1.3,5.3,4.1,6,7.3c0.9,3.5,0.1,7.3-2.2,10.1c-1.3,1.6-3,2.7-5,3.2
		c-0.9,0.3-1.7,0.2-2.6,0.2c-2.7,0.1-5.3-1.4-7-3.5c-3.4-4-3.4-10.3-0.2-14.4c0.9-1,1.9-1.9,3-2.6c1.2-0.7,2.4-0.9,3.7-1.1
		c0-1.1,0-2.3,0-3.4C193.9,25.6,194.2,25.5,194.5,25.5z"/>
	<path class="st2" d="M161.5,25.9c0.4-0.1,0.8-0.1,1.2,0c0.3,0.3,0.5,0.8,0.7,1.3c1.2,3.7,2.4,7.4,3.6,11.2c0.4,1.3,1,2.5,1,3.8
		c-0.4,0-0.8,0-1.2,0c-0.4-0.5-0.5-1.2-0.7-1.8c-0.4-1.4-0.9-2.8-1.4-4.2c-0.6-1.7-1.1-3.5-1.7-5.2c-0.3-1-0.6-1.9-1-2.8
		c-0.6,1.5-1.1,2.9-1.7,4.4c-2.4,6.6-4.9,13.2-7.4,19.8c-0.2,0.6-0.4,1.3-0.8,1.9c-0.3,0.5-1.3,0.2-1.2-0.4c0-0.8,0.5-1.6,0.7-2.3
		c3.1-8.2,6.1-16.4,9.1-24.5C161,26.6,161.2,26.2,161.5,25.9z"/>
	<path class="st2" d="M190.3,26.1c0.4,0,0.9,0,1.3,0c0,0.4,0,0.8,0,1.2c-0.2,0.1-0.5,0.2-0.7,0.3c-0.2-0.2-0.4-0.4-0.6-0.6
		C190.2,26.7,190.3,26.4,190.3,26.1z"/>
	<path class="st2" d="M166.8,28.2c0.7,1.6,1.1,3.3,1.7,4.9c0.6,1.9,1.2,3.7,1.8,5.6c0.4,1.2,0.9,2.1,0.8,3.4c-0.4,0-0.7,0-1.1,0
		c-0.3-0.5-0.5-0.9-0.6-1.4c-1.2-3.6-2.4-7.3-3.6-10.9c-0.2-0.5-0.2-1-0.1-1.5C166,28.2,166.4,28.2,166.8,28.2z"/>
	<path class="st2" d="M135.1,29.2c0.3,0.1,0.5,0.5,0.5,0.8c0,5.4,0,10.8,0,16.1c0,0.4,0,0.8-0.2,1.1c-0.4,0.1-0.7,0.1-1.1,0.1
		c-0.3-0.8-0.2-1.6-0.2-2.5c0-4.3,0-8.7,0-13c0-0.8,0-1.6,0-2.4C134.5,29.3,134.8,29.2,135.1,29.2z"/>
	<path class="st2" d="M162.7,35c-1.4,4.2-2.9,8.5-4.3,12.7c-0.5,1.3-0.8,2.6-1.4,3.9c-0.1,0.3-0.2,0.6-0.5,0.7c-0.3,0-0.7-0.1-1-0.2
		c0-0.5,0.1-1,0.3-1.5c0.6-1.8,1.2-3.6,1.8-5.4c0.7-2.2,1.5-4.4,2.3-6.7c0.5-1.4,0.9-2.8,1.5-4.1C161.7,33.6,163,34.1,162.7,35z"/>
	<path class="st2" d="M161.4,43.7c3.5,0.1,7,0,10.6,0c0.5,1.1,0.9,2.3,1.3,3.5c0.4,1.2,0.9,2.4,1.3,3.6c0.3,1,0.8,1.9,1,2.9
		c0.1,0.5-0.5,0.9-0.9,0.8c-0.3-0.1-0.5-0.4-0.6-0.7c-1.1-2.8-2.1-5.7-3.1-8.5c-2.8,0-5.7,0-8.5,0c-0.5,0-1.1-0.1-1.3-0.5
		C161.1,44.4,161.2,44,161.4,43.7L161.4,43.7L161.4,43.7z"/>
	<path class="st2" d="M161.6,47.3c2.2,0,4.5,0,6.7,0c0.5,0,1.1,0,1.6,0.1c0.5,1,0.8,2.2,1.1,3.3c0.2,0.5,0.2,0.9,0.3,1.4
		c-0.4,0-0.9,0.2-1.2,0c-0.2-0.3-0.4-0.7-0.5-1.1c-0.2-0.7-0.5-1.4-0.7-2.1c-1.2-0.2-2.3-0.1-3.5-0.1c-1.8,0-3.6,0.1-5.3-0.1
		c0-0.4,0-0.8,0.1-1.3C160.6,47.4,161.1,47.3,161.6,47.3z"/>
	<path class="st2" d="M145.6,49.2c0.1,0.3,0.4,0.7,0.2,1c-0.2,0.2-0.4,0.5-0.8,0.5c-0.7,0.1-1.1-1-0.5-1.4
		C144.8,49.2,145.3,49.3,145.6,49.2z"/>
	<path class="st2" d="M134.5,52.9c0.5-0.1,1,0,1.5-0.1c2.5,0,5,0,7.4,0c0.6,0,1.3,0,1.9,0c0.5,0.2,0.4,0.8,0.1,1.1
		c-0.3,0.3-0.7,0.2-1.1,0.3c-3,0-6,0-9.1,0c-0.3,0-1-0.1-1.1-0.5C134.1,53.5,134.3,53.2,134.5,52.9z"/>
	<path class="st2" d="M155.9,53.2c0.6,0.3,0.4,1.4-0.3,1.4c-0.8,0-0.8-0.7-0.8-1.3C155.1,53.2,155.6,53,155.9,53.2z"/>
</g>
</svg>
