<?xml version="1.0" encoding="utf-8"?>
<!-- Generator: Adobe Illustrator 26.0.1, SVG Export Plug-In . SVG Version: 6.00 Build 0)  -->
<svg version="1.1" id="Layer_1" xmlns="http://www.w3.org/2000/svg" xmlns:xlink="http://www.w3.org/1999/xlink" x="0px" y="0px"
	 viewBox="0 0 233.5 80.5" style="enable-background:new 0 0 233.5 80.5;" xml:space="preserve">
<style type="text/css">
	.st0{fill:none;stroke:url(#SVGID_1_);stroke-width:0.5;stroke-miterlimit:10;}
	.st1{fill:none;stroke:#00E9BA;stroke-width:0.5;stroke-miterlimit:10;}
	.st2{fill:#FFFFFF;}
	.st3{clip-path:url(#SVGID_00000129904810369987518570000012062341216406430348_);fill:#FFFFFF;}
	.st4{fill-rule:evenodd;clip-rule:evenodd;fill:#FFFFFF;}
</style>
<path class="st2" d="M120.6,61.8c-7.9,0-8.4-4.6-6.9-9.9h6.4c-0.6,2.9-1,5.4,2.5,5.4c2.2,0,3.5-1.4,3.9-3.5
	c1.2-5.5-11.6-5.8-9.7-14.9c1-4.8,4.1-8.6,11.9-8.6c6.2,0,8.7,2.8,6.9,9.2h-6.2c0.5-2.3,0.6-4.6-2-4.6c-2.1,0-3.5,1.1-4,3.2
	c-1.2,5.8,11.7,5.3,9.7,14.8C131.4,60.9,125.4,61.8,120.6,61.8z M157.8,61.3l6.5-30.5h16.6l-1,4.7h-10.3L168,43h9.4l-1,4.7H167
	l-1.9,8.9h10.6l-1,4.7H157.8z M151.6,43l2.6-12.2h6.4l-6.5,30.5h-6.4l2.9-13.6h-7.3l-2.9,13.6H134l6.5-30.5h6.4L144.3,43H151.6z
	 M104.1,39.5L93.4,61.3H87l14.9-30.5h8.4l1.8,30.5h-6.7L104.1,39.5z M194,30.8c8.4,0,8.7,5.6,6.7,15.1c-1,4.7-2.6,15.4-13.4,15.4
	h-10.4c2.2-10.2,4.3-20.3,6.5-30.5H194z M194.3,46.1c1.2-5.6,2.2-10.5-2.2-10.5h-3.3c-1.5,7-3,14.1-4.5,21.1h3.1
	C191.3,56.6,192.6,53.7,194.3,46.1z M85.5,61.3h-6.4L82,47.7h-7.3l-2.9,13.6h-6.4l6.5-30.5h6.4L75.7,43H83l2.6-12.2h6.4L85.5,61.3z
	 M52.8,43l1.6-7.5h-7.3L45.5,43H52.8z M67.1,35.5h-6.4L59.1,43h6.4l-1,4.7h-6.4l-2.9,13.6h-6.4l2.9-13.6h-7.3l-2.9,13.6h-6.4
	l2.9-13.6h-6.4l1-4.7h6.4l1.6-7.5h-6.4l1-4.7h6.4l2.6-12.2h6.4l-2.6,12.2h7.3l2.6-12.2h6.4l-2.6,12.2h6.4L67.1,35.5z"/>
</svg>
