<?xml version="1.0" encoding="UTF-8"?><svg id="a" xmlns="http://www.w3.org/2000/svg" viewBox="0 0 233.5 80.47"><defs><style>.b{fill:#fff;}</style></defs><path class="b" d="M40.25,55.48c-2.89-4.14-4.48-9.22-4.6-14.27-.2-6.4,1.96-12.86,6.06-17.79,.59-.85,1.85-.73,2.22,.24,.31,.7-.21,1.25-.6,1.78-3.22,4.06-5.03,9.13-5.21,14.3-.12,4.81,1.18,9.64,3.79,13.69,.24,.43,.7,.97,.61,1.48-.05,1.09-1.71,1.52-2.27,.57Z"/><path class="b" d="M66.72,43.39c4.8,5.39,9.58,10.8,14.37,16.19-2.91,3.11-6.58,5.48-10.63,6.83-9.99,3.38-22.01-.06-28.29-8.65,3.86-3.39,7.73-6.78,11.62-10.15,1.13,1.32,2.24,2.65,3.34,3.99,3.19-2.75,6.4-5.47,9.59-8.21Z"/><path class="b" d="M44.63,21.81c-.23-.29-.62-.6-.69-.97,3.01-3.32,7.06-5.76,11.35-7.04,9.79-2.95,21.39,.57,27.46,8.92-3.83,3.35-7.66,6.69-11.5,10.02-1.16-1.29-2.32-2.58-3.46-3.88-3.19,2.75-6.4,5.49-9.61,8.22-4.51-5.1-9.02-10.2-13.55-15.28Z"/><path class="b" d="M84.53,25.24c3.51,4.89,5.13,11.2,4.67,17.18-.39,5.42-2.46,10.7-5.9,14.92-.35,.37-1.11,.82-1.6,.52-.97-.31-.98-1.49-.35-2.13,3.17-3.89,5.06-8.77,5.37-13.77,.35-5.4-1.14-10.66-4.11-15.15-.8-1.34,.81-2.58,1.91-1.56Z"/><path class="b" d="M115.03,48.2c-.07-2.88-2.58-5.46-5.46-5.57-2.34-.06-4.69,0-7.04-.02,0,6.02,0,12.04,0,18.06h3.52c0-2.09,0-4.17,0-6.26,2.06-.11,4.28,.41,6.04-.72,1.98-1.17,3.08-3.19,2.94-5.49Zm-4.5,2.14c-1.07,1.07-3.09,.65-4.48,.72v-5.02c1.12,.02,2.28-.09,3.38,.08,1.81,.46,2.45,2.92,1.1,4.21Z"/><path class="b" d="M117.24,24.6c-.26-2.17-1.42-4.28-3.15-5.63-1.76-1.38-4.18-1.58-6.33-1.65-1.74,0-3.48-.04-5.22,.02-.05,6,0,12.04-.02,18.04,2.91-.04,6.05,.18,8.9-.43,2.24-.5,3.97-2.1,4.97-4.12,.97-1.91,1.09-4.13,.84-6.23Zm-3.4,2.52c-.17,1.56-.82,3.05-2.2,3.89-1.63,1-3.73,.95-5.58,.93v-11.19c1.98-.02,4.15-.11,5.84,1.09,1.66,1.22,2.14,3.32,1.94,5.28Z"/><path class="b" d="M118.3,42.61c3.61,0,7.23,0,10.84,0v3.43c-2.47,0-4.93,0-7.4,0,0,1.29,0,2.58,0,3.87,2.46,0,4.93,0,7.4,0,0,1.12,0,2.23,0,3.35-2.47,0-4.93,0-7.4,0,0,1.32,0,2.64,0,3.96,2.46,0,4.93,0,7.4,0,0,1.15,0,2.29,0,3.44h-10.84c0-6.02,0-12.04,0-18.06Z"/><path class="b" d="M135.87,20.45c-2.13-2.49-5.36-3.65-8.59-2.94-2.45,.51-4.65,2.03-5.89,4.22-1.98,3.34-1.56,7.84,1.08,10.71,3.15,3.72,9.47,3.89,12.9,.46,3.41-3.16,3.6-9.01,.5-12.45Zm-1.29,7.02c-.41,2.66-3.01,4.9-5.74,4.66-2.7-.09-5.07-2.33-5.27-5.03-.36-2.75,1.24-5.52,3.97-6.29,1.33-.38,2.77-.24,4.01,.37,2.24,1.18,3.53,3.8,3.03,6.3Z"/><path class="b" d="M145.23,47.38c1.72,4.44,3.42,8.89,5.17,13.32-1.27,.04-2.54,.03-3.81,.03-.55-1.24-.93-2.54-1.48-3.78-2.37,.02-4.74,0-7.11,.01-.5,1.23-1.01,2.46-1.51,3.7-1.2,0-2.4,0-3.61,0,2.31-6,4.59-12.07,6.98-18.03,1.2-.08,2.41-.01,3.61-.02-1.24,3.69-2.79,7.29-4.19,10.92,1.52,0,3.04,0,4.56,0-.35-.97-.72-1.93-1.08-2.9,.63-1.54,1.19-3.11,1.84-4.64,.23,.46,.44,.92,.63,1.4Z"/><path class="b" d="M154.68,29.24c-.15,3.59-3.52,6.39-7.06,6.09-3.36-.19-6.11-3.1-6.14-6.46-.02-3.85,0-7.7,0-11.56,1.15,0,2.29,0,3.44,0,.01,3.83-.01,7.67,0,11.5,.03,1.54,1.22,2.97,2.77,3.14,1.8,.27,3.6-1.23,3.56-3.07,.01-3.86,0-7.72,0-11.57,1.15,0,2.29,0,3.44,0,0,3.97,.01,7.95,0,11.92Z"/><path class="b" d="M160.46,51.66c2.06,3.01,4.14,6,6.21,9-1.41,.01-2.81,.01-4.22,0-1.83-2.62-3.62-5.28-5.46-7.9-.01,2.63,0,5.27,0,7.9h-3.52c0-6.02,0-12.04,0-18.06,1.18,0,2.35,0,3.52,0,0,2.63,0,5.27,0,7.91,1.81-2.63,3.62-5.26,5.43-7.9,1.41-.01,2.82-.01,4.23,0-2.04,3.03-4.13,6.03-6.18,9.05Z"/><path class="b" d="M170.93,29.64c-.07-1.95-1.31-3.34-2.97-4.18,1.05-.99,1.83-2.17,1.72-3.68-.01-1.92-1.52-3.42-3.25-4.01-2.43-.65-5.18-.41-7.68-.46v18.06c2.68-.07,5.44,.18,8.1-.2,2.56-.42,4.36-2.99,4.09-5.53Zm-8.66-8.98c1.03,.03,2.4-.17,3.3,.42,1.05,.66,.83,2.44-.23,2.99-.88,.46-2.1,.35-3.07,.39,0-1.27,0-2.53,0-3.8Zm4.28,10.94c-1.3,.5-2.9,.38-4.28,.43,0-1.5,0-3,0-4.5,1.37,.02,2.88-.18,4.14,.44,1.3,.7,1.6,2.9,.13,3.62Z"/><path class="b" d="M177.25,32.03c2.2,0,4.41,0,6.61,0,0,1.12,0,2.23,0,3.35-3.35,0-6.69,0-10.04,0,0-6.02,0-12.04,0-18.06,1.15,0,2.29,0,3.44,0v14.71Z"/><path class="b" d="M190.46,20.75v3.88c2.47,0,4.93,0,7.4,0v3.34c-2.47,0-4.93,0-7.4,0,0,1.32,0,2.64,0,3.96,2.46,0,4.93,0,7.4,0,0,1.15,0,2.29,0,3.44-3.61,0-7.23,0-10.84,0,0-6.02,0-12.04,0-18.06,3.61,0,7.22,0,10.83,0v3.43c-2.47,0-4.93,0-7.4,0Z"/><path class="b" d="M82.75,22.72c-3.83,3.35-7.66,6.69-11.5,10.02-1.16-1.29-2.32-2.58-3.46-3.88-3.19,2.75-6.4,5.49-9.61,8.22-4.51-5.1-9.02-10.2-13.55-15.28-.23-.29-.62-.6-.69-.97,3.01-3.32,7.06-5.76,11.35-7.04,9.79-2.95,21.39,.57,27.46,8.92Z"/><path class="b" d="M117.24,24.6c-.26-2.17-1.42-4.28-3.15-5.63-1.76-1.38-4.18-1.58-6.33-1.65-1.74,0-3.48-.04-5.22,.02-.05,6,0,12.04-.02,18.04,2.91-.04,6.05,.18,8.9-.43,2.24-.5,3.97-2.1,4.97-4.12,.97-1.91,1.09-4.13,.84-6.23Zm-3.4,2.52c-.17,1.56-.82,3.05-2.2,3.89-1.63,1-3.73,.95-5.58,.93v-11.19c1.98-.02,4.15-.11,5.84,1.09,1.66,1.22,2.14,3.32,1.94,5.28Z"/><path class="b" d="M135.87,20.45c-2.13-2.49-5.36-3.65-8.59-2.94-2.45,.51-4.65,2.03-5.89,4.22-1.98,3.34-1.56,7.84,1.08,10.71,3.15,3.72,9.47,3.89,12.9,.46,3.41-3.16,3.6-9.01,.5-12.45Zm-1.29,7.02c-.41,2.66-3.01,4.9-5.74,4.66-2.7-.09-5.07-2.33-5.27-5.03-.36-2.75,1.24-5.52,3.97-6.29,1.33-.38,2.77-.24,4.01,.37,2.24,1.18,3.53,3.8,3.03,6.3Z"/><path class="b" d="M154.68,29.24c-.15,3.59-3.52,6.39-7.06,6.09-3.36-.19-6.11-3.1-6.14-6.46-.02-3.85,0-7.7,0-11.56,1.15,0,2.29,0,3.44,0,.01,3.83-.01,7.67,0,11.5,.03,1.54,1.22,2.97,2.77,3.14,1.8,.27,3.6-1.23,3.56-3.07,.01-3.86,0-7.72,0-11.57,1.15,0,2.29,0,3.44,0,0,3.97,.01,7.95,0,11.92Z"/><path class="b" d="M170.93,29.64c-.07-1.95-1.31-3.34-2.97-4.18,1.05-.99,1.83-2.17,1.72-3.68-.01-1.92-1.52-3.42-3.25-4.01-2.43-.65-5.18-.41-7.68-.46v18.06c2.68-.07,5.44,.18,8.1-.2,2.56-.42,4.36-2.99,4.09-5.53Zm-8.66-8.98c1.03,.03,2.4-.17,3.3,.42,1.05,.66,.83,2.44-.23,2.99-.88,.46-2.1,.35-3.07,.39,0-1.27,0-2.53,0-3.8Zm4.28,10.94c-1.3,.5-2.9,.38-4.28,.43,0-1.5,0-3,0-4.5,1.37,.02,2.88-.18,4.14,.44,1.3,.7,1.6,2.9,.13,3.62Z"/><path class="b" d="M183.86,32.03c0,1.12,0,2.23,0,3.35-3.35,0-6.69,0-10.04,0,0-6.02,0-12.04,0-18.06,1.15,0,2.29,0,3.44,0v14.71c2.2,0,4.41,0,6.61,0Z"/><path class="b" d="M190.46,20.75v3.88c2.47,0,4.93,0,7.4,0v3.34c-2.47,0-4.93,0-7.4,0,0,1.32,0,2.64,0,3.96,2.46,0,4.93,0,7.4,0,0,1.15,0,2.29,0,3.44-3.61,0-7.23,0-10.84,0,0-6.02,0-12.04,0-18.06,3.61,0,7.22,0,10.83,0v3.43c-2.47,0-4.93,0-7.4,0Z"/><path class="b" d="M38.12,39.74c-.12,4.81,1.18,9.64,3.79,13.69,.24,.43,.7,.97,.61,1.48-.05,1.09-1.71,1.52-2.27,.57-2.89-4.14-4.48-9.22-4.6-14.27-.2-6.4,1.96-12.86,6.06-17.79,.59-.85,1.85-.73,2.22,.24,.31,.7-.21,1.25-.6,1.78-3.22,4.06-5.03,9.13-5.21,14.3Z"/><path class="b" d="M89.2,42.41c-.39,5.42-2.46,10.7-5.9,14.92-.35,.37-1.11,.82-1.6,.52-.97-.31-.98-1.49-.35-2.13,3.17-3.89,5.06-8.77,5.37-13.77,.35-5.4-1.14-10.66-4.11-15.15-.8-1.34,.81-2.58,1.91-1.56,3.51,4.89,5.13,11.2,4.67,17.18Z"/><path class="b" d="M115.03,48.2c-.07-2.88-2.58-5.46-5.46-5.57-2.34-.06-4.69,0-7.04-.02,0,6.02,0,12.04,0,18.06h3.52c0-2.09,0-4.17,0-6.26,2.06-.11,4.28,.41,6.04-.72,1.98-1.17,3.08-3.19,2.94-5.49Zm-4.5,2.14c-1.07,1.07-3.09,.65-4.48,.72v-5.02c1.12,.02,2.28-.09,3.38,.08,1.81,.46,2.45,2.92,1.1,4.21Z"/><path class="b" d="M121.74,46.05c0,1.29,0,2.58,0,3.87,2.46,0,4.93,0,7.4,0,0,1.12,0,2.23,0,3.35-2.47,0-4.93,0-7.4,0,0,1.32,0,2.64,0,3.96,2.46,0,4.93,0,7.4,0,0,1.15,0,2.29,0,3.44h-10.84c0-6.02,0-12.04,0-18.06,3.61,0,7.23,0,10.84,0v3.43c-2.47,0-4.93,0-7.4,0Z"/><path class="b" d="M150.39,60.71c-1.27,.04-2.54,.03-3.81,.03-.55-1.24-.93-2.54-1.48-3.78-2.37,.02-4.74,0-7.11,.01-.5,1.23-1.01,2.46-1.51,3.7-1.2,0-2.4,0-3.61,0,2.31-6,4.59-12.07,6.98-18.03,1.2-.08,2.41-.01,3.61-.02-1.24,3.69-2.79,7.29-4.19,10.92,1.52,0,3.04,0,4.56,0-.35-.97-.72-1.93-1.08-2.9,.63-1.54,1.19-3.11,1.84-4.64,.23,.46,.44,.92,.63,1.4,1.72,4.44,3.42,8.89,5.17,13.32Z"/><path class="b" d="M166.67,60.66c-1.41,.01-2.81,.01-4.22,0-1.83-2.62-3.62-5.28-5.46-7.9-.01,2.63,0,5.27,0,7.9h-3.52c0-6.02,0-12.04,0-18.06,1.18,0,2.35,0,3.52,0,0,2.63,0,5.27,0,7.91,1.81-2.63,3.62-5.26,5.43-7.9,1.41-.01,2.82-.01,4.23,0-2.04,3.03-4.13,6.03-6.18,9.05,2.06,3.01,4.14,6,6.21,9Z"/><path class="b" d="M81.09,59.58c-2.91,3.11-6.58,5.48-10.63,6.83-9.99,3.38-22.01-.06-28.29-8.65,3.86-3.39,7.73-6.78,11.62-10.15,1.13,1.32,2.24,2.65,3.34,3.99,3.19-2.75,6.4-5.47,9.59-8.21,4.8,5.39,9.58,10.8,14.37,16.19Z"/></svg>