<?xml version="1.0" encoding="utf-8"?>
<!-- Generator: Adobe Illustrator 26.0.1, SVG Export Plug-In . SVG Version: 6.00 Build 0)  -->
<svg version="1.1" id="Layer_1" xmlns="http://www.w3.org/2000/svg" xmlns:xlink="http://www.w3.org/1999/xlink" x="0px" y="0px"
	 viewBox="0 0 233.5 80.5" style="enable-background:new 0 0 233.5 80.5;" xml:space="preserve">
<style type="text/css">
	.st0{fill:none;stroke:url(#SVGID_1_);stroke-width:0.5;stroke-miterlimit:10;}
	.st1{fill:none;stroke:#00E9BA;stroke-width:0.5;stroke-miterlimit:10;}
	.st2{fill:#FFFFFF;}
	.st3{clip-path:url(#SVGID_00000112603464349985290660000005676471387220347555_);fill:#FFFFFF;}
	.st4{fill-rule:evenodd;clip-rule:evenodd;fill:#FFFFFF;}
</style>
<g>
	<path class="st2" d="M55.1,49c-1.3,5.2-6,8.6-11.1,9.1h-2.3c-5.6-0.5-10.4-4.6-11.5-10.2c-0.5-3.5-0.4-6.9,1.4-10
		c2.1-3.8,5.9-6.1,10.1-6.6h2.4c5.1,0.6,9.7,4,10.9,9.1c-1.9,0-3.9,0-5.8,0c-1.7-2.4-3.9-4-7-3.7c-4.1,0.4-6.8,4-6.7,8
		c-0.1,3.9,2.7,7.6,6.7,8c3.1,0.3,5.3-1.4,7-3.7C51.2,49,53.1,49,55.1,49z"/>
	<path class="st2" d="M81.2,37c-2.2-3.3-5.8-5.3-9.7-5.7h-2.1c-4,0.4-7.5,2.4-9.8,5.7c-3.5,5.1-3,12.4,1.2,16.9
		c2.2,2.4,5.3,3.8,8.5,4.1h2.1c3.1-0.3,6.1-1.6,8.3-3.8C84.2,49.8,84.8,42.2,81.2,37z M75.8,50.4c-2.3,2.6-6.4,3.1-9.2,1.3
		C61.5,48.4,62,38.9,68,37.1c2.9-0.9,6.2-0.2,8.1,2.3C78.5,42.4,78.4,47.5,75.8,50.4z"/>
	<path class="st2" d="M121,41.9c0,5.2,0,10.4,0,15.6c-1.9,0-3.8,0-5.8,0c0-5,0-10,0-15c0-1.5,0-3.3-0.9-4.5
		c-1.4-2.2-5.3-1.9-6.6,0.3c-1,1.7-1,4-1.1,5.9c0,4.4,0,8.9,0,13.3c-1.9,0-3.8,0-5.8,0c0-5,0-10,0-15c0-1.6-0.1-3.3-1-4.6
		c-1.3-1.9-4.6-1.9-6,0c-1.3,1.7-1.4,4.3-1.5,6.3c0,4.4,0,8.9,0,13.3c-1.9,0-3.8,0-5.8,0V32c1.9,0,3.7,0,5.6,0c0,0.8,0,1.6-0.1,2.4
		c1.5-1.6,2.9-2.7,5.2-3h1.8c2.9,0.4,4.5,1.7,6,4c1.6-2.2,3.5-3.7,6.3-4h1.5c2.4,0.4,4.7,1.4,6.2,3.4
		C120.8,36.9,120.9,39.4,121,41.9z"/>
	<path class="st2" d="M143.5,57.5c-6,0-12,0-18,0c0-1.5,0-2.9,0-4.4c3.3-3,6.5-6.1,9.8-9.2c1.3-1.3,3.1-2.8,2.7-4.8
		c-0.4-2.3-3.1-3-5-2c-1.1,0.6-1.5,1.9-1.9,2.9c-1.8,0-3.7,0-5.5,0c0.4-1.9,0.6-3.6,1.8-5.1c1.6-2.2,4-3.3,6.6-3.6h1.7
		c2.3,0.3,4.4,1.1,5.9,2.8c2.6,2.9,2.5,7.6,0,10.5c-2.3,2.7-5.2,4.9-7.7,7.4c3.2,0,6.4,0,9.6,0C143.5,53.9,143.5,55.7,143.5,57.5z"
		/>
	<path class="st2" d="M160.7,38.8c-1.1,1.8-3.6,1.4-4.3-0.5c-0.8-2.2-0.8-5.9,1.7-7h1.1l0.5,0.2l0.5,0.2
		C161.7,33.7,161.9,36.6,160.7,38.8z"/>
	<path class="st2" d="M170.8,38.8c-1,1.7-3.6,1.4-4.3-0.5c-0.8-2.2-0.8-5.9,1.7-7h1.1l0.5,0.2l0.5,0.2
		C171.8,33.7,171.9,36.6,170.8,38.8z"/>
	<path class="st2" d="M203.3,52.4c-1.2,3.7-4.8,5.4-8.4,5.7h-2.3c-3-0.4-5.7-1.4-7.7-3.8c-1.2-1.5-1.6-3.1-2-4.9c1.8,0,3.6,0,5.4,0
		c0.6,1,1,2.2,2.1,2.7c1.5,0.8,3.4,0.9,5,0.6c1.3-0.3,2.7-1,2.7-2.5c0.1-0.8-0.5-1.5-1.2-1.9c-3.2-1.5-7.9-1.5-10.8-3.8
		c-3.2-2.4-3-7.6-0.4-10.4c1.7-1.9,4-2.7,6.5-3h1.9c2.7,0.4,5.2,1.4,6.9,3.5c1.2,1.4,1.5,2.9,1.9,4.6c-1.8,0-3.6,0-5.5,0
		c-0.8-1.1-1.3-2.4-2.7-2.8c-1.6-0.5-3.9-0.3-5,1.1c-0.8,1.1-0.3,2.5,0.9,3.1c3.3,1.6,8.2,1.4,11,4.1
		C203.9,46.8,203.8,49.8,203.3,52.4z"/>
	<path class="st2" d="M180.8,42.3c-0.2,2.9-0.7,5.6-2.3,8.1c-2.9,4.7-7.9,7.2-13.3,7.7h-3c-4.5-0.5-8.7-2.2-11.7-5.6
		c-2.6-2.9-3.7-6.4-3.9-10.2c1.9,0,3.8,0,5.7,0c0.3,2.7,1,5.1,3,7.1c4.7,4.6,13.7,4.3,17.7-1.1c1.4-1.8,1.7-3.8,2.1-6
		C177,42.3,178.9,42.3,180.8,42.3z"/>
</g>
</svg>
