<?xml version="1.0" encoding="utf-8"?>
<!-- Generator: Adobe Illustrator 26.0.1, SVG Export Plug-In . SVG Version: 6.00 Build 0)  -->
<svg version="1.1" id="Layer_1" xmlns="http://www.w3.org/2000/svg" xmlns:xlink="http://www.w3.org/1999/xlink" x="0px" y="0px"
	 viewBox="0 0 233.5 80.5" style="enable-background:new 0 0 233.5 80.5;" xml:space="preserve">
<style type="text/css">
	.st0{fill:none;stroke:url(#SVGID_1_);stroke-width:0.5;stroke-miterlimit:10;}
	.st1{fill:none;stroke:#00E9BA;stroke-width:0.5;stroke-miterlimit:10;}
	.st2{fill:#171726;}
	.st3{clip-path:url(#SVGID_00000137820249752334540850000005914877732180268217_);fill:#171726;}
	.st4{fill-rule:evenodd;clip-rule:evenodd;fill:#171726;}
	.st5{fill:#FFFFFF;}
</style>
<g>
	<path class="st5" d="M213.1,21.5c-0.3-0.1-0.6,0-0.9,0h-17.1c-2.7,0-5.3,0.6-7.7,1.8c-2.7,1.3-5,3.4-6.7,5.8
		c-1.9,2.8-2.9,6.2-3,9.5v17.6c0,0.3,0,0.6,0,0.9c0.1,0.4,0.5,0.6,0.8,0.5h17.6c2.6,0,5.1-0.6,7.4-1.7c2.7-1.3,5.1-3.3,6.8-5.7
		c2.1-2.9,3.2-6.4,3.2-9.9V22.3C213.6,21.9,213.4,21.6,213.1,21.5z M189.5,31.3c2-1.4,4.5-2.2,7-2.2c2.9,0,5.7,0,8.6,0
		c0.2,0,0.4,0,0.6,0.2c0.2,0.2,0.1,0.4,0.2,0.6c0,1.7,0,3.3,0,5c-6.5,0-12.9,0-19.4,0C187.1,33.5,188.2,32.3,189.5,31.3z M201.3,48
		c-2,1.3-4.4,2.1-6.8,2.1h-8.6c-0.2,0-0.4,0-0.6-0.2c-0.2-0.2-0.2-0.4-0.2-0.6c0-1.7,0-3.4,0-5.1h19.4
		C203.9,45.9,202.7,47.1,201.3,48z"/>
	<path class="st5" d="M107.4,52.9c-0.2-0.9-0.9-1.8-1.8-2.2c-0.4-0.2-0.9-0.3-1.3-0.3c-1.5,0-3,0-4.5,0c-0.2,0-0.5,0-0.7,0
		C99,50.5,99,50.7,99,50.9c0,2.5,0,5,0,7.5c0,0.2,0,0.4,0.1,0.5c0.1,0.1,0.3,0.1,0.5,0.1c0.3,0,0.7,0,1,0c0.2,0,0.3-0.2,0.3-0.4
		c0-0.6,0-1.3,0-1.9c1.2,0,2.4,0,3.6,0c0.8,0,1.6-0.4,2.2-0.9C107.3,54.9,107.7,53.9,107.4,52.9z M104.4,54.4c-1.1,0-2.3,0-3.4,0
		v-1.9c1.1,0,2.1,0,3.2,0c0.3,0,0.5,0,0.8,0.2c0.4,0.3,0.5,0.8,0.3,1.2C105.2,54.2,104.8,54.4,104.4,54.4z"/>
	<path class="st5" d="M116.5,52.4c-0.6-0.9-1.5-1.7-2.6-1.9c-0.9-0.2-2-0.1-2.8,0.3c-1.4,0.7-2.4,2.1-2.4,3.7c0,1.3,0,2.6,0,3.9
		c0,0.1,0,0.4,0.2,0.5c0.4,0,0.8,0,1.2,0c0.2,0,0.3,0,0.3-0.2c0-0.7,0-1.5,0-2.2h5.1c0,0.7,0,1.5,0,2.2c0,0.2,0.2,0.2,0.3,0.2
		c0.4,0,0.8,0,1.2,0c0.2,0,0.1-0.2,0.2-0.4v-3.9C117.1,53.9,116.9,53.1,116.5,52.4z M110.6,54.4c0-0.2,0.1-0.4,0.2-0.6
		c0.3-0.8,1-1.3,1.8-1.4c0.7-0.1,1.4,0.1,1.9,0.6c0.4,0.4,0.6,0.9,0.7,1.4C113.7,54.4,112.1,54.4,110.6,54.4z"/>
	<path class="st5" d="M125,55.5c0.6-0.3,1.2-0.8,1.4-1.5c0.4-1,0.1-2.2-0.7-3c-0.5-0.4-1.2-0.7-1.8-0.6c-1.9,0-3.8,0-5.7,0
		c0,0.3,0,0.6,0,0.9v7.6c0.6,0,1.2,0,1.9,0v-3.3h3c0.6,1.1,1.1,2.2,1.7,3.2c0.5,0,1.1,0,1.6,0c0.2,0,0.2-0.1,0.2-0.2
		c-0.1-0.2-0.2-0.5-0.3-0.7C125.8,57.2,125.4,56.3,125,55.5z M124.3,53.6c-0.2,0.2-0.4,0.1-0.6,0.1c-1.2,0-2.3,0-3.5,0v-1.2
		c1.2,0,2.3,0,3.5,0c0.2,0,0.5,0,0.7,0.2C124.5,53,124.5,53.4,124.3,53.6z"/>
	<path class="st5" d="M163.1,55.5c0.7-0.4,1.3-1,1.5-1.8c0.3-1-0.1-2.1-0.9-2.7c-0.5-0.4-1.1-0.6-1.7-0.6h-5.8v8.5
		c0.6,0,1.2,0,1.9,0v-3.3h3c0.6,1.1,1.1,2.2,1.7,3.2c0.5,0,1.1,0,1.6,0c0.1,0,0.2-0.1,0.2-0.2c-0.1-0.2-0.2-0.5-0.3-0.7
		C163.9,57.1,163.5,56.3,163.1,55.5z M161.8,53.7c-1.2,0-2.3,0-3.5,0v-1.2c1.2,0,2.3,0,3.5,0c0.2,0,0.4,0,0.6,0.2
		c0.3,0.2,0.3,0.6,0,0.9C162.3,53.7,162.1,53.7,161.8,53.7z"/>
	<path class="st5" d="M127.7,50.5c0.3,0,0.7,0,1,0c2.2,0,4.5,0,6.7,0c0.2,0,0.4,0,0.5,0.1c0.1,0.1,0.1,0.3,0.1,0.5c0,0.3,0,0.7,0,1
		c-0.1,0.2-0.3,0.2-0.5,0.2c-0.9,0-1.8,0-2.8,0c0,2.1,0,4.1,0,6.2c0,0.2,0,0.4-0.2,0.4c-0.4,0.1-0.7,0-1.1,0c-0.2,0-0.4,0-0.5-0.2
		c-0.1-0.3,0-0.6,0-0.8c0-1.9,0-3.7,0-5.6c-0.9,0-1.9,0-2.8,0c-0.2,0-0.4,0-0.5-0.3c0-0.4,0-0.9,0-1.3
		C127.5,50.7,127.6,50.5,127.7,50.5z"/>
	<path class="st5" d="M137.5,50.5c1.3,0,2.7,0,4,0c0.6,0,1.3,0.2,1.9,0.4c1.3,0.7,2.2,2,2.2,3.5c0,1.4,0,2.7,0,4.1
		c0,0.1,0,0.4-0.1,0.4c-0.3,0-0.7,0-1,0c-0.2,0-0.3,0-0.5-0.1c-0.1-0.1-0.1-0.2-0.1-0.3c0-1.4,0-2.8,0-4.2c0-1.2-1-2.1-2.2-2.2
		c-1,0-1.9,0-2.9,0c0,1.9,0,3.9,0,5.8c0,0.3,0,0.6,0,0.8c-0.1,0.2-0.3,0.1-0.4,0.1c-0.4,0-0.8,0-1.2,0c-0.1-0.1-0.1-0.2-0.1-0.3
		c0-2.6,0-5.1,0-7.7c0-0.1,0-0.2,0-0.3C137.2,50.5,137.3,50.5,137.5,50.5z"/>
	<path class="st5" d="M146.9,50.5c0.3-0.1,0.6,0,0.9,0c2.3,0,4.6,0,6.9,0c0.2,0,0.4,0,0.4,0.3c0,0.4,0,0.9,0,1.4
		c-0.1,0.2-0.2,0.2-0.4,0.2c-2.1,0-4.1,0-6.2,0c0,0.5,0,1,0,1.5c1.2,0,2.4,0,3.5,0c0.2,0,0.4,0,0.5,0.2c0.1,0.4,0,0.7,0,1.1
		c0,0.1,0,0.3-0.1,0.4c-0.1,0.1-0.3,0.1-0.4,0.1c-1.2,0-2.4,0-3.5,0c0,0.5,0,1,0,1.5c1.9,0,3.7,0,5.6,0c0.3,0,0.6,0,0.8,0
		c0.1,0.1,0.2,0.2,0.2,0.3c0,0.4,0,0.8,0,1.1c0,0.2-0.1,0.3-0.2,0.3c-0.3,0.1-0.6,0-0.9,0c-2.3,0-4.6,0-6.9,0c-0.1,0-0.3,0-0.4-0.1
		c-0.1-0.1-0.1-0.3-0.1-0.4c0-2.5,0-5,0-7.5C146.7,50.8,146.6,50.6,146.9,50.5z"/>
	<path class="st5" d="M167.7,50.7c0.4-0.1,0.7,0,1.1,0c1.7,0,3.3,0,5,0c0.2,0,0.3,0,0.4,0.2c0,0.5,0,1,0,1.5c0,0.2-0.2,0.2-0.4,0.2
		c-1.8,0-3.7,0-5.5,0c-0.2,0-0.4,0-0.6,0.2c-0.3,0.3-0.3,0.8,0,1c0.2,0.2,0.4,0.2,0.7,0.2c1.1,0,2.1,0,3.2,0c0.5,0,1,0.1,1.4,0.4
		c0.8,0.5,1.2,1.4,1.2,2.3c0,1-0.7,1.9-1.6,2.2c-0.4,0.2-0.9,0.2-1.4,0.2c-1.7,0-3.5,0-5.2,0c-0.2,0-0.3,0-0.4-0.2c0-0.5,0-1,0-1.5
		c0-0.2,0.3-0.2,0.4-0.2c1.8,0,3.5,0,5.3,0c0.1,0,0.3,0,0.4,0c0.3-0.1,0.4-0.3,0.5-0.6c0-0.3-0.1-0.6-0.4-0.7
		c-0.1-0.1-0.3-0.1-0.5-0.1c-1,0-2,0-3,0c-0.4,0-0.8,0-1.2-0.2c-0.8-0.3-1.3-1-1.5-1.8c-0.1-0.6,0-1.3,0.3-1.8
		C166.4,51.3,167,50.8,167.7,50.7z"/>
	<path class="st5" d="M20.4,22.7c3.8,0,7.7,0,11.6,0c3,0,5.9,1.3,8,3.5c1.6,1.7,2.7,4,2.9,6.4c0.1,0.7,0,1.3,0,2c0,3.2,0,6.4,0,9.6
		c0,0.3,0,0.6,0,0.9c-0.1,0.3-0.4,0.4-0.6,0.4c-1.1,0-2.1,0-3.2,0c-0.2,0-0.4,0-0.6-0.2c-0.2-0.1-0.2-0.3-0.2-0.5c0-3.5,0-7,0-10.5
		c0-0.5,0-1-0.1-1.5c-0.4-1.8-1.5-3.4-3.1-4.4c-0.4-0.2-0.9-0.1-1.1,0.2c-0.3,0.3-0.2,0.7-0.2,1.1c0,5.1,0,10.2,0,15.2
		c0,0.2,0,0.4-0.1,0.5c-0.1,0.1-0.3,0.1-0.5,0.1c-1.1,0-2.3,0-3.4,0c-0.2,0-0.4,0-0.5-0.1C29,45.2,29,45,29,44.8
		c0-5.3,0-10.6,0-15.9c0-0.3,0-0.6,0-0.9c0-0.3-0.3-0.6-0.7-0.7c-0.4-0.1-0.7,0-1.1,0c-0.7,0-1.3,0-2,0c-0.3,0.1-0.6,0.4-0.7,0.7
		c0,0.3,0,0.6,0,0.8c0,5.3,0,10.6,0,15.9c0,0.2,0,0.4-0.1,0.5c-0.1,0.1-0.3,0.1-0.5,0.1c-1,0-1.9,0-2.9,0c-0.3,0-0.6,0-0.8,0
		c-0.1,0-0.3-0.2-0.3-0.3c0-0.3,0-0.7,0-1c0-6.9,0-13.9,0-20.8c0-0.1,0-0.3,0.1-0.4C20.1,22.7,20.2,22.7,20.4,22.7z"/>
	<path class="st5" d="M46.8,22.7c7.2,0,14.5,0,21.8,0c0.1,0,0.3,0,0.4,0.1c0.1,0.1,0.1,0.3,0.1,0.5c0,1.1,0,2.2,0,3.3
		c0,0.2,0,0.4-0.1,0.5c-0.1,0.1-0.2,0.1-0.4,0.1c-5.9,0-11.9,0-17.8,0c0,1.6,0,3.2,0,4.8c3.7,0,7.3,0,11,0c0.2,0,0.3,0,0.4,0.1
		c0.1,0.1,0.1,0.3,0.1,0.4c0,1.1,0,2.2,0,3.3c0,0.1,0,0.3-0.1,0.4c-0.1,0.1-0.3,0.1-0.4,0.1c-3.7,0-7.3,0-11,0c0,1.5,0,3,0,4.6
		c5.7,0,11.5,0,17.2,0c0.3,0,0.6,0,0.9,0.1c0.2,0.1,0.2,0.3,0.2,0.6c0,1.1,0,2.2,0,3.3c0,0.2,0,0.4-0.1,0.5
		c-0.1,0.1-0.2,0.1-0.4,0.1c-7.1,0-14.1,0-21.2,0c-0.3,0-0.6,0-0.9,0c-0.2-0.1-0.2-0.3-0.2-0.5c0-7.2,0-14.5,0-21.7
		c0-0.1,0-0.3,0.1-0.4C46.5,22.7,46.6,22.7,46.8,22.7z"/>
	<path class="st5" d="M73.1,22.7c4,0,8.1,0,12.1,0c2.8,0,5.6,1.3,7.5,3.4c1.5,1.6,2.4,3.8,2.6,6c0.1,0.6,0,1.3,0,1.9
		c0,3.6,0,7.3,0,10.9c0,0.2,0,0.4-0.1,0.5c-0.1,0.1-0.3,0.1-0.5,0.1c-1.1,0-2.2,0-3.3,0c-0.2,0-0.4,0-0.6-0.2
		c-0.1-0.2,0-0.6-0.1-0.8c0-3.6,0-7.2,0-10.8c0-1.7-0.7-3.3-1.9-4.5c-1-1-2.4-1.7-3.8-1.9c-0.5-0.1-1-0.1-1.5-0.1
		c-2.2,0-4.4,0-6.6,0c0,5.9,0,11.9,0,17.8c0,0.2,0,0.3-0.1,0.4c-0.1,0.1-0.3,0.1-0.5,0.1c-1.1,0-2.2,0-3.3,0c-0.2,0-0.4,0-0.5-0.1
		c-0.1-0.1-0.1-0.2-0.1-0.4c0-7.3,0-14.5,0-21.8c0-0.1,0-0.2,0.1-0.3C72.8,22.7,72.9,22.7,73.1,22.7z"/>
	<path class="st5" d="M99.8,22.7c7.1,0,14.3,0,21.4,0c0.1,0,0.3,0,0.4,0.1c0.1,0.1,0.1,0.3,0.1,0.5c0,1.1,0,2.2,0,3.3
		c0,0.2,0,0.4-0.2,0.5c-0.3,0.1-0.6,0-0.9,0c-2.7,0-5.4,0-8.1,0c0,5.9,0,11.9,0,17.8c0,0.3-0.1,0.5-0.5,0.5c-1.2,0-2.4,0-3.6,0
		c-0.3,0-0.4-0.2-0.4-0.5c0-5.9,0-11.9,0-17.8c-2.7,0-5.5,0-8.2,0c-0.3,0-0.6,0-0.8,0c-0.2-0.1-0.2-0.4-0.2-0.6c0-1.1,0-2.2,0-3.3
		c0-0.2,0-0.4,0.2-0.5C99.2,22.6,99.5,22.7,99.8,22.7z"/>
	<path class="st5" d="M125.8,22.7c1.1,0,2.2,0,3.3,0c0.2,0,0.4,0,0.5,0.1c0.1,0.1,0.1,0.3,0.1,0.4c0,2.9,0,5.7,0,8.6
		c4.6,0,9.2,0,13.7,0c0-2.9,0-5.7,0-8.6c0-0.1,0-0.3,0.1-0.4c0.1-0.1,0.3-0.1,0.4-0.1c1.1,0,2.2,0,3.3,0c0.2,0,0.3,0,0.5,0.1
		c0.1,0.1,0.1,0.2,0.1,0.4c0,7.1,0,14.1,0,21.2c0,0.3,0,0.6,0,0.9c-0.1,0.2-0.3,0.2-0.5,0.2c-1.1,0-2.2,0-3.3,0
		c-0.2,0-0.4,0-0.5-0.1c-0.1-0.1-0.1-0.3-0.1-0.5c0-2.9,0-5.7,0-8.6c-4.6,0-9.2,0-13.7,0c0,2.9,0,5.7,0,8.6c0,0.2,0,0.4-0.1,0.5
		c-0.1,0.1-0.3,0.1-0.5,0.1c-1.1,0-2.2,0-3.3,0c-0.2,0-0.4,0-0.5-0.2c-0.1-0.3,0-0.6,0-0.9c0-7.1,0-14.1,0-21.2c0-0.1,0-0.3,0.1-0.4
		C125.4,22.7,125.6,22.7,125.8,22.7z"/>
	<path class="st5" d="M174.2,32.9c-0.2-2.4-1.2-4.6-2.8-6.4c-1.4-1.6-3.3-2.8-5.3-3.4c-2.2-0.6-4.6-0.6-6.8,0.1
		c-2.1,0.7-4,2.1-5.4,3.8c-1.3,1.7-2.2,3.8-2.3,6c-0.1,0.7,0,1.3,0,2c0,3.3,0,6.5,0,9.8c0,0.2,0,0.3,0.1,0.5
		c0.1,0.1,0.3,0.1,0.5,0.1h3.3c0.2,0,0.4,0,0.5-0.1c0.1-0.1,0.1-0.3,0.1-0.5c0-2.1,0-4.3,0-6.4h13.9c0,2.1,0,4.3,0,6.4
		c0,0.2,0,0.3,0.1,0.5c0.1,0.1,0.3,0.1,0.5,0.1h3.3c0.2,0,0.4,0,0.5-0.1c0.1-0.1,0.1-0.3,0.1-0.5c0-3.2,0-6.5,0-9.7
		C174.3,34.4,174.3,33.7,174.2,32.9z M159.5,28.8c1.3-0.8,2.9-1.2,4.5-0.9c1.4,0.2,2.7,0.9,3.6,2c0.9,1,1.4,2.2,1.6,3.4h-12.5
		C156.9,31.4,157.9,29.8,159.5,28.8z"/>
</g>
</svg>
