<?xml version="1.0" encoding="utf-8"?>
<!-- Generator: Adobe Illustrator 26.0.1, SVG Export Plug-In . SVG Version: 6.00 Build 0)  -->
<svg version="1.1" id="Layer_1" xmlns="http://www.w3.org/2000/svg" xmlns:xlink="http://www.w3.org/1999/xlink" x="0px" y="0px"
	 viewBox="0 0 233.5 80.5" style="enable-background:new 0 0 233.5 80.5;" xml:space="preserve">
<style type="text/css">
	.st0{fill:none;stroke:url(#SVGID_1_);stroke-width:0.5;stroke-miterlimit:10;}
	.st1{fill:none;stroke:#00E9BA;stroke-width:0.5;stroke-miterlimit:10;}
	.st2{fill:#FFFFFF;}
	.st3{clip-path:url(#SVGID_00000018197446002178091100000010738801080563273095_);fill:#FFFFFF;}
	.st4{fill-rule:evenodd;clip-rule:evenodd;fill:#FFFFFF;}
</style>
<g>
	<path class="st2" d="M49,20.5c-0.1,1.3-0.2,2.6-0.2,3.9c2,0,4.1,0,6.1,0c0,0.7,0,1.4,0,2c-2,0-4.1,0-6.1,0c-0.1,1.3-0.2,2.7-0.1,4
		c0.2,4-0.2,7.9,0,11.9c-0.8,0-1.6,0-2.3,0c0-5.3,0-10.6,0-15.9c-1.5,0-3.1,0-4.6,0c0-0.7,0-1.3,0-2c1.5,0,3.1-0.1,4.6-0.2
		c0.1-1.8-0.1-4.7,1.6-5.9c2.4-1.7,5-1,7.6-0.3c-0.2,0.6-0.4,1.3-0.6,1.9C52.7,19.5,51,19,49,20.5z"/>
	<path class="st2" d="M67.5,39.3c-2-1.5-2.3-3.6-2.7-6c4.3-0.1,8.6,0,12.8-0.1c-0.1-3.1-0.6-6.1-3.3-8c-3.5-2.6-9-1.2-10.9,2.7
		c-1.8,3.7-1.7,9.3,1.4,12.4c2.9,3,8.2,3,11.8,1.4c0-0.6-0.1-1.3-0.2-1.9C73.8,40.6,69.9,41.5,67.5,39.3z M66.5,27.7
		c1.5-1.7,4.4-2.4,6.3-0.9c1.5,1.1,1.8,2.7,2.2,4.4c-3.3,0.1-6.6,0.1-9.9,0C65.4,30.1,65.7,28.7,66.5,27.7z"/>
	<path class="st2" d="M99,24.7c-0.3,0.7-0.6,1.5-0.9,2.2c-2.2-0.3-4-1-6,0.4C90.7,28.4,89,30,89.3,32c0,3.5,0,6.9,0,10.4
		c-0.8,0-1.7,0-2.5,0c0-6,0-12,0-17.9c0.8,0,1.7,0,2.5,0c0,1.2,0,2.3,0,3.5c1.2-1.3,2.2-2.9,3.9-3.6C95.1,23.5,97.1,24.1,99,24.7z"
		/>
	<path class="st2" d="M121.8,28.9c0,4.5,0,9,0,13.4c-0.8,0-1.6,0-2.4,0c0-4.1,0-8.3,0-12.4c-0.1-1.4-0.1-2.9-1.3-3.9
		c-0.8-0.1-1.1,0-1.6,0.5c-1,1.1-1.9,2.3-1.8,3.9c0,4,0,7.9,0,11.9c-0.8,0-1.7,0-2.5,0c0-2.9,0-5.9,0-8.8c0-2.7,0.3-5.1-0.9-7.6
		c-2.2-0.1-3.9,2.5-3.8,4.5c0,4,0,7.9,0,11.9c-0.8,0-1.6,0-2.4,0c0-6,0-12,0-17.9c0.8,0,1.5,0,2.3,0c0,0.9,0,1.7,0.1,2.6
		c1.1-1.2,2.3-3.2,4.2-3c1.8,0.2,2.3,1.6,3.1,3c0.7-0.9,1.5-1.9,2.5-2.6c0.9-0.5,2.2-0.6,3,0.1C121.6,25.5,121.7,27.3,121.8,28.9z"
		/>
	<path class="st2" d="M137.5,24.4c0,6,0,12,0,17.9c-0.8,0-1.7,0-2.5,0c0-5.3,0-10.6,0-15.9c-1.8,0-3.6,0-5.4,0c0-0.7,0-1.4,0-2
		C132.2,24.4,134.9,24.4,137.5,24.4z"/>
	<path class="st2" d="M137.9,19.8c-0.5,0.6-1.2,0.9-1.9,1.3c-0.6-0.6-1.3-1.2-1.8-1.9c0.5-0.8,0.9-1.7,1.9-2
		C137.5,17.5,138.2,18.5,137.9,19.8z"/>
	<path class="st2" d="M164.7,31.5c-0.2-2.3-1.2-4.5-3-6c-2-1.6-4.9-1.9-7.3-1.3c-2.4,0.7-4.3,2.6-5.1,5c-1.3,3.6-0.9,8.6,1.9,11.4
		c3.2,3.2,9.2,3,11.8-0.8C164.8,37.3,164.8,34.5,164.7,31.5z M160,39.5c-1.3,1.3-3.1,1.3-4.8,1c-1.6-0.5-2.6-1.8-3.2-3.3
		c-1.1-2.8-1-5.9,0.3-8.6c0.6-1.2,1.7-2.2,3-2.5c1.5-0.3,3.1-0.2,4.4,0.8c1.3,0.9,2,2.6,2.3,4C162.5,33.9,162.3,37.3,160,39.5z"/>
	<path class="st2" d="M185.4,30.5c0,4,0,7.9,0,11.9c-0.8,0-1.6,0-2.4,0c0-4.1,0.1-8.3,0-12.4c0-1.5-0.5-3.1-2-3.7
		c-2.4-0.9-4.7,0.7-6.3,2.3c-0.7,0.7-0.6,1.5-0.7,2.5c0,3.8,0,7.6,0,11.4h-2.4c0-6,0-12,0-17.9c0.8,0,1.6,0,2.4,0c0,0.8,0,1.7,0,2.5
		c1.7-1.2,3.1-2.5,5.2-2.9c1.7-0.3,3.5-0.1,4.8,1.1C185.2,26.6,185.4,28.6,185.4,30.5z"/>
	<path class="st2" d="M30.6,41.5c-3.2,2-6.8,1.5-10.2,0.2c0.2-0.8,0.4-1.5,0.6-2.3c1.9,0.7,3.8,1.3,5.8,1.1c2-0.1,4-1.5,4.4-3.5
		c0.3-1.5,0.2-3.2-1-4.4c-1.8-1.8-4.7-2.5-6.9-3.9c-1.7-1.1-2.7-2.4-3.2-4.4v-1.1c0.3-2.5,1.7-4.4,4.1-5.2c2.8-1.2,5.5-0.7,8.4,0
		c-0.2,0.7-0.4,1.4-0.6,2.2c-2.5-0.6-4.8-1.2-7.3,0c-2.1,1-2.7,3.9-1.1,5.6c2.2,2.3,6.2,2.8,8.5,5.3C35,34.1,34.1,39.6,30.6,41.5z"
		/>
	<path class="st2" d="M48.8,24.4c2,0,4.1,0,6.1,0c0,0.7,0,1.4,0,2c-2,0-4.1,0-6.1,0c-0.1,1.3-0.2,2.7-0.1,4c0.2,4-0.2,7.9,0,11.9
		c-0.8,0-1.6,0-2.3,0c0-5.3,0-10.6,0-15.9c-1.5,0-3.1,0-4.6,0c0-0.7,0-1.3,0-2c1.5,0,3.1-0.1,4.6-0.2c0.1-1.8-0.1-4.7,1.6-5.9
		c2.4-1.7,5-1,7.6-0.3c-0.2,0.6-0.4,1.3-0.6,1.9c-2.2-0.4-4-1-5.9,0.5C48.9,21.8,48.8,23.1,48.8,24.4z"/>
	<path class="st2" d="M137.9,19.8c-0.5,0.6-1.2,0.9-1.9,1.3c-0.6-0.6-1.3-1.2-1.8-1.9c0.5-0.8,0.9-1.7,1.9-2
		C137.5,17.5,138.2,18.5,137.9,19.8z"/>
	<path class="st2" d="M67.5,39.3c-2-1.5-2.3-3.6-2.7-6c4.3-0.1,8.6,0,12.8-0.1c-0.1-3.1-0.6-6.1-3.3-8c-3.5-2.6-9-1.2-10.9,2.7
		c-1.8,3.7-1.7,9.3,1.4,12.4c2.9,3,8.2,3,11.8,1.4c0-0.6-0.1-1.3-0.2-1.9C73.8,40.6,69.9,41.5,67.5,39.3z M66.5,27.7
		c1.5-1.7,4.4-2.4,6.3-0.9c1.5,1.1,1.8,2.7,2.2,4.4c-3.3,0.1-6.6,0.1-9.9,0C65.4,30.1,65.7,28.7,66.5,27.7z"/>
	<path class="st2" d="M99,24.7c-0.3,0.7-0.6,1.5-0.9,2.2c-2.2-0.3-4-1-6,0.4C90.7,28.4,89,30,89.3,32c0,3.5,0,6.9,0,10.4
		c-0.8,0-1.7,0-2.5,0c0-6,0-12,0-17.9c0.8,0,1.7,0,2.5,0c0,1.2,0,2.3,0,3.5c1.2-1.3,2.2-2.9,3.9-3.6C95.1,23.5,97.1,24.1,99,24.7z"
		/>
	<path class="st2" d="M121.8,42.4c-0.8,0-1.6,0-2.4,0c0-4.1,0-8.3,0-12.4c-0.1-1.4-0.1-2.9-1.3-3.9c-0.8-0.1-1.1,0-1.6,0.5
		c-1,1.1-1.9,2.3-1.8,3.9c0,4,0,7.9,0,11.9c-0.8,0-1.7,0-2.5,0c0-2.9,0-5.9,0-8.8c0-2.7,0.3-5.1-0.9-7.6c-2.2-0.1-3.9,2.5-3.8,4.5
		c0,4,0,7.9,0,11.9c-0.8,0-1.6,0-2.4,0c0-6,0-12,0-17.9c0.8,0,1.5,0,2.3,0c0,0.9,0,1.7,0.1,2.6c1.1-1.2,2.3-3.2,4.2-3
		c1.8,0.2,2.3,1.6,3.1,3c0.7-0.9,1.5-1.9,2.5-2.6c0.9-0.5,2.2-0.6,3,0.1c1.4,1,1.5,2.9,1.6,4.5C121.8,33.4,121.8,37.9,121.8,42.4z"
		/>
	<path class="st2" d="M164.7,31.5c-0.2-2.3-1.2-4.5-3-6c-2-1.6-4.9-1.9-7.3-1.3c-2.4,0.7-4.3,2.6-5.1,5c-1.3,3.6-0.9,8.6,1.9,11.4
		c3.2,3.2,9.2,3,11.8-0.8C164.8,37.3,164.8,34.5,164.7,31.5z M160,39.5c-1.3,1.3-3.1,1.3-4.8,1c-1.6-0.5-2.6-1.8-3.2-3.3
		c-1.1-2.8-1-5.9,0.3-8.6c0.6-1.2,1.7-2.2,3-2.5c1.5-0.3,3.1-0.2,4.4,0.8c1.3,0.9,2,2.6,2.3,4C162.5,33.9,162.3,37.3,160,39.5z"/>
	<path class="st2" d="M185.4,30.5c0,4,0,7.9,0,11.9c-0.8,0-1.6,0-2.4,0c0-4.1,0.1-8.3,0-12.4c0-1.5-0.5-3.1-2-3.7
		c-2.4-0.9-4.7,0.7-6.3,2.3c-0.7,0.7-0.6,1.5-0.7,2.5c0,3.8,0,7.6,0,11.4h-2.4c0-6,0-12,0-17.9c0.8,0,1.6,0,2.4,0c0,0.8,0,1.7,0,2.5
		c1.7-1.2,3.1-2.5,5.2-2.9c1.7-0.3,3.5-0.1,4.8,1.1C185.2,26.6,185.4,28.6,185.4,30.5z"/>
	<path class="st2" d="M137.5,42.4c-0.8,0-1.7,0-2.5,0c0-5.3,0-10.6,0-15.9c-1.8,0-3.6,0-5.4,0c0-0.7,0-1.4,0-2c2.6,0,5.3,0,7.9,0
		C137.5,30.4,137.5,36.4,137.5,42.4z"/>
	<path class="st2" d="M213.4,61.4v1.8h-95.2c-0.1-0.6-0.1-1.2-0.2-1.8c30.6-0.1,61.3,0,91.9,0C211,61.3,212.2,61.3,213.4,61.4z"/>
</g>
</svg>
