<?xml version="1.0" encoding="utf-8"?>
<!-- Generator: Adobe Illustrator 26.0.1, SVG Export Plug-In . SVG Version: 6.00 Build 0)  -->
<svg version="1.1" id="Layer_1" xmlns="http://www.w3.org/2000/svg" xmlns:xlink="http://www.w3.org/1999/xlink" x="0px" y="0px"
	 viewBox="0 0 233.5 80.5" style="enable-background:new 0 0 233.5 80.5;" xml:space="preserve">
<style type="text/css">
	.st0{fill:none;stroke:url(#SVGID_1_);stroke-width:0.5;stroke-miterlimit:10;}
	.st1{fill:none;stroke:#00E9BA;stroke-width:0.5;stroke-miterlimit:10;}
	.st2{fill:#FFFFFF;}
	.st3{clip-path:url(#SVGID_00000005224905744964179720000010647040606732684205_);fill:#FFFFFF;}
	.st4{fill-rule:evenodd;clip-rule:evenodd;fill:#FFFFFF;}
</style>
<g>
	<path class="st2" d="M51.9,61c-2.3,0.5-4.8,1.5-7.1,1.4c-2.2-0.1-4.3-0.9-5.8-2.6c-1.5-1.7-2.1-4.2-2-6.4c0.1-2,0.5-4,1.8-5.5
		c1.6-2,4-2.8,6.5-2.9c2.3-0.1,4.2,0.8,6.4,1.4c-0.1,1.3-0.1,2.6-0.2,3.9c-1.1-1.4-1.7-3-3.4-3.8c-1.8-0.9-4-0.6-5.3,1
		c-1.4,1.8-1.7,4.3-1.7,6.5c0,2.1,0.4,4.3,1.7,6c1.6,2.1,5.2,1.9,6.8-0.1c0.7-0.9,1.2-2,2.1-2.8C51.9,58.4,51.9,59.7,51.9,61z"/>
	<path class="st2" d="M38.7,32.9c0-4.9,0-9.8,0-14.7l-1.4,0l-0.1-1c1.9,0,3.9,0,5.8,0c1.9,4.1,4,8.2,5.9,12.3c2-4,3.6-8.3,5.7-12.2
		c1.7-0.2,3.4-0.1,5.1-0.1c0,0.2,0,0.5,0.1,0.7c-0.5,0.2-0.9,0.4-1.4,0.6c-0.1,4.7,0,9.5,0,14.3c0.7,0.2,1.4,0.5,2.2,0.8
		c-2.5,0.9-5.4,0.3-8,0.4l0-1c0.6,0,1.3,0,1.9,0c0-4.4,0-8.7,0-13.1c-1.4,3.4-3,6.7-4.5,10.1c-0.8,1.7-1.3,3.3-2.6,4.7
		c-2.7-5-4.9-10.3-7.5-15.4c0,4.5,0,9.1,0,13.6c0.6,0,1.3,0.1,1.9,0.1l0,1h-4.7l0-1C37.6,32.9,38.2,32.9,38.7,32.9z"/>
	<path class="st2" d="M68.3,59.6c-2.1-4.9-4-9.9-6.2-14.7c-1.8,0-1.6,1.2-2.3,2.5c-1.4,3.4-2.8,6.8-4.2,10.2c-0.4,1-0.9,2.2-1.5,3.1
		c-0.8,0.4-1.6,0.7-2.4,1c1.9,0.6,3.7,0.4,5.7,0.4l0-1c-0.7,0-1.4,0-2,0c0.3-1.5,0.9-2.9,1.5-4.3h6.3c0.6,1.3,1.1,2.7,1.4,4.1
		c-0.8,0.1-1.5,0.1-2.3,0.1l0,1c2.4,0,4.8,0.1,7.1,0c0.5,0,1-0.1,1.3-0.4C69.7,60.9,68.7,60.8,68.3,59.6z M57.2,55.9
		c0.7-1.6,1.4-3.2,2-4.9c0.2-0.6,0.4-1.1,0.6-1.7c0.9,2.2,1.9,4.3,2.7,6.5C60.8,55.9,59,55.9,57.2,55.9z"/>
	<path class="st2" d="M62,17.2c4.3-0.1,8.7,0,13-0.1c-0.1,1.6,0.3,3.5-0.5,4.8c-0.5-1-0.7-2.6-1.7-3.2c-1.5-0.8-3.7-0.5-5.3-0.6
		c0,2.2,0,4.5,0,6.7c1-0.1,2.3,0.1,3.2-0.4c0.7-0.9,1.2-2,1.8-2.9c0.3,2.5,0.2,5,0,7.4c-0.8-1-1.3-2.3-2.3-3.1
		c-0.9-0.2-1.9-0.2-2.8-0.2c0,2.4,0,4.8,0,7.2c1.8-0.1,3.9,0.3,5.5-0.4c1.5-0.8,1.6-2.1,1.9-3.6c0.3,0,0.6,0,0.9,0
		c0,1.7,0,3.4,0,5.1c-4.6-0.1-9.2,0.1-13.8-0.1c-0.1-1.2,0.8-0.8,1.6-1.2c0-4.7,0-9.5,0-14.2C62.8,18.1,62,18.3,62,17.2z"/>
	<path class="st2" d="M83.7,46.7c-1.5-1.5-4.2-1.4-6.1-1.5c-2,0.1-4.1-0.1-6,0.1l-0.6,0.7c0.6,0.1,1.2,0.2,1.8,0.3
		c0,4.8,0,9.5,0,14.3c-0.5,0.3-1.1,0.6-1.6,0.9l0.7,0.4c2.2,0.2,4.5,0,6.7,0.1v-1c-0.6,0-1.3,0-1.9,0c0-2,0-4,0-6
		c1.9,0,4.3,0.2,5.9-0.8C85.1,52.9,85.6,48.9,83.7,46.7z M79.6,53.4c-0.7,0.8-2,0.6-3,0.7c0-2.6-0.1-5.3,0-7.9
		c1.2,0,2.2-0.2,3.1,0.7C81.2,48.7,81.1,51.9,79.6,53.4z"/>
	<path class="st2" d="M92.8,32.9c-2.3,0.5-4.8,1.5-7.1,1.3c-2.2-0.1-4.3-1-5.8-2.6c-1.3-1.5-1.9-3.4-2-5.3c-0.1-2.4,0.4-5,2-6.8
		c1.6-1.8,3.9-2.5,6.3-2.6c2.3-0.1,4.2,0.8,6.5,1.4c-0.1,1.3-0.1,2.6-0.2,3.9c-1.1-1.4-1.7-3.1-3.4-3.9c-1.7-0.9-3.7-0.6-5,0.7
		c-1.4,1.4-1.8,3.8-1.9,5.8c-0.1,2.3,0.2,5.1,1.7,7c1.5,1.8,4.2,2,6,0.7c1.3-0.9,1.7-2.5,3-3.5C92.8,30.2,92.8,31.6,92.8,32.9z"/>
	<path class="st2" d="M93.5,62c-2.2,0.1-4.4,0.2-6.6,0l-0.6-0.8c0.6-0.1,1.2-0.2,1.8-0.2c0-4.9,0-9.7,0-14.6c-0.6,0-1.1-0.1-1.7-0.1
		c0.2-0.3,0.3-0.6,0.5-0.8c2.2-0.2,4.4,0,6.6-0.1c0,0.3,0.1,0.7,0.1,1c-0.5,0-1,0.1-1.5,0.1c0,4.8,0,9.6,0,14.4
		C92.8,61.2,93.6,60.8,93.5,62z"/>
	<path class="st2" d="M104.2,61.1c0.7,0,1.3,0,2,0v1c-2.8-0.2-6,0.5-8.6-0.5c0.9-0.3,1.7-0.5,2.6-0.7c0.1-4.9,0.1-9.8,0-14.7
		c-1.1,0.2-2.8,0.1-3.5,1c-0.6,1-0.9,2-1.6,3C95,48.5,95,46.9,95,45.3c4.8,0,9.7,0,14.5,0c0,1.6,0,3.2-0.2,4.8c-0.6-1-1-2.3-1.7-3.2
		c-0.9-0.6-2.3-0.6-3.3-0.8C104.2,51.1,104.2,56.1,104.2,61.1z"/>
	<path class="st2" d="M102.2,34h-7.3l0-1h1.5c0-4.9,0-9.8,0-14.7c-0.5,0-1-0.1-1.5-0.1l0-1c2.5,0,4.9,0,7.3,0l0,1
		c-0.6,0-1.3,0-1.9,0c-0.1,2.2,0,4.5,0,6.7c2.2,0,4.4,0,6.6,0c0-2.2,0-4.4,0-6.6c-0.7,0-1.5-0.1-2.2-0.1c0.2-0.3,0.4-0.6,0.5-0.9
		c2.3-0.2,4.7,0,7-0.1c0,0.3,0,0.7,0,1c-0.5,0-1,0.1-1.5,0.1c0,4.9,0,9.7,0,14.6c0.6,0.1,1.3,0.3,1.9,0.4c-0.8,1-1.8,0.7-2.9,0.8
		c-1.8-0.1-3.8,0.2-5.4-0.5c0.8-0.3,1.7-0.5,2.6-0.7c0-2.3,0-4.6,0-6.8c-2.2,0-4.4,0-6.6,0c0,2.3,0,4.7,0,7c0.6,0,1.3,0.1,1.9,0.1
		L102.2,34z"/>
	<path class="st2" d="M124.5,61c-2.6-5-4.4-10.5-6.8-15.6c-0.3-0.2-0.8-0.4-1.4-0.5c-2.3,5.3-4.3,10.8-6.8,16
		c-0.8,0.2-1.5,0.4-2.2,0.6c1.5,1.1,3.9,0.5,5.6,0.6v-1c-0.7,0-1.3,0-2,0.1c0.3-1.5,0.8-2.9,1.5-4.3c2.1,0,4.1,0,6.2,0
		c0.5,1.3,1.2,2.5,1.4,3.9c-0.9,0.3-1.8,0.5-2.6,0.8c0.5,0.3,1.1,0.5,1.7,0.5c2.3,0,4.7,0.1,7-0.1l0.3-0.8
		C125.7,61.1,125.1,61,124.5,61z M112.7,55.9c0.9-2.1,1.8-4.3,2.7-6.4c0.9,2.2,1.8,4.3,2.7,6.4C116.3,55.9,114.5,55.9,112.7,55.9z"
		/>
	<path class="st2" d="M129.5,32.6c-0.6-0.8-1-1.7-1.4-2.6c-1.8-4.3-3.6-8.6-5.4-12.9c-0.4-0.1-0.9-0.1-1.4-0.1
		c-2.6,5.2-4.3,10.9-7.1,16.1c-0.5,0-1,0-1.5,0v1h5.1v-1c-0.7-0.1-1.4-0.1-2.1-0.2c0.5-1.4,1-2.7,1.5-4.1c2.1,0,4.1,0,6.2,0
		c0.6,1.4,1.2,2.8,1.4,4.2c-0.7,0-1.5,0-2.2,0l0,1c2.3,0,4.7,0,7,0c0.8,0,1.3-0.2,1.9-0.5C130.9,33.2,130.2,32.9,129.5,32.6z
		 M117.8,27.8c0.8-2.2,1.7-4.3,2.7-6.4c0.9,2.1,1.8,4.3,2.7,6.4C121.3,27.8,119.6,27.8,117.8,27.8z"/>
	<path class="st2" d="M139.4,62.1c-3.8-0.1-7.5,0-11.3,0c-0.6,0-1.1-0.1-1.4-0.5c0.5-0.3,1-0.6,1.5-0.8c0-4.8,0-9.5,0-14.3
		c-0.5-0.1-1.1-0.2-1.6-0.3l0.3-0.8c2.4-0.2,4.8,0,7.2-0.1c0,0.3,0,0.7,0,1c-0.6,0-1.3,0-1.9,0c0,4.9,0,9.8,0,14.7
		c1.5-0.1,3.4,0.2,4.8-0.4c1.4-0.8,1.4-2.4,2-3.8C139.7,58.3,139.4,60.4,139.4,62.1z"/>
	<path class="st2" d="M144,17.2h4.7l-0.1,0.8c-0.5,0-1,0-1.5,0c0,5.4,0,10.8,0,16.1c-0.6,0-1.1,0-1.7,0c-3.7-5-7.3-9.9-11-14.9
		c0,4.6,0,9.3,0,13.9c0.8,0.1,1.5,0.1,2.3,0.2c-1.2,1.1-3.6,0.5-5.1,0.6l0-0.8c0.5,0,1,0,1.6-0.1c0-5,0-10,0-15
		c-0.5-0.1-0.9-0.2-1.4-0.3l-0.5-0.6c2-0.1,4-0.1,6-0.1c2.9,3.9,5.7,7.8,8.6,11.7c0-3.6,0-7.2,0-10.8c-0.6,0-1.3,0-1.9,0V17.2z"/>
	<path class="st2" d="M156.2,18.4c-0.2,4.8-0.1,9.7,0,14.6c0.5,0,1,0,1.5,0l0,1c-2.2,0-4.3,0.1-6.5-0.1c-0.3-0.1-0.6-0.4-0.9-0.7
		c0.6-0.1,1.3-0.2,1.9-0.4c0-4.8,0-9.7,0-14.5l-1.4-0.3l-0.4-0.8c2.4-0.1,4.8-0.1,7.2,0l0,0.8L156.2,18.4z"/>
	<path class="st2" d="M171.4,26.4c1.5,2.6,0.2,6.3-2.7,7.3c-3.1,1.2-5.6-0.2-8.7-0.4c0.1-1.7,0-3.3-0.1-5l0.6-0.1
		c0.3,1,0.6,2.2,1.2,3.1c1.2,1.7,3.6,2.3,5.5,1.5c1.6-0.9,1.9-3.2,0.5-4.4c-1.8-1.6-5.2-1.9-6.9-3.9c-1.9-2.5-0.6-6.5,2.5-7.3
		c2.9-0.9,5,0.2,7.7,0.8c0,1.4,0,2.8-0.1,4.2c-0.9-1.3-1.4-3.1-2.8-3.9c-1.6-0.8-4.3-0.6-5,1.3c-0.4,1.2,0.3,2.3,1.3,2.8
		C167,23.8,169.8,24.2,171.4,26.4z"/>
	<path class="st2" d="M196.6,34c-2.6-0.1-5.6,0.4-8-0.5c0.8-0.3,1.7-0.5,2.6-0.7c0.1-4.3,0-8.6,0-12.8c-1.9,4.2-3.8,8.4-5.7,12.6
		c-0.5,0.8-0.4,1.8-1.7,1.7c-2.5-5-4.9-10.1-7.2-15.1c0,4.5,0,9.1,0,13.6c0.8,0.2,1.7,0.4,2.5,0.7c-1.7,0.8-3.5,0.5-5.3,0.5l0-1
		c0.5,0,1.1,0,1.6,0c0-4.9,0-9.9,0-14.8l-1.4,0l0-1c1.9,0,3.8,0,5.7,0c2.1,4,4,8.2,6,12.3c1.8-4.1,3.7-8.2,5.5-12.3
		c1.8,0,3.5,0,5.3,0l0,0.8l-1.4,0.4c-0.2,4.8-0.1,9.7,0,14.6c0.5,0,1,0,1.5,0L196.6,34z"/>
	<path class="st2" d="M196.7,12.1c-1.5,0.3-3.2,0.1-4.7,0.2c-51.7,0-103.5,0-155.2,0c-0.2-0.3-0.5-0.6-0.7-0.9v-1.2
		c1.9-0.7,3.6-0.4,5.6-0.5c49.9,0,99.8,0,149.8,0c1.6,0,3.3-0.1,4.9,0.1C197.4,9.9,197.8,11.7,196.7,12.1z"/>
	<path class="st2" d="M60.5,33.5c-2.5,0.9-5.4,0.3-8,0.4l0-1c0.6,0,1.3,0,1.9,0c0-4.4,0-8.7,0-13.1c-1.4,3.4-3,6.7-4.5,10.1
		c-0.8,1.7-1.3,3.3-2.6,4.7c-2.7-5-4.9-10.3-7.5-15.4c0,4.5,0,9.1,0,13.6c0.6,0,1.3,0.1,1.9,0.1l0,1h-4.7l0-1c0.6,0,1.1-0.1,1.7-0.1
		c0-4.9,0-9.8,0-14.7l-1.4,0l-0.1-1c1.9,0,3.9,0,5.8,0c1.9,4.1,4,8.2,5.9,12.3c2-4,3.6-8.3,5.7-12.2c1.7-0.2,3.4-0.1,5.1-0.1
		c0,0.2,0,0.5,0.1,0.7c-0.5,0.2-0.9,0.4-1.4,0.6c-0.1,4.7,0,9.5,0,14.3C59.1,33,59.8,33.2,60.5,33.5z"/>
	<path class="st2" d="M75.8,28.9c0,1.7,0,3.4,0,5.1c-4.6-0.1-9.2,0.1-13.8-0.1c-0.1-1.2,0.8-0.8,1.6-1.2c0-4.7,0-9.5,0-14.2
		c-0.8-0.4-1.6-0.2-1.6-1.2c4.3-0.1,8.7,0,13-0.1c-0.1,1.6,0.3,3.5-0.5,4.8c-0.5-1-0.7-2.6-1.7-3.2c-1.5-0.8-3.7-0.5-5.3-0.6
		c0,2.2,0,4.5,0,6.7c1-0.1,2.3,0.1,3.2-0.4c0.7-0.9,1.2-2,1.8-2.9c0.3,2.5,0.2,5,0,7.4c-0.8-1-1.3-2.3-2.3-3.1
		c-0.9-0.2-1.9-0.2-2.8-0.2c0,2.4,0,4.8,0,7.2c1.8-0.1,3.9,0.3,5.5-0.4c1.5-0.8,1.6-2.1,1.9-3.6C75.2,28.9,75.5,28.9,75.8,28.9z"/>
	<path class="st2" d="M92.8,32.9c-2.3,0.5-4.8,1.5-7.1,1.3c-2.2-0.1-4.3-1-5.8-2.6c-1.3-1.5-1.9-3.4-2-5.3c-0.1-2.4,0.4-5,2-6.8
		c1.6-1.8,3.9-2.5,6.3-2.6c2.3-0.1,4.2,0.8,6.5,1.4c-0.1,1.3-0.1,2.6-0.2,3.9c-1.1-1.4-1.7-3.1-3.4-3.9c-1.7-0.9-3.7-0.6-5,0.7
		c-1.4,1.4-1.8,3.8-1.9,5.8c-0.1,2.3,0.2,5.1,1.7,7c1.5,1.8,4.2,2,6,0.7c1.3-0.9,1.7-2.5,3-3.5C92.8,30.2,92.8,31.6,92.8,32.9z"/>
	<path class="st2" d="M112.6,33.2c-0.8,1-1.8,0.7-2.9,0.8c-1.8-0.1-3.8,0.2-5.4-0.5c0.8-0.3,1.7-0.5,2.6-0.7c0-2.3,0-4.6,0-6.8
		c-2.2,0-4.4,0-6.6,0c0,2.3,0,4.7,0,7c0.6,0,1.3,0.1,1.9,0.1l0,1h-7.3l0-1h1.5c0-4.9,0-9.8,0-14.7c-0.5,0-1-0.1-1.5-0.1l0-1
		c2.5,0,4.9,0,7.3,0l0,1c-0.6,0-1.3,0-1.9,0c-0.1,2.2,0,4.5,0,6.7c2.2,0,4.4,0,6.6,0c0-2.2,0-4.4,0-6.6c-0.7,0-1.5-0.1-2.2-0.1
		c0.2-0.3,0.4-0.6,0.5-0.9c2.3-0.2,4.7,0,7-0.1c0,0.3,0,0.7,0,1c-0.5,0-1,0.1-1.5,0.1c0,4.9,0,9.7,0,14.6
		C111.4,33,112,33.1,112.6,33.2z"/>
	<path class="st2" d="M129.5,32.6c-0.6-0.8-1-1.7-1.4-2.6c-1.8-4.3-3.6-8.6-5.4-12.9c-0.4-0.1-0.9-0.1-1.4-0.1
		c-2.6,5.2-4.3,10.9-7.1,16.1c-0.5,0-1,0-1.5,0v1h5.1v-1c-0.7-0.1-1.4-0.1-2.1-0.2c0.5-1.4,1-2.7,1.5-4.1c2.1,0,4.1,0,6.2,0
		c0.6,1.4,1.2,2.8,1.4,4.2c-0.7,0-1.5,0-2.2,0l0,1c2.3,0,4.7,0,7,0c0.8,0,1.3-0.2,1.9-0.5C130.9,33.2,130.2,32.9,129.5,32.6z
		 M117.8,27.8c0.8-2.2,1.7-4.3,2.7-6.4c0.9,2.1,1.8,4.3,2.7,6.4C121.3,27.8,119.6,27.8,117.8,27.8z"/>
	<path class="st2" d="M148.7,17.2l-0.1,0.8c-0.5,0-1,0-1.5,0c0,5.4,0,10.8,0,16.1c-0.6,0-1.1,0-1.7,0c-3.7-5-7.3-9.9-11-14.9
		c0,4.6,0,9.3,0,13.9c0.8,0.1,1.5,0.1,2.3,0.2c-1.2,1.1-3.6,0.5-5.1,0.6l0-0.8c0.5,0,1,0,1.6-0.1c0-5,0-10,0-15
		c-0.5-0.1-0.9-0.2-1.4-0.3l-0.5-0.6c2-0.1,4-0.1,6-0.1c2.9,3.9,5.7,7.8,8.6,11.7c0-3.6,0-7.2,0-10.8c-0.6,0-1.3,0-1.9,0v-0.8H148.7
		z"/>
	<path class="st2" d="M168.8,33.8c-3.1,1.2-5.6-0.2-8.7-0.4c0.1-1.7,0-3.3-0.1-5l0.6-0.1c0.3,1,0.6,2.2,1.2,3.1
		c1.2,1.7,3.6,2.3,5.5,1.5c1.6-0.9,1.9-3.2,0.5-4.4c-1.8-1.6-5.2-1.9-6.9-3.9c-1.9-2.5-0.6-6.5,2.5-7.3c2.9-0.9,5,0.2,7.7,0.8
		c0,1.4,0,2.8-0.1,4.2c-0.9-1.3-1.4-3.1-2.8-3.9c-1.6-0.8-4.3-0.6-5,1.3c-0.4,1.2,0.3,2.3,1.3,2.8c2.3,1.3,5.1,1.7,6.8,4
		C173,29,171.7,32.8,168.8,33.8z"/>
	<path class="st2" d="M157.6,32.9l0,1c-2.2,0-4.3,0.1-6.5-0.1c-0.3-0.1-0.6-0.4-0.9-0.7c0.6-0.1,1.3-0.2,1.9-0.4c0-4.8,0-9.7,0-14.5
		l-1.4-0.3l-0.4-0.8c2.4-0.1,4.8-0.1,7.2,0l0,0.8l-1.5,0.4c-0.2,4.8-0.1,9.7,0,14.6C156.6,33,157.1,33,157.6,32.9z"/>
	<path class="st2" d="M196.6,34c-2.6-0.1-5.6,0.4-8-0.5c0.8-0.3,1.7-0.5,2.6-0.7c0.1-4.3,0-8.6,0-12.8c-1.9,4.2-3.8,8.4-5.7,12.6
		c-0.5,0.8-0.4,1.8-1.7,1.7c-2.5-5-4.9-10.1-7.2-15.1c0,4.5,0,9.1,0,13.6c0.8,0.2,1.7,0.4,2.5,0.7c-1.7,0.8-3.5,0.5-5.3,0.5l0-1
		c0.5,0,1.1,0,1.6,0c0-4.9,0-9.9,0-14.8l-1.4,0l0-1c1.9,0,3.8,0,5.7,0c2.1,4,4,8.2,6,12.3c1.8-4.1,3.7-8.2,5.5-12.3
		c1.8,0,3.5,0,5.3,0l0,0.8l-1.4,0.4c-0.2,4.8-0.1,9.7,0,14.6c0.5,0,1,0,1.5,0L196.6,34z"/>
	<path class="st2" d="M51.9,61c-2.3,0.5-4.8,1.5-7.1,1.4c-2.2-0.1-4.3-0.9-5.8-2.6c-1.5-1.7-2.1-4.2-2-6.4c0.1-2,0.5-4,1.8-5.5
		c1.6-2,4-2.8,6.5-2.9c2.3-0.1,4.2,0.8,6.4,1.4c-0.1,1.3-0.1,2.6-0.2,3.9c-1.1-1.4-1.7-3-3.4-3.8c-1.8-0.9-4-0.6-5.3,1
		c-1.4,1.8-1.7,4.3-1.7,6.5c0,2.1,0.4,4.3,1.7,6c1.6,2.1,5.2,1.9,6.8-0.1c0.7-0.9,1.2-2,2.1-2.8C51.9,58.4,51.9,59.7,51.9,61z"/>
	<path class="st2" d="M68.3,59.6c-2.1-4.9-4-9.9-6.2-14.7c-1.8,0-1.6,1.2-2.3,2.5c-1.4,3.4-2.8,6.8-4.2,10.2c-0.4,1-0.9,2.2-1.5,3.1
		c-0.8,0.4-1.6,0.7-2.4,1c1.9,0.6,3.7,0.4,5.7,0.4l0-1c-0.7,0-1.4,0-2,0c0.3-1.5,0.9-2.9,1.5-4.3h6.3c0.6,1.3,1.1,2.7,1.4,4.1
		c-0.8,0.1-1.5,0.1-2.3,0.1l0,1c2.4,0,4.8,0.1,7.1,0c0.5,0,1-0.1,1.3-0.4C69.7,60.9,68.7,60.8,68.3,59.6z M57.2,55.9
		c0.7-1.6,1.4-3.2,2-4.9c0.2-0.6,0.4-1.1,0.6-1.7c0.9,2.2,1.9,4.3,2.7,6.5C60.8,55.9,59,55.9,57.2,55.9z"/>
	<path class="st2" d="M93.5,62c-2.2,0.1-4.4,0.2-6.6,0l-0.6-0.8c0.6-0.1,1.2-0.2,1.8-0.2c0-4.9,0-9.7,0-14.6c-0.6,0-1.1-0.1-1.7-0.1
		c0.2-0.3,0.3-0.6,0.5-0.8c2.2-0.2,4.4,0,6.6-0.1c0,0.3,0.1,0.7,0.1,1c-0.5,0-1,0.1-1.5,0.1c0,4.8,0,9.6,0,14.4
		C92.8,61.2,93.6,60.8,93.5,62z"/>
	<path class="st2" d="M109.5,45.3c0,1.6,0,3.2-0.2,4.8c-0.6-1-1-2.3-1.7-3.2c-0.9-0.6-2.3-0.6-3.3-0.8c0,5,0,10,0,14.9
		c0.7,0,1.3,0,2,0v1c-2.8-0.2-6,0.5-8.6-0.5c0.9-0.3,1.7-0.5,2.6-0.7c0.1-4.9,0.1-9.8,0-14.7c-1.1,0.2-2.8,0.1-3.5,1
		c-0.6,1-0.9,2-1.6,3C95,48.5,95,46.9,95,45.3C99.8,45.3,104.7,45.3,109.5,45.3z"/>
	<path class="st2" d="M124.5,61c-2.6-5-4.4-10.5-6.8-15.6c-0.3-0.2-0.8-0.4-1.4-0.5c-2.3,5.3-4.3,10.8-6.8,16
		c-0.8,0.2-1.5,0.4-2.2,0.6c1.5,1.1,3.9,0.5,5.6,0.6v-1c-0.7,0-1.3,0-2,0.1c0.3-1.5,0.8-2.9,1.5-4.3c2.1,0,4.1,0,6.2,0
		c0.5,1.3,1.2,2.5,1.4,3.9c-0.9,0.3-1.8,0.5-2.6,0.8c0.5,0.3,1.1,0.5,1.7,0.5c2.3,0,4.7,0.1,7-0.1l0.3-0.8
		C125.7,61.1,125.1,61,124.5,61z M112.7,55.9c0.9-2.1,1.8-4.3,2.7-6.4c0.9,2.2,1.8,4.3,2.7,6.4C116.3,55.9,114.5,55.9,112.7,55.9z"
		/>
	<path class="st2" d="M139.4,62.1c-3.8-0.1-7.5,0-11.3,0c-0.6,0-1.1-0.1-1.4-0.5c0.5-0.3,1-0.6,1.5-0.8c0-4.8,0-9.5,0-14.3
		c-0.5-0.1-1.1-0.2-1.6-0.3l0.3-0.8c2.4-0.2,4.8,0,7.2-0.1c0,0.3,0,0.7,0,1c-0.6,0-1.3,0-1.9,0c0,4.9,0,9.8,0,14.7
		c1.5-0.1,3.4,0.2,4.8-0.4c1.4-0.8,1.4-2.4,2-3.8C139.7,58.3,139.4,60.4,139.4,62.1z"/>
	<path class="st2" d="M83.7,46.7c-1.5-1.5-4.2-1.4-6.1-1.5c-2,0.1-4.1-0.1-6,0.1l-0.6,0.7c0.6,0.1,1.2,0.2,1.8,0.3
		c0,4.8,0,9.5,0,14.3c-0.5,0.3-1.1,0.6-1.6,0.9l0.7,0.4c2.2,0.2,4.5,0,6.7,0.1v-1c-0.6,0-1.3,0-1.9,0c0-2,0-4,0-6
		c1.9,0,4.3,0.2,5.9-0.8C85.1,52.9,85.6,48.9,83.7,46.7z M79.6,53.4c-0.7,0.8-2,0.6-3,0.7c0-2.6-0.1-5.3,0-7.9
		c1.2,0,2.2-0.2,3.1,0.7C81.2,48.7,81.1,51.9,79.6,53.4z"/>
	<path class="st2" d="M142.5,69.8c-1.6,1.4-3.2,0.8-5.2,1c-33.1,0-66.1,0-99.2,0c-1,0-1.3-0.1-2-0.8v-1.2c1.3-0.9,2.6-0.6,4.1-0.6
		c33.3,0,66.9,0,100.2,0C141.8,68.1,141.8,68.9,142.5,69.8z"/>
</g>
</svg>
