<?xml version="1.0" encoding="utf-8"?>
<!-- Generator: Adobe Illustrator 26.0.1, SVG Export Plug-In . SVG Version: 6.00 Build 0)  -->
<svg version="1.1" id="Layer_1" xmlns="http://www.w3.org/2000/svg" xmlns:xlink="http://www.w3.org/1999/xlink" x="0px" y="0px"
	 viewBox="0 0 233.5 80.5" style="enable-background:new 0 0 233.5 80.5;" xml:space="preserve">
<style type="text/css">
	.st0{fill:none;stroke:url(#SVGID_1_);stroke-width:0.5;stroke-miterlimit:10;}
	.st1{fill:none;stroke:#00E9BA;stroke-width:0.5;stroke-miterlimit:10;}
	.st2{fill:#171726;}
	.st3{clip-path:url(#SVGID_00000080928112576045408740000014659507952181098406_);fill:#171726;}
	.st4{fill-rule:evenodd;clip-rule:evenodd;fill:#171726;}
	.st5{fill:#FFFFFF;}
</style>
<g>
	<polygon class="st5" points="140.4,46.2 140.4,43.2 141.6,43.2 141.6,42.1 137.8,42.1 137.8,43.2 139,43.2 139,46.2 	"/>
	<path class="st5" d="M170.6,45.2h0.4l0.7,1h1.5l-0.9-1.3c0.3-0.1,0.4-0.3,0.6-0.5c0.1-0.2,0.2-0.5,0.2-0.8c0-0.3-0.1-0.6-0.2-0.8
		c-0.2-0.2-0.4-0.4-0.6-0.5c-0.3-0.1-0.6-0.2-1-0.2h-2v4.1h1.4L170.6,45.2L170.6,45.2z M170.6,43.2h0.5c0.2,0,0.3,0,0.4,0.1
		c0.1,0.1,0.1,0.2,0.1,0.4s0,0.3-0.1,0.4c-0.1,0.1-0.2,0.1-0.4,0.1h-0.5V43.2z"/>
	<path class="st5" d="M153.2,42.1v2.3c0,0.6,0.2,1.1,0.5,1.4c0.4,0.3,0.8,0.5,1.5,0.5s1.1-0.2,1.5-0.5c0.4-0.3,0.5-0.8,0.5-1.4v-2.3
		h-1.4v2.2c0,0.3-0.1,0.5-0.2,0.7c-0.1,0.1-0.3,0.2-0.5,0.2c-0.2,0-0.4-0.1-0.5-0.2c-0.1-0.1-0.2-0.4-0.2-0.7v-2.2H153.2z"/>
	<path class="st5" d="M149.6,37.2v-8.9h-7.1c-0.7,0-1.3,0.3-1.8,0.8c-0.5,0.5-0.8,1.1-0.8,1.8v6.3h2v-6.3c0-0.1,0.1-0.3,0.2-0.4
		c0.1-0.1,0.2-0.2,0.4-0.2h5.1v6.9L149.6,37.2L149.6,37.2z"/>
	<path class="st5" d="M168.5,35c-0.1,0.1-0.3,0.2-0.4,0.2h-6.6v2h6.9c0.7,0,1.3-0.3,1.8-0.8c0.5-0.5,0.7-1.1,0.7-1.8l0-2.8h-7.5
		v-0.9c0-0.1,0.1-0.3,0.2-0.4c0.1-0.1,0.3-0.2,0.4-0.2h6.9v-2H164c-0.7,0-1.3,0.3-1.8,0.8c-0.5,0.5-0.7,1.1-0.7,1.8v2.8h7.2v0.9
		C168.6,34.8,168.6,34.9,168.5,35z"/>
	<path class="st5" d="M203.4,31.9v-3.5h-7.3c-0.7,0-1.3,0.3-1.8,0.8c-0.5,0.5-0.8,1.1-0.8,1.8v6.3h2v-2.8h4.3l1.5,2.8h2l-1.5-3
		c0.3-0.1,0.6-0.3,0.9-0.6C203.1,33.2,203.4,32.6,203.4,31.9z M201.4,31.9c0,0.2,0,0.3-0.1,0.4c-0.1,0.1-0.2,0.2-0.4,0.2h-5.3v-1.5
		c0-0.1,0.1-0.3,0.2-0.4c0.1-0.1,0.2-0.2,0.4-0.2h5.3V31.9z"/>
	<polygon class="st5" points="177.9,37.2 177.9,30.4 181.6,30.4 181.6,28.3 172,28.3 172,30.4 175.9,30.4 175.9,37.2 	"/>
	<path class="st5" d="M202.1,45.2c-0.1,0-0.2,0.1-0.4,0.1c-0.2,0-0.5,0-0.7-0.1c-0.2-0.1-0.5-0.2-0.7-0.3l-0.4,1
		c0.2,0.1,0.5,0.2,0.8,0.3c0.3,0.1,0.7,0.1,1,0.1c0.4,0,0.8-0.1,1-0.2s0.5-0.3,0.6-0.5c0.1-0.2,0.2-0.4,0.2-0.7
		c0-0.3-0.1-0.5-0.2-0.7c-0.2-0.2-0.3-0.3-0.6-0.4c-0.2-0.1-0.5-0.1-0.8-0.2c-0.2,0-0.4-0.1-0.5-0.1c-0.1,0-0.2-0.1-0.2-0.2
		c0-0.2,0.2-0.3,0.5-0.3c0.4,0,0.7,0.1,1.1,0.3l0.4-1c-0.2-0.1-0.4-0.2-0.7-0.3c-0.3-0.1-0.5-0.1-0.8-0.1c-0.4,0-0.8,0.1-1,0.2
		s-0.5,0.3-0.6,0.5c-0.1,0.2-0.2,0.4-0.2,0.7c0,0.3,0.1,0.5,0.2,0.7c0.2,0.2,0.3,0.3,0.5,0.4c0.2,0.1,0.5,0.1,0.8,0.2
		c0.2,0.1,0.4,0.1,0.5,0.1c0.1,0,0.2,0.1,0.2,0.2C202.3,45.1,202.2,45.2,202.1,45.2z"/>
	<path class="st5" d="M192.3,37.2v-8.9h-6.9c-0.7,0-1.3,0.3-1.8,0.8c-0.5,0.5-0.8,1.1-0.8,1.9v6.2h2V35h5.4v2.3L192.3,37.2
		L192.3,37.2z M184.8,32.9v-2.1c0-0.1,0.1-0.2,0.2-0.3c0.1-0.1,0.2-0.1,0.4-0.1h4.9v2.6C190.2,32.9,184.8,32.9,184.8,32.9z"/>
	<polygon class="st5" points="188.2,43.2 188.2,42.1 184.9,42.1 184.9,46.2 188.3,46.2 188.3,45.2 186.3,45.2 186.3,44.6 188,44.6 
		188,43.7 186.3,43.7 186.3,43.2 	"/>
	<path class="st5" d="M160.2,32.8h-2v2.4h-5.3v-4.3c0-0.2,0.1-0.3,0.2-0.4c0.1-0.1,0.3-0.2,0.4-0.2h6.4v-2h-6.4
		c-0.7,0-1.3,0.3-1.8,0.8c-0.5,0.5-0.8,1.1-0.8,1.8v6.3h9.4L160.2,32.8L160.2,32.8z"/>
	<path class="st5" d="M112.6,36.4c0.5-0.5,0.8-1.1,0.8-1.9v-6.2h-7.2c-0.7,0-1.3,0.3-1.8,0.8c-0.5,0.5-0.8,1.1-0.8,1.9v3.6
		c0,0.7,0.3,1.4,0.8,1.9c0.5,0.5,1.1,0.8,1.8,0.8h4.6C111.5,37.2,112.1,37,112.6,36.4z M106.8,35.2L106.8,35.2l-0.6,0
		c-0.2,0-0.3,0-0.4-0.1c-0.1-0.1-0.2-0.2-0.2-0.3v-3.9c0-0.1,0.1-0.2,0.2-0.3c0.1-0.1,0.2-0.1,0.4-0.1h0.6v0h4.5v4.4
		c0,0.1-0.1,0.2-0.2,0.3c-0.1,0.1-0.2,0.1-0.4,0.1h-0.6v0H106.8z"/>
	<rect x="136.6" y="28.3" class="st5" width="2" height="8.9"/>
	<polygon class="st5" points="110.1,43.2 110.1,42.1 106.8,42.1 106.8,46.2 110.2,46.2 110.2,45.2 108.2,45.2 108.2,44.6 
		109.9,44.6 109.9,43.7 108.2,43.7 108.2,43.2 	"/>
	<polygon class="st5" points="92,42.1 90.5,42.1 92.2,46.2 93.6,46.2 95.3,42.1 94,42.1 93,44.5 	"/>
	<path class="st5" d="M102.3,37.2v-8.9h-9.1c-0.7,0-1.3,0.3-1.8,0.8c-0.5,0.5-0.8,1.1-0.8,1.8v6.3h2v-6.3c0-0.1,0.1-0.3,0.2-0.4
		c0.1-0.1,0.2-0.2,0.4-0.2h2.3v6.9h2v-6.9h2.8v6.9L102.3,37.2L102.3,37.2z"/>
	<polygon class="st5" points="123.4,44.4 125,46.2 126.1,46.2 126.1,42.1 124.8,42.1 124.8,44 123.2,42.1 122.1,42.1 122.1,46.2 
		123.4,46.2 	"/>
	<path class="st5" d="M135.4,37.2v-8.9h-7.1c-0.7,0-1.3,0.3-1.8,0.8c-0.5,0.5-0.8,1.1-0.8,1.8v6.3h2v-6.3c0-0.1,0.1-0.3,0.2-0.4
		c0.1-0.1,0.2-0.2,0.4-0.2h5.1v6.9L135.4,37.2L135.4,37.2z"/>
	<path class="st5" d="M124.5,31.9v-3.5h-7.3c-0.7,0-1.3,0.3-1.8,0.8c-0.5,0.5-0.8,1.1-0.8,1.8v6.3h2v-2.8h4.3l1.5,2.8h2l-1.5-3
		c0.3-0.1,0.6-0.3,0.9-0.6C124.2,33.2,124.5,32.6,124.5,31.9z M122.4,31.9c0,0.2,0,0.3-0.1,0.4c-0.1,0.1-0.2,0.2-0.4,0.2h-5.3v-1.5
		c0-0.1,0.1-0.3,0.2-0.4c0.1-0.1,0.2-0.2,0.4-0.2h5.3L122.4,31.9L122.4,31.9z"/>
	<path class="st5" d="M62.4,42.3L26.6,76l33.7-35.8c1.8-1.9,1.8-4.8,0.2-6.7L49.4,20.5l13.1,11.2c1.9,1.6,4.7,1.6,6.6,0l13.1-11.2
		L70.9,33.6c-1.6,1.9-1.6,4.7,0,6.6l11.2,13.1L69.2,42.1C67.2,40.4,64.3,40.5,62.4,42.3z"/>
</g>
</svg>
