<?xml version="1.0" encoding="utf-8"?>
<!-- Generator: Adobe Illustrator 26.0.1, SVG Export Plug-In . SVG Version: 6.00 Build 0)  -->
<svg version="1.1" id="Layer_1" xmlns="http://www.w3.org/2000/svg" xmlns:xlink="http://www.w3.org/1999/xlink" x="0px" y="0px"
	 viewBox="0 0 233.5 80.5" style="enable-background:new 0 0 233.5 80.5;" xml:space="preserve">
<style type="text/css">
	.st0{fill:none;stroke:url(#SVGID_1_);stroke-width:0.5;stroke-miterlimit:10;}
	.st1{fill:none;stroke:#00E9BA;stroke-width:0.5;stroke-miterlimit:10;}
	.st2{fill:#FFFFFF;}
	.st3{clip-path:url(#SVGID_00000098902896469697655510000003563488563892283583_);fill:#FFFFFF;}
	.st4{fill-rule:evenodd;clip-rule:evenodd;fill:#FFFFFF;}
</style>
<g>
	<g>
		<path class="st2" d="M58.8,43.6c0,0,0,0-0.1,0.1c-0.5,0.8-3.1,4.8-7.8,2.2c-5.2-2.9-2.1-8.2-2.1-8.2l-5,7.1l5.1,4.3l5.1,0.9
			l4.5-4.6L58.8,43.6z"/>
		<path class="st2" d="M43.3,36.9L43.1,37c7.9-6.6,8.9-13.3,8.9-13.3c4.7,3.9,4.2,7.9,1.2,10.1c-0.6,0.4-1.1,0.8-1.7,1.2
			c-0.7,0.5-1.3,1.1-1.8,1.8c-3.4,3.9-2.7,7.4-2.7,7.4s1.1,5.5,7.4,3.5c2.5-0.8,3.7-2.7,4.3-4.3c0,0,0,0,0,0
			c0.5,5.3-3.4,10-8.7,10.5s-10-3.4-10.5-8.7C39.4,42.1,40.7,38.9,43.3,36.9L43.3,36.9z"/>
		<path class="st2" d="M52.1,23.7c0,0,3.6,5.9-3.4,11.1S43.1,51.7,50.6,54c0,0-10.1,1.4-11-9.2c0,0-1-4.8,4.9-9.1
			C49.3,32.3,52,24.1,52.1,23.7z"/>
		<path class="st2" d="M50.6,55.1l0.2,0c1.5-0.2,2.9-0.7,4.2-1.5l2.4,3.1h-8.1l-1-1.6C49,55.3,49.8,55.2,50.6,55.1z"/>
		<path class="st2" d="M35.1,46.6c1.9-2.7,1.9-6.3,0-9l-6.6-9.2h7.1l6.4,8.3c-4.1,4.2-3.3,8.2-3.3,8.2c0,0.8,0.2,1.7,0.4,2.5
			c0.3,1.2,0.7,2.3,1.4,3.3l-4,6h-8.5L35.1,46.6z"/>
	</g>
	<g>
		<path class="st2" d="M65.5,38.6h8.3v2.3h-8.3V50h-2.4V30h11.3v2.3h-8.9V38.6z"/>
		<path class="st2" d="M79.2,30.9c0.9,0,1.6,0.7,1.6,1.6c0,0.9-0.7,1.6-1.6,1.6s-1.6-0.7-1.6-1.6l0,0C77.5,31.6,78.3,30.9,79.2,30.9
			z M78,36.8h2.4V50H78V36.8z"/>
		<path class="st2" d="M92.3,36.8l-0.9,2.2c-0.5-0.2-1-0.3-1.5-0.3c-2.1,0-3,2.2-3,2.2V50h-2.4V36.8h2.2v2c0,0,1.2-2.4,3.7-2.4
			C91,36.4,91.7,36.5,92.3,36.8z"/>
		<path class="st2" d="M105.8,43.4c0,0.3,0,0.5,0,0.8H95.1c0.1,2,2.1,3.9,4.5,3.9c1.5,0,3-0.7,4-1.9l1.5,1.6
			c-1.4,1.6-3.4,2.6-5.5,2.6c-3.7,0.1-6.8-2.9-6.9-6.6c0,0,0,0,0,0c0-0.1,0-0.2,0-0.3c0-3.9,2.6-6.9,6.6-6.9
			C103.1,36.4,105.8,39.2,105.8,43.4z M103.5,42.2c-0.2-2.1-2-3.6-4.1-3.6c-2.1-0.1-3.9,1.5-4.2,3.6H103.5z"/>
		<path class="st2" d="M110.4,36.8l3.3,4.9l3.3-4.9h2.7l-4.4,6.4l4.7,6.8h-2.8l-3.6-5.2L106.8,55h-2.7l8-11.8l-4.5-6.4L110.4,36.8z"
			/>
		<path class="st2" d="M138.2,46l1,1c-1.9,2.1-4.6,3.3-7.4,3.3c-5.8,0-9.9-4.6-9.9-10.3s4.1-10.3,9.9-10.3c2.7,0,5.3,1.1,7.1,3.1
			l-1.1,1c-1.6-1.7-3.8-2.6-6.1-2.6c-5,0-8.3,4-8.3,8.9s3.4,8.9,8.3,8.9C134.3,48.9,136.6,47.8,138.2,46z"/>
		<path class="st2" d="M152.3,41.4V50h-1.3v-2.3c-1.1,1.6-3,2.6-4.9,2.6c-2.2,0-4.7-1.5-4.7-4.4s2.6-4.4,5.2-4.4
			c1.5,0,3,0.4,4.3,1.2v-1c0-3.2-2.4-3.7-3.8-3.7c-1.5,0-3,0.4-4.3,1.2l-0.7-1.3c1.5-0.9,3.2-1.3,4.9-1.4
			C150.6,36.6,152.3,38.8,152.3,41.4z M150.8,46.2V44c-1.2-0.7-2.7-1.1-4.1-1.1c-1.7,0-3.8,0.9-3.8,3c0,2.1,1.9,2.9,3.5,2.9
			C149.2,48.8,150.8,46.2,150.8,46.2L150.8,46.2z"/>
		<path class="st2" d="M157.7,36.9v2.4c1-1.7,2.9-2.7,4.9-2.7c3.6,0,6.5,2.8,6.5,6.9s-2.8,6.9-6.5,6.9c-1.9,0-3.7-0.9-4.7-2.5v8.7
			h-1.5V36.9H157.7z M157.9,45.8c0,0,1.4,3,4.7,3c2.9,0,4.9-2.4,4.9-5.4s-2-5.4-4.9-5.4c-3.3,0-4.7,3-4.7,3V45.8z"/>
		<path class="st2" d="M173.3,31.6c0.6,0,1.2,0.5,1.2,1.2c0,0.6-0.5,1.2-1.2,1.2s-1.2-0.5-1.2-1.2l0,0
			C172.1,32.1,172.6,31.6,173.3,31.6z M172.5,36.9h1.5v13h-1.5V36.9z"/>
		<path class="st2" d="M177.3,36.9h2.8v-4.2h1.5v4.2h4.4v1.4h-4.4v7.8c0,1.5,0.5,2.7,2.3,2.7c0.7,0,1.4-0.2,1.9-0.6l0.6,1.3
			c-0.8,0.5-1.7,0.7-2.6,0.8c-2.5,0-3.7-1.7-3.7-3.9v-8.1h-2.8L177.3,36.9z"/>
		<path class="st2" d="M199.6,41.4V50h-1.3v-2.3c-1.1,1.6-3,2.6-4.9,2.6c-2.2,0-4.7-1.5-4.7-4.4s2.6-4.4,5.2-4.4
			c1.5,0,3,0.4,4.3,1.2v-1c0-3.2-2.4-3.7-3.8-3.7c-1.5,0-3,0.4-4.3,1.2l-0.7-1.3c1.5-0.9,3.2-1.3,4.9-1.4
			C197.9,36.6,199.6,38.8,199.6,41.4z M198.1,46.2V44c-1.3-0.7-2.7-1.1-4.1-1.1c-1.7,0-3.8,0.9-3.8,3c0,2.1,1.9,2.9,3.5,2.9
			C196.5,48.8,198.1,46.2,198.1,46.2L198.1,46.2z"/>
		<path class="st2" d="M204.2,28.4h1.4V50h-1.5L204.2,28.4z"/>
	</g>
</g>
</svg>
