<?xml version="1.0" encoding="utf-8"?>
<!-- Generator: Adobe Illustrator 26.0.1, SVG Export Plug-In . SVG Version: 6.00 Build 0)  -->
<svg version="1.1" id="Layer_1" xmlns="http://www.w3.org/2000/svg" xmlns:xlink="http://www.w3.org/1999/xlink" x="0px" y="0px"
	 viewBox="0 0 233.5 80.5" style="enable-background:new 0 0 233.5 80.5;" xml:space="preserve">
<style type="text/css">
	.st0{fill:none;stroke:url(#SVGID_1_);stroke-width:0.5;stroke-miterlimit:10;}
	.st1{fill:none;stroke:#00E9BA;stroke-width:0.5;stroke-miterlimit:10;}
	.st2{fill:#FFFFFF;}
	.st3{clip-path:url(#SVGID_00000148622774961252734750000015634796903127494570_);fill:#FFFFFF;}
	.st4{fill-rule:evenodd;clip-rule:evenodd;fill:#FFFFFF;}
</style>
<g>
	<path class="st2" d="M98.8,28c4.1,4.2,8.1,8.4,12.2,12.6c-3.9,4-7.8,8-11.8,11.9c-4.4,4.3-11.1,5.9-17,3.9c-4-1.4-7-4.1-9.8-7.1
		c2.3-2.3,4.5-4.5,6.8-6.8c1.6,1.6,2.9,3.1,5,4.1c1.8,0.9,3.9,0.9,5.7,0.1c1.3-0.5,2.2-1.5,3.2-2.5c1.3-1.3,2.6-2.6,3.9-3.9
		c-1.9-1.9-3.8-3.7-5.7-5.6c-1.6-1.6-4.1-2.1-6.2-1.4c-1.3,0.4-2.3,1.1-3.3,2.1c-5.4,5.5-10.8,11.1-16.3,16.6c-2.2,2.2-5,3.9-8,4.7
		c-2.6,0.7-5.4,0.7-8,0.2c-3-0.6-5.8-2.2-7.8-4.4c-3.9-4.1-7.9-8.2-11.9-12.3c4-4,7.9-8.1,11.9-12c4.8-4.6,12.2-6,18.2-3.2
		c3.4,1.5,5.7,4,8.3,6.6c-2.3,2.3-4.5,4.5-6.8,6.8c-1.5-1.5-3-3.3-4.9-4.3c-2.4-1.3-5.6-0.6-7.6,1.2c-1.7,1.6-3.4,3.4-5.1,5.1
		c1.9,1.9,3.8,3.8,5.7,5.7c1.3,1.3,3.3,1.8,5.1,1.6c1.7-0.2,3.1-1.1,4.3-2.3c4.8-4.9,9.7-9.8,14.5-14.8c1-1.1,2.1-2.1,3.2-3.1
		c2.8-2.4,6.5-3.9,10.2-4c2.7-0.1,5.5,0.3,8,1.5C96.3,25.8,97.6,26.9,98.8,28z"/>
	<path class="st2" d="M121.7,30.4c0-3.3,0-6.6,0-9.9c0.9,0,1.8,0,2.8,0c0,3.3,0,6.6,0,9.9C123.5,30.4,122.6,30.4,121.7,30.4z"/>
	<path class="st2" d="M125.5,57.2c1.3,0.7,2.6,0.5,4,0.2c0.1,0.7,0.3,1.4,0.4,2.1c-2.1,0.6-4.8,0.6-6.7-0.7c-2.5-1.7-2.5-6-0.1-7.8
		c1.9-1.5,4.8-1.7,7-0.9c-0.2,0.7-0.4,1.4-0.6,2.1c-1.3-0.4-2.9-0.6-4.1,0.2C123.8,53.5,123.8,56.3,125.5,57.2z"/>
	<path class="st2" d="M128.4,35.2c1,0,1.9,0,2.9,0c-1.2,3.3-2.4,6.6-3.6,9.9c-1.1,0-2.2,0-3.3,0c-1.1-3.3-2.3-6.6-3.4-9.9
		c1,0,2,0,3,0c0.7,2.5,1.6,4.9,2.1,7.3C126.8,40.1,127.6,37.7,128.4,35.2z"/>
	<path class="st2" d="M127.1,30.4c0-3.3,0-6.6,0-9.9h3.5c1.3,2.2,2.5,4.3,3.4,6.7c-0.2-2.2-0.2-4.4-0.2-6.7c0.9,0,1.7,0,2.6,0
		c0,3.3,0,6.6,0,9.9c-1,0-2,0-3.1,0c-1.3-2.4-2.6-4.7-3.7-7.1c0.1,2.4,0.1,4.8,0.1,7.2C128.8,30.4,127.9,30.4,127.1,30.4z"/>
	<path class="st2" d="M133.3,35.2c2.3-0.1,4.7,0,7,0c0,0.7,0,1.5,0,2.2c-1.4,0-2.8,0-4.3,0c0,0.5,0,1,0,1.5c1.3,0,2.7,0,4,0v2.2
		c-1.3,0-2.7,0-4,0c0,0.6,0,1.1,0,1.7c1.5,0,3,0,4.5,0v2.2c-2.4,0-4.8,0-7.2,0C133.3,41.8,133.2,38.5,133.3,35.2z"/>
	<path class="st2" d="M138.5,55.1c0.4-0.3,1-0.6,1.3-1.1c0.7-0.9,0.5-2.3-0.3-3.2c-0.6-0.6-1.6-0.9-2.5-1c-1.6-0.2-3.3-0.1-4.9,0.1
		v9.7c0.9,0,1.8,0,2.7,0c0-1.2,0-2.5,0-3.7c0.6,0.1,1.4,0,1.8,0.6c0.4,1,0.6,2.1,1.1,3.1c0.9,0,1.9,0,2.8,0
		C140,58.2,140,56.2,138.5,55.1z M136.9,53.9c-0.6,0.3-1.4,0.2-2,0.3c0-0.8,0-1.6,0-2.3c0.7,0,1.6-0.1,2.1,0.3
		C137.7,52.6,137.6,53.5,136.9,53.9z"/>
	<path class="st2" d="M138.9,30.4c0-3.3,0-6.6,0-9.9c2.3,0,4.6,0,6.9,0v2.2c-1.4,0-2.8,0-4.2,0c0,0.6,0,1.1,0,1.7h3.9
		c0,0.7,0,1.5,0,2.2c-1.3,0-2.6,0-3.9,0c0,1.2,0,2.5,0,3.7C140.8,30.4,139.9,30.4,138.9,30.4z"/>
	<path class="st2" d="M148.3,30.4c0-3.3,0-6.6,0-9.9c0.9,0,1.8,0,2.8,0c0,3.3,0,6.6,0,9.9C150.1,30.4,149.2,30.4,148.3,30.4z"/>
	<path class="st2" d="M148,49.9c1.1,0,2.1,0,3.2,0c-1,1.6-2,3.2-3,4.8c-0.2,0.3-0.5,0.7-0.5,1.1c-0.1,1.3,0,2.6,0,4
		c-0.9,0-1.8,0-2.8,0c-0.1-1.4,0.1-2.9-0.1-4.3c-1-1.9-2.2-3.7-3.3-5.6c1.1,0,2.2,0,3.2,0c0.6,1.3,1.1,2.7,1.7,4
		C146.9,52.5,147.5,51.2,148,49.9z"/>
	<path class="st2" d="M149.5,35.2c0.9,0,1.7,0,2.6,0c0,3.3,0,6.6,0,9.9c-1,0-2,0-3,0c-1.3-2.4-2.6-4.7-3.8-7.2
		c0.1,2.4,0.1,4.8,0.1,7.2c-0.9,0-1.7,0-2.6,0c0-3.3,0-6.6,0-9.8c1.1-0.1,2.3,0,3.4,0c1.3,2.1,2.5,4.3,3.4,6.6
		C149.4,39.6,149.4,37.4,149.5,35.2z"/>
	<path class="st2" d="M159,50.3c-1.9-0.8-4.3-0.4-6.2-0.3c0,3.3,0,6.5,0,9.8c0.9,0,1.8,0,2.7,0c0-1.1,0-2.2,0-3.3
		c1.5,0,2.8,0,4.1-0.9C161.4,54.3,161.1,51.1,159,50.3z M157.6,53.9c-0.6,0.5-1.4,0.4-2.1,0.5c0-0.9,0-1.7,0-2.6
		c0.6,0,1.4-0.1,2,0.2C158.1,52.5,158.2,53.4,157.6,53.9z"/>
	<path class="st2" d="M159.6,37.5c0,2.5,0,5.1,0,7.6c-0.9,0-1.9,0-2.8,0c0-2.5,0-5.1,0-7.6c-0.9,0-1.8,0-2.8,0c0-0.7,0-1.5,0-2.2
		c2.8,0,5.6,0,8.4,0c0,0.7,0,1.5,0,2.2C161.5,37.5,160.6,37.5,159.6,37.5z"/>
	<path class="st2" d="M153.7,30.4c0-3.3,0-6.6,0-9.9c1.2,0,2.3,0,3.5,0c1.2,2.2,2.5,4.3,3.4,6.6c-0.2-2.2-0.2-4.4-0.2-6.7
		c0.9,0,1.7,0,2.6,0c0,3.3,0,6.6,0,9.9c-1,0-2.1,0-3.1,0c-1.2-2.4-2.6-4.7-3.7-7.2c0.1,2.4,0.1,4.8,0.1,7.2
		C155.4,30.4,154.5,30.4,153.7,30.4z"/>
	<path class="st2" d="M165.6,30.4c0-3.3,0-6.6,0-9.9c0.9,0,1.8,0,2.8,0c0,3.3,0,6.6,0,9.9C167.4,30.4,166.5,30.4,165.6,30.4z"/>
	<path class="st2" d="M170.7,49.9c0,0.8,0,1.5,0,2.3c-0.9,0-1.9,0-2.8,0c0,2.5,0,5.1,0,7.6c-0.9,0-1.8,0-2.8,0c0-2.5,0-5.1,0-7.6
		c-0.9,0-1.9,0-2.8,0c0-0.7,0-1.5,0-2.2C165.1,49.8,167.9,49.9,170.7,49.9z"/>
	<path class="st2" d="M164.5,35.2c0.9,0,1.8,0,2.8,0c0,1.8,0,3.6,0,5.3c0,0.7,0.1,1.5,0.6,2c0.7,0.8,2.2,0.7,2.7-0.2
		c0.4-0.6,0.4-1.4,0.4-2.1c0-1.7,0-3.4,0-5h2.8c0,1.7,0,3.4,0,5c0,1.2-0.1,2.5-0.9,3.5c-0.8,1.1-2.2,1.5-3.5,1.5
		c-1.3,0-2.6-0.2-3.6-1.1c-0.9-0.9-1.1-2.3-1.2-3.6C164.5,38.8,164.5,37,164.5,35.2z"/>
	<path class="st2" d="M173.2,22.8c-0.9,0-1.9,0-2.8,0c0-0.8,0-1.5,0-2.3c2.8,0,5.6,0,8.4,0c0,0.8,0,1.5,0,2.3c-0.9,0-1.9,0-2.9,0
		c0,2.5,0,5.1,0,7.6c-0.9,0-1.8,0-2.8,0C173.2,27.9,173.2,25.3,173.2,22.8z"/>
	<path class="st2" d="M181,51c-1.3-1.2-3.3-1.5-5-1.1c-1.4,0.3-2.6,1.1-3.4,2.3c-1.2,2-0.9,5,0.9,6.6c1.8,1.5,4.7,1.5,6.7,0.4
		C183,57.6,183.3,53.1,181,51z M178.9,57c-1,1.2-2.9,1-3.7-0.3c-0.8-1.4-0.6-3.9,1.1-4.7c1.1-0.4,2.3,0,2.9,1
		C179.8,54.2,179.8,56,178.9,57z"/>
	<path class="st2" d="M182.7,40.5c0.6-0.4,1.1-0.7,1.4-1.3c0.7-1.3,0.1-3.1-1.4-3.6c-1.9-0.7-4.3-0.4-6.3-0.2c0,3.3,0,6.5,0,9.8
		c0.9,0,1.8,0,2.7,0c0-1.2,0-2.5,0-3.7c0.6,0.1,1.4,0,1.7,0.5c0.5,0.9,0.6,2.1,1.1,3.1c0.8,0.3,2,0.1,2.8,0.1
		C184.2,43.6,184.1,41.5,182.7,40.5z M181.1,39.2c-0.6,0.3-1.4,0.3-2,0.3v-2.3c0.6,0,1.5-0.1,2,0.2
		C181.8,37.7,181.7,38.8,181.1,39.2z"/>
	<path class="st2" d="M189.7,20.5c-1.1,1.7-2.1,3.3-3.2,5c-0.2,0.3-0.4,0.6-0.4,1c-0.1,1.3,0,2.6,0,3.9c-0.9,0-1.8,0-2.8,0
		c0-1.4,0.1-2.8-0.1-4.1c-1-1.9-2.3-3.8-3.4-5.7c1.1,0,2.2,0,3.2,0c0.5,1.3,1.1,2.7,1.7,4c0.5-1.3,1.1-2.6,1.6-4
		C187.5,20.5,188.6,20.5,189.7,20.5z"/>
	<path class="st2" d="M194,42.9c0,0.7,0,1.5,0,2.2c-2.4,0-4.8,0-7.3,0c0-3.3,0-6.6,0-9.9c2.3-0.1,4.7,0,7,0c0,0.7,0,1.5,0,2.2
		c-1.4,0-2.8,0-4.3,0c0,0.5,0,1,0,1.5c1.3,0,2.7,0,4,0c0,0.7,0,1.5,0,2.2c-1.3,0-2.7,0-4,0c0,0.6,0,1.1,0,1.7
		C191,42.9,192.5,42.9,194,42.9z"/>
	<path class="st2" d="M202.2,44.5c-1.8,1.1-4.4,0.9-6.3,0.1c0.2-0.7,0.4-1.5,0.6-2.3c1.1,0.4,2.6,0.9,3.8,0.5
		c0.6-0.2,0.7-0.9,0.1-1.2c-1.2-0.6-2.6-0.7-3.6-1.7c-1.1-1.2-0.9-3.1,0.4-4c1.6-1.2,4.2-1,6-0.3c-0.2,0.7-0.4,1.4-0.6,2.2
		c-1-0.3-2.3-0.7-3.3-0.3c-0.4,0.1-0.5,0.8-0.1,1c1.3,0.7,2.7,0.7,3.8,1.9C204.1,41.6,203.7,43.7,202.2,44.5z"/>
	<path class="st2" d="M124.4,20.5c0,3.3,0,6.6,0,9.9c-0.9,0-1.8,0-2.8,0c0-3.3,0-6.6,0-9.9C122.6,20.5,123.5,20.5,124.4,20.5z"/>
	<path class="st2" d="M136.3,20.5c0,3.3,0,6.6,0,9.9c-1,0-2,0-3.1,0c-1.3-2.4-2.6-4.7-3.7-7.1c0.1,2.4,0.1,4.8,0.1,7.2
		c-0.9,0-1.7,0-2.5,0c0-3.3,0-6.6,0-9.9h3.5c1.3,2.2,2.5,4.3,3.4,6.7c-0.2-2.2-0.2-4.4-0.2-6.7C134.6,20.5,135.5,20.5,136.3,20.5z"
		/>
	<path class="st2" d="M141.7,22.8c0,0.6,0,1.1,0,1.7h3.9c0,0.7,0,1.5,0,2.2c-1.3,0-2.6,0-3.9,0c0,1.2,0,2.5,0,3.7
		c-0.9,0-1.8,0-2.8,0c0-3.3,0-6.6,0-9.9c2.3,0,4.6,0,6.9,0v2.2C144.5,22.8,143.1,22.8,141.7,22.8z"/>
	<path class="st2" d="M151.1,20.5c0,3.3,0,6.6,0,9.9c-0.9,0-1.8,0-2.8,0c0-3.3,0-6.6,0-9.9C149.2,20.5,150.1,20.5,151.1,20.5z"/>
	<path class="st2" d="M163,20.5c0,3.3,0,6.6,0,9.9c-1,0-2.1,0-3.1,0c-1.2-2.4-2.6-4.7-3.7-7.2c0.1,2.4,0.1,4.8,0.1,7.2
		c-0.9,0-1.7,0-2.6,0c0-3.3,0-6.6,0-9.9c1.2,0,2.3,0,3.5,0c1.2,2.2,2.5,4.3,3.4,6.6c-0.2-2.2-0.2-4.4-0.2-6.7
		C161.2,20.5,162.1,20.5,163,20.5z"/>
	<path class="st2" d="M168.3,30.4c-0.9,0-1.8,0-2.8,0c0-3.3,0-6.6,0-9.9c0.9,0,1.8,0,2.8,0C168.3,23.8,168.3,27.1,168.3,30.4z"/>
	<path class="st2" d="M175.9,22.8c0,2.5,0,5.1,0,7.6c-0.9,0-1.8,0-2.8,0c0-2.5,0-5.1,0-7.6c-0.9,0-1.9,0-2.8,0c0-0.8,0-1.5,0-2.3
		c2.8,0,5.6,0,8.4,0c0,0.8,0,1.5,0,2.3C177.8,22.8,176.9,22.8,175.9,22.8z"/>
	<path class="st2" d="M189.7,20.5c-1.1,1.7-2.1,3.3-3.2,5c-0.2,0.3-0.4,0.6-0.4,1c-0.1,1.3,0,2.6,0,3.9c-0.9,0-1.8,0-2.8,0
		c0-1.4,0.1-2.8-0.1-4.1c-1-1.9-2.3-3.8-3.4-5.7c1.1,0,2.2,0,3.2,0c0.5,1.3,1.1,2.7,1.7,4c0.5-1.3,1.1-2.6,1.6-4
		C187.5,20.5,188.6,20.5,189.7,20.5z"/>
	<path class="st2" d="M111,40.7c-3.9,4-7.8,8-11.8,11.9c-4.4,4.3-11.1,5.9-17,3.9c-4-1.4-7-4.1-9.8-7.1c2.3-2.3,4.5-4.5,6.8-6.8
		c1.6,1.6,2.9,3.1,5,4.1c1.8,0.9,3.9,0.9,5.7,0.1c1.3-0.5,2.2-1.5,3.2-2.5c1.3-1.3,2.6-2.6,3.9-3.9c-1.9-1.9-3.8-3.7-5.7-5.6
		c-1.6-1.6-4.1-2.1-6.2-1.4c-1.3,0.4-2.3,1.1-3.3,2.1c-5.4,5.5-10.8,11.1-16.3,16.6c-2.2,2.2-5,3.9-8,4.7c-2.6,0.7-5.4,0.7-8,0.2
		c-3-0.6-5.8-2.2-7.8-4.4c-3.9-4.1-7.9-8.2-11.9-12.3c4-4,7.9-8.1,11.9-12c4.8-4.6,12.2-6,18.2-3.2c3.4,1.5,5.7,4,8.3,6.6
		c-2.3,2.3-4.5,4.5-6.8,6.8c-1.5-1.5-3-3.3-4.9-4.3c-2.4-1.3-5.6-0.6-7.6,1.2c-1.7,1.6-3.4,3.4-5.1,5.1c1.9,1.9,3.8,3.8,5.7,5.7
		c1.3,1.3,3.3,1.8,5.1,1.6c1.7-0.2,3.1-1.1,4.3-2.3c4.8-4.9,9.7-9.8,14.5-14.8c1-1.1,2.1-2.1,3.2-3.1c2.8-2.4,6.5-3.9,10.2-4
		c2.7-0.1,5.5,0.3,8,1.5c1.5,0.7,2.8,1.7,3.9,2.9C102.9,32.3,106.9,36.5,111,40.7z"/>
	<path class="st2" d="M131.3,35.2c-1.2,3.3-2.4,6.6-3.6,9.9c-1.1,0-2.2,0-3.3,0c-1.1-3.3-2.3-6.6-3.4-9.9c1,0,2,0,3,0
		c0.7,2.5,1.6,4.9,2.1,7.3c0.6-2.5,1.4-4.9,2.2-7.3C129.4,35.2,130.3,35.2,131.3,35.2z"/>
	<path class="st2" d="M140.5,42.9v2.2c-2.4,0-4.8,0-7.2,0c0-3.3,0-6.6,0-9.8c2.3-0.1,4.7,0,7,0c0,0.7,0,1.5,0,2.2
		c-1.4,0-2.8,0-4.3,0c0,0.5,0,1,0,1.5c1.3,0,2.7,0,4,0v2.2c-1.3,0-2.7,0-4,0c0,0.6,0,1.1,0,1.7C137.5,42.9,139,42.9,140.5,42.9z"/>
	<path class="st2" d="M152,35.2c0,3.3,0,6.6,0,9.9c-1,0-2,0-3,0c-1.3-2.4-2.6-4.7-3.8-7.2c0.1,2.4,0.1,4.8,0.1,7.2
		c-0.9,0-1.7,0-2.6,0c0-3.3,0-6.6,0-9.8c1.1-0.1,2.3,0,3.4,0c1.3,2.1,2.5,4.3,3.4,6.6c-0.2-2.2-0.2-4.4-0.2-6.6
		C150.3,35.2,151.2,35.2,152,35.2z"/>
	<path class="st2" d="M159.6,37.5c0,2.5,0,5.1,0,7.6c-0.9,0-1.9,0-2.8,0c0-2.5,0-5.1,0-7.6c-0.9,0-1.8,0-2.8,0c0-0.7,0-1.5,0-2.2
		c2.8,0,5.6,0,8.4,0c0,0.7,0,1.5,0,2.2C161.5,37.5,160.6,37.5,159.6,37.5z"/>
	<path class="st2" d="M173.7,40.3c0,1.2-0.1,2.5-0.9,3.5c-0.8,1.1-2.2,1.5-3.5,1.5c-1.3,0-2.6-0.2-3.6-1.1c-0.9-0.9-1.1-2.3-1.2-3.6
		c0-1.8,0-3.5,0-5.3c0.9,0,1.8,0,2.8,0c0,1.8,0,3.6,0,5.3c0,0.7,0.1,1.5,0.6,2c0.7,0.8,2.2,0.7,2.7-0.2c0.4-0.6,0.4-1.4,0.4-2.1
		c0-1.7,0-3.4,0-5h2.8C173.7,36.9,173.7,38.6,173.7,40.3z"/>
	<path class="st2" d="M182.7,40.5c0.6-0.4,1.1-0.7,1.4-1.3c0.7-1.3,0.1-3.1-1.4-3.6c-1.9-0.7-4.3-0.4-6.3-0.2c0,3.3,0,6.5,0,9.8
		c0.9,0,1.8,0,2.7,0c0-1.2,0-2.5,0-3.7c0.6,0.1,1.4,0,1.7,0.5c0.5,0.9,0.6,2.1,1.1,3.1c0.8,0.3,2,0.1,2.8,0.1
		C184.2,43.6,184.1,41.5,182.7,40.5z M181.1,39.2c-0.6,0.3-1.4,0.3-2,0.3v-2.3c0.6,0,1.5-0.1,2,0.2
		C181.8,37.7,181.7,38.8,181.1,39.2z"/>
	<path class="st2" d="M194,45.1c-2.4,0-4.8,0-7.3,0c0-3.3,0-6.6,0-9.9c2.3-0.1,4.7,0,7,0c0,0.7,0,1.5,0,2.2c-1.4,0-2.8,0-4.3,0
		c0,0.5,0,1,0,1.5c1.3,0,2.7,0,4,0c0,0.7,0,1.5,0,2.2c-1.3,0-2.7,0-4,0c0,0.6,0,1.1,0,1.7c1.5,0,3,0,4.5,0
		C194,43.6,194,44.4,194,45.1z"/>
	<path class="st2" d="M202.2,44.5c-1.8,1.1-4.4,0.9-6.3,0.1c0.2-0.7,0.4-1.5,0.6-2.3c1.1,0.4,2.6,0.9,3.8,0.5
		c0.6-0.2,0.7-0.9,0.1-1.2c-1.2-0.6-2.6-0.7-3.6-1.7c-1.1-1.2-0.9-3.1,0.4-4c1.6-1.2,4.2-1,6-0.3c-0.2,0.7-0.4,1.4-0.6,2.2
		c-1-0.3-2.3-0.7-3.3-0.3c-0.4,0.1-0.5,0.8-0.1,1c1.3,0.7,2.7,0.7,3.8,1.9C204.1,41.6,203.7,43.7,202.2,44.5z"/>
	<path class="st2" d="M129.5,57.4c0.1,0.7,0.3,1.4,0.4,2.1c-2.1,0.6-4.8,0.6-6.7-0.7c-2.5-1.7-2.5-6-0.1-7.8c1.9-1.5,4.8-1.7,7-0.9
		c-0.2,0.7-0.4,1.4-0.6,2.1c-1.3-0.4-2.9-0.6-4.1,0.2c-1.6,1-1.6,3.8,0.1,4.7C126.8,57.9,128.1,57.7,129.5,57.4z"/>
	<path class="st2" d="M138.5,55.1c0.4-0.3,1-0.6,1.3-1.1c0.7-0.9,0.5-2.3-0.3-3.2c-0.6-0.6-1.6-0.9-2.5-1c-1.6-0.2-3.3-0.1-4.9,0.1
		v9.7c0.9,0,1.8,0,2.7,0c0-1.2,0-2.5,0-3.7c0.6,0.1,1.4,0,1.8,0.6c0.4,1,0.6,2.1,1.1,3.1c0.9,0,1.9,0,2.8,0
		C140,58.2,140,56.2,138.5,55.1z M136.9,53.9c-0.6,0.3-1.4,0.2-2,0.3c0-0.8,0-1.6,0-2.3c0.7,0,1.6-0.1,2.1,0.3
		C137.7,52.6,137.6,53.5,136.9,53.9z"/>
	<path class="st2" d="M151.2,49.9c-1,1.6-2,3.2-3,4.8c-0.2,0.3-0.5,0.7-0.5,1.1c-0.1,1.3,0,2.6,0,4c-0.9,0-1.8,0-2.8,0
		c-0.1-1.4,0.1-2.9-0.1-4.3c-1-1.9-2.2-3.7-3.3-5.6c1.1,0,2.2,0,3.2,0c0.6,1.3,1.1,2.7,1.7,4c0.6-1.3,1.1-2.6,1.7-4
		C149.1,49.9,150.2,49.9,151.2,49.9z"/>
	<path class="st2" d="M159,50.3c-1.9-0.8-4.3-0.4-6.2-0.3c0,3.3,0,6.5,0,9.8c0.9,0,1.8,0,2.7,0c0-1.1,0-2.2,0-3.3
		c1.5,0,2.8,0,4.1-0.9C161.4,54.3,161.1,51.1,159,50.3z M157.6,53.9c-0.6,0.5-1.4,0.4-2.1,0.5c0-0.9,0-1.7,0-2.6
		c0.6,0,1.4-0.1,2,0.2C158.1,52.5,158.2,53.4,157.6,53.9z"/>
	<path class="st2" d="M170.7,49.9c0,0.8,0,1.5,0,2.3c-0.9,0-1.9,0-2.8,0c0,2.5,0,5.1,0,7.6c-0.9,0-1.8,0-2.8,0c0-2.5,0-5.1,0-7.6
		c-0.9,0-1.9,0-2.8,0c0-0.7,0-1.5,0-2.2C165.1,49.8,167.9,49.9,170.7,49.9z"/>
	<path class="st2" d="M181,51c-1.3-1.2-3.3-1.5-5-1.1c-1.4,0.3-2.6,1.1-3.4,2.3c-1.2,2-0.9,5,0.9,6.6c1.8,1.5,4.7,1.5,6.7,0.4
		C183,57.6,183.3,53.1,181,51z M178.9,57c-1,1.2-2.9,1-3.7-0.3c-0.8-1.4-0.6-3.9,1.1-4.7c1.1-0.4,2.3,0,2.9,1
		C179.8,54.2,179.8,56,178.9,57z"/>
</g>
</svg>
