<?xml version="1.0" encoding="UTF-8"?><svg id="a" xmlns="http://www.w3.org/2000/svg" viewBox="0 0 233.5 80.47"><defs><style>.b{fill:#fff;}</style></defs><path class="b" d="M51.1,29.97c-.51-3.51-2.47-6.76-5.36-8.85-1.97-1.47-4.22-2.17-6.6-2.66l-.39-.04h-1.71c-2.87,.45-5.63,1.39-7.85,3.33-2.94,2.49-4.72,6.27-4.7,10.12-.03,2.79,.08,5.59,.02,8.38,2.66,1.17,5.34,2.32,8,3.5,.04-3.81-.06-7.62,.03-11.42,0-2.28,1.37-4.34,3.55-5.05,2.18-.77,4.5,.13,5.85,1.94,.95,1.24,.96,2.61,.99,4.09-.02,5-.01,9.99-.01,14.99,2.75,1.21,5.52,2.4,8.27,3.62,0-4.91,0-9.83,0-14.75-.02-2.39,.21-4.87-.1-7.2Z"/><path class="b" d="M155.38,29.25c-3.12-1.82-7.06-1.95-10.53-1.31-3.57,.78-6.65,3.14-8.23,6.45-1.47,3.27-1.58,6.98-.54,10.39,1,3.13,3.4,5.7,6.39,7.01,2.6,1.17,5.61,1.35,8.4,1,3.75-.52,7.28-2.66,9.03-6.1,1.52-2.81,1.71-5.91,1.29-9.03-.55-3.5-2.68-6.71-5.82-8.4Zm-.02,13.95c-.97,2.93-3.83,4.89-6.91,4.77-2.75,.07-5.27-1.33-6.56-3.76-2.09-4.18-.59-9.98,4.24-11.36,2.59-.73,5.43-.25,7.41,1.62,2.34,2.11,2.76,5.85,1.83,8.72Z"/><path class="b" d="M182.38,28.16c.02,5.56,.02,11.12,0,16.68-3.37-5.56-6.8-11.08-10.13-16.66-2.41,.01-4.84-.11-7.25,.01-.1,8.03,0,16.12-.04,24.17,1.78,0,3.57-.01,5.35-.02,0-5.71-.05-11.42,.03-17.12,3.44,5.73,6.98,11.4,10.43,17.13,2.34,0,4.67,0,7.01,0,0-8.07,0-16.14,0-24.22-1.8,.02-3.61,.03-5.4,.02Z"/><path class="b" d="M206.54,28.17c-1.79,2.99-3.56,5.99-5.35,8.97-1.67-3-3.39-5.97-5.04-8.98-2.24,0-4.47-.04-6.71,0,2.32,3.66,4.74,7.27,7.11,10.91,.87,1.43,2.03,2.52,1.96,4.3,.04,2.99-.03,5.98,0,8.98,1.8,0,3.61,0,5.4,0-.03-2.82-.03-5.63-.05-8.45,.02-.97-.05-1.84,.55-2.66,2.82-4.3,5.65-8.62,8.46-12.93v-.12c-2.11-.03-4.22-.03-6.33,0Z"/><path class="b" d="M64.7,28.44c0,7.8,0,15.6,0,23.4,1.71,0,3.42,.01,5.12,.01-.01-7.8,.01-15.61,0-23.4-1.71,.01-3.42,0-5.12-.01Z"/><path class="b" d="M126.24,28.38c-.02,5.38,.03,10.77-.02,16.16-3.3-5.38-6.58-10.77-9.86-16.16-2.36,0-4.71,0-7.07,0,.02,7.82,.02,15.64,0,23.46,1.74,0,3.48,0,5.22,.01-.04-5.54-.03-11.09,.01-16.63,3.36,5.54,6.77,11.06,10.12,16.61,2.27,.02,4.53,.02,6.8,0-.01-7.83,0-15.65,0-23.48-1.74,.01-3.47,.02-5.2,0Z"/><path class="b" d="M85.68,35.23c0-2.13-1.1-3.76-2.54-5.22-3.06-2.3-6.8-1.37-10.41-1.55-.23,1.52-.45,3.04-.63,4.56,2.55,.15,5.29-.25,7.78,.35,1.57,1.35,1.68,3.65-.25,4.72-1.42,.56-3.3,.23-4.83,.3-1.19,0-2.38-.01-3.57-.02-.23,1.38-.41,2.77-.58,4.17l-.05,.25c2.87,.05,5.77,.08,8.64-.02,3.72-.2,6.77-3.83,6.43-7.53Z"/><path class="b" d="M103.54,42.83c-2.1-4.77-4.28-9.5-6.25-14.33-1.4-.03-2.83-.12-4.23,.01-.4,.56-.69,1.22-.97,1.84-3.03,7.18-6.17,14.32-9.24,21.49,1.93,0,3.87,0,5.8,.03,.59-1.65,1.23-3.29,1.87-4.93,2.97,0,5.95,.04,8.92,.04,.68,1.62,1.32,3.25,1.97,4.89,2,0,3.99,.02,5.99-.01-1.25-3-2.58-5.96-3.83-8.96l-.03-.07Zm-11.32-.3c.85-2.4,1.8-4.75,2.75-7.11,.88,2.39,1.84,4.75,2.76,7.12-1.84,0-3.68-.01-5.51-.01Z"/><path class="b" d="M45.37,52.73c-5.77-2.88-11.63-5.57-17.36-8.55-1.28-.68-2.3-.95-3.77-.92-.09,.56-.15,1.12-.2,1.69,7.37,3.63,14.76,7.2,22.13,10.84,1.03,.57,2.06,.44,3.19,.41-.05-.5-.13-.98-.22-1.47-1.15-.82-2.52-1.35-3.78-2Z"/><path class="b" d="M24.32,47.82c-1.02-.55-1.93-.5-3.03-.29-.04,.46-.07,.92-.08,1.38,4.35,2.32,8.85,4.38,13.27,6.57,2.18,.98,3.79,2.37,6.33,2.11l.4-1.25c-.97-.62-1.97-1.21-3-1.71-4.65-2.22-9.25-4.55-13.88-6.81Z"/><path class="b" d="M36.5,59.21c-3.25-1.57-6.47-3.2-9.73-4.75-.88-.45-1.76-.36-2.7-.15-.08,.66-.35,1.12,.32,1.58,1.08,.72,2.32,1.21,3.48,1.79,2.47,1.17,4.88,2.51,7.4,3.58,.88,.28,2.34,.62,2.79-.48,.14-.85-.99-1.19-1.56-1.57Z"/><path class="b" d="M20.63,58.75c.67,1.43,2.01,1.76,3.31,2.46,1.31,.64,2.5,1.16,3.97,.6l.15-1.1c-1.48-1.02-3.38-1.95-5.09-2.52-.79-.3-1.62,.28-2.34,.56Z"/></svg>