<svg width="129" height="15" viewBox="0 0 129 15" fill="none" xmlns="http://www.w3.org/2000/svg">
<path d="M10.835 6.65232C11.338 5.9173 11.1252 4.79542 11.1832 3.94433C11.2219 2.8418 11.0285 1.79729 10.158 1.04292C9.50039 0.501323 8.76536 0.501323 7.95297 0.462638C5.59315 0.462638 3.21399 0.462638 0.854176 0.462638C0.583378 0.462638 0.293236 0.4433 0.0417804 0.540013C-0.0162479 0.984897 0.00309484 1.44912 0.00309484 1.89401C0.0224376 6.0527 0.00309484 10.2114 0.0224376 14.3894C2.44028 14.4475 4.85813 14.3894 7.25663 14.4281C8.2818 14.3701 9.24893 14.4281 10.1 13.7511C10.8157 13.2482 11.0865 12.4745 11.0285 11.6041C10.9511 10.3468 11.2412 9.24425 10.6803 8.19974C10.5256 7.81289 10.2161 7.60012 9.90659 7.34866C10.2548 7.13589 10.6029 7.01983 10.835 6.65232ZM7.91428 11.0044C7.45006 11.43 6.7924 11.43 6.21212 11.43C5.10958 11.4106 4.00705 11.4493 2.90451 11.4106C2.73042 11.1205 2.86582 10.5209 2.82714 10.1727C2.82714 9.72782 2.8078 9.28294 2.84648 8.83806C3.79428 8.79937 4.74207 8.83805 5.68987 8.81871C6.21212 8.83805 6.77306 8.78002 7.27597 8.87674C8.16574 9.08951 8.55259 10.3661 7.91428 11.0044ZM8.011 5.39504C7.70151 5.7819 7.1986 5.89795 6.73438 5.89795C5.43841 5.89795 4.14245 5.87861 2.86582 5.89795C2.82714 5.04687 2.82714 4.17645 2.86582 3.34471C3.87165 3.30603 4.87747 3.34471 5.88329 3.32537C6.34752 3.32537 6.85043 3.28668 7.29531 3.3834C8.08837 3.59617 8.51391 4.71804 8.011 5.39504Z" fill="white"/>
<path d="M24.3174 11.3913C24.3174 10.695 24.3368 9.90193 24.1046 9.24427C23.7758 8.41253 23.3503 7.67751 22.4992 7.31C23.0215 7.05854 23.505 6.82642 23.8339 6.30417C24.2207 5.72389 24.2594 5.10492 24.24 4.44726C24.2207 3.5575 24.3561 2.78379 23.9306 1.95205C23.5437 1.10097 22.7507 0.520686 21.7835 0.520686C19.7525 0.520686 17.7409 0.501341 15.7099 0.481998C14.8782 0.462655 13.9884 0.307913 13.176 0.481998C13.118 4.21515 13.176 7.96765 13.1566 11.7008C13.176 12.5519 13.118 13.403 13.176 14.254L13.2727 14.3314C14.1431 14.3894 15.0329 14.3508 15.9033 14.3508C15.9613 12.5132 15.9227 10.6563 15.942 8.81873C17.1799 8.81873 18.4372 8.81873 19.6752 8.81873C20.1587 8.83807 20.623 8.81873 21.0098 9.16689C21.3773 9.49572 21.3967 10.0373 21.4353 10.5016C21.4547 11.7782 21.4353 13.0548 21.4547 14.3314C22.3831 14.3894 23.3309 14.3508 24.2594 14.3508C24.3368 13.3643 24.3174 12.3778 24.3174 11.3913ZM21.3193 5.35638C21.1259 5.80126 20.7003 5.956 20.2361 5.956C18.8241 5.956 17.3927 5.99468 15.9807 5.89797C15.9613 5.04689 15.942 4.19581 15.9807 3.34473C17.0445 3.30604 18.1084 3.34473 19.1722 3.32539C19.7912 3.34473 20.3328 3.22867 20.8744 3.61553C21.5321 3.98304 21.5127 4.73741 21.3193 5.35638Z" fill="white"/>
<path d="M29.1919 3.36408C29.1919 4.21516 29.2112 5.06624 29.1725 5.91732C30.9907 6.03338 32.8283 5.91732 34.6659 5.97535C34.6659 6.92314 34.7045 7.87094 34.6659 8.79939L34.5885 8.87676C32.7896 8.91545 30.9907 8.87676 29.1919 8.8961C29.1919 9.74719 29.1919 10.6176 29.1725 11.4687C31.8612 11.5461 34.5691 11.4687 37.2578 11.5074C37.2578 12.4552 37.2771 13.4223 37.2578 14.3701C33.7761 14.3895 30.2944 14.3701 26.8127 14.3701C26.5226 14.3701 26.2324 14.3701 26.2518 13.9833C26.2518 9.45705 26.2324 4.93084 26.2518 0.42398C28.2247 0.404637 30.1977 0.443323 32.1706 0.42398C33.8535 0.540036 35.5363 0.482006 37.2191 0.482006C37.2578 1.4298 37.2771 2.39694 37.2191 3.34474C34.5691 3.34474 31.8805 3.36408 29.1919 3.36408Z" fill="white"/>
<path d="M42.1901 3.36408C42.1901 4.2345 42.1514 5.10493 42.2094 5.97535C44.0083 5.95601 45.8265 5.95601 47.6254 5.97535C47.6254 6.94249 47.6448 7.92897 47.6061 8.89611C45.8072 8.89611 43.989 8.89611 42.1901 8.89611C42.1901 9.74719 42.1901 10.6176 42.1708 11.4687C44.8594 11.5461 47.5674 11.4687 50.256 11.5074C50.256 12.4552 50.2754 13.4223 50.2367 14.3701C46.755 14.4088 43.2926 14.3701 39.8109 14.3895C39.5208 14.3895 39.192 14.3895 39.2307 14.0026C39.2307 9.47639 39.2307 4.95019 39.2307 0.443328C41.2036 0.423985 43.1959 0.462671 45.1689 0.443328C46.8517 0.559384 48.5345 0.482011 50.2173 0.501354C50.256 1.44915 50.2754 2.41628 50.2173 3.36408C47.548 3.34474 44.8787 3.36408 42.1901 3.36408Z" fill="white"/>
<path d="M63.3506 3.42214C63.3313 2.57106 63.1766 1.75866 62.5382 1.13969C61.958 0.559411 61.2229 0.462702 60.4299 0.443359C57.7026 0.443359 54.9752 0.443359 52.2479 0.443359C52.2286 5.08562 52.2286 9.72788 52.2479 14.3508C54.9752 14.3895 57.7026 14.3508 60.4299 14.3701C61.397 14.3895 62.4802 13.9253 62.9831 13.0742C63.37 12.4359 63.3313 11.7589 63.3506 11.0432C63.3506 8.48994 63.37 5.95604 63.3506 3.42214ZM60.4686 10.3468C60.4879 11.0625 59.869 11.4494 59.2113 11.4494C57.838 11.4494 56.4646 11.4687 55.0913 11.43C55.1106 8.76074 55.0719 6.09144 55.1106 3.44149C56.3099 3.4028 57.5091 3.44149 58.689 3.42214C59.0372 3.44149 59.4434 3.4028 59.7722 3.51886C60.2365 3.77031 60.4686 4.27322 60.4492 4.77614C60.4686 6.65238 60.4879 8.50929 60.4686 10.3468Z" fill="white"/>
<path d="M68.2829 3.36407C68.2829 4.2345 68.2829 5.08558 68.2829 5.95601C70.0818 5.95601 71.9 5.93666 73.6988 5.95601C73.7182 6.92314 73.6988 7.89028 73.7182 8.85742C71.9 8.91545 70.1011 8.83807 68.2829 8.8961C68.3022 9.74718 68.2829 10.6176 68.3022 11.4687C70.4299 11.4687 72.5383 11.4687 74.666 11.4687C75.2269 11.4687 75.8072 11.4493 76.3681 11.5074C76.3295 12.4165 76.4068 13.3449 76.3295 14.254C76.136 14.4088 75.7685 14.3314 75.5364 14.3508C72.4222 14.3508 69.308 14.3508 66.1745 14.3508C65.9424 14.3314 65.5749 14.4088 65.3815 14.254C65.3234 13.8092 65.3621 13.3643 65.3428 12.9194C65.3428 8.76071 65.3428 4.58267 65.3428 0.423976C66.542 0.365948 67.7413 0.423975 68.9405 0.404632C70.1011 0.423975 71.2423 0.365944 72.4029 0.462658C73.7182 0.501344 75.0335 0.443316 76.3295 0.482002C76.3681 1.4298 76.3488 2.37759 76.3295 3.30605C73.6408 3.38342 70.9715 3.32539 68.2829 3.36407Z" fill="white"/>
<path d="M89.5016 11.7395C89.5016 10.9271 89.521 10.018 89.2889 9.22491C88.9601 8.43186 88.5732 7.69683 87.7221 7.34866C88.2444 7.03918 88.7473 6.78772 89.0761 6.22678C89.579 5.47241 89.3856 4.29251 89.4243 3.42208C89.4823 2.39692 88.9601 1.27503 88.0316 0.791466C87.4707 0.501324 86.871 0.540012 86.2521 0.540012C84.4532 0.559355 82.6737 0.520668 80.8748 0.520668C80.043 0.46264 79.2113 0.443294 78.3602 0.462636C78.3215 5.1049 78.3409 9.74716 78.3602 14.3894C79.2693 14.3894 80.1784 14.3894 81.1069 14.3894C81.1456 12.5519 81.1069 10.695 81.1262 8.8574C82.3642 8.8574 83.6215 8.8574 84.8594 8.8574C85.343 8.87674 85.8265 8.8574 86.2134 9.20557C86.6002 9.59242 86.6389 10.2114 86.6389 10.7336C86.6389 11.9522 86.6389 13.1708 86.6389 14.3701C87.5674 14.4475 88.5152 14.3894 89.4436 14.4088C89.5403 13.4803 89.4823 12.6099 89.5016 11.7395ZM86.5422 5.16293C86.4648 5.6465 86.02 5.95598 85.5557 5.95598C84.0857 5.97533 82.635 5.97532 81.1649 5.9173C81.1069 5.06622 81.1262 4.19579 81.1456 3.34471C82.4415 3.30603 83.7569 3.34471 85.0528 3.32537C85.5944 3.28668 86.0973 3.55748 86.4262 3.96368C86.6389 4.2925 86.6002 4.79542 86.5422 5.16293Z" fill="white"/>
<path opacity="0.5" d="M102.52 3.248C102.539 2.37758 102.23 1.52649 101.533 0.965553C100.972 0.520669 100.295 0.462645 99.5989 0.443302C97.065 0.443302 94.5118 0.443302 91.9779 0.443302C91.7651 0.423959 91.5717 0.481985 91.4169 0.598041C91.4363 5.06622 91.4169 9.53439 91.4169 14.0026C91.3976 14.3894 91.6877 14.3894 91.9779 14.3894C94.5698 14.3701 97.1811 14.3894 99.773 14.3894C100.701 14.3701 101.669 13.9059 102.172 13.1128C102.462 12.6486 102.52 12.1263 102.52 11.5847C102.52 8.78003 102.52 6.01402 102.52 3.248ZM98.5738 11.4493C97.1617 11.488 95.7497 11.43 94.3183 11.4687C94.2603 8.79937 94.299 6.13007 94.299 3.46077C95.6337 3.32537 97.0457 3.40274 98.3803 3.42209C99.0767 3.40274 99.6183 3.94434 99.6376 4.62133C99.6376 6.53627 99.6376 8.4512 99.6376 10.3468C99.6956 10.9851 99.154 11.3913 98.5738 11.4493Z" fill="white"/>
<path opacity="0.5" d="M115.847 3.07396C115.847 2.4163 115.673 1.79734 115.208 1.33311C114.551 0.656114 113.506 0.462691 112.597 0.443348C110.914 0.443348 109.251 0.443348 107.568 0.443348C106.582 0.424006 105.576 0.926917 105.073 1.79734C104.763 2.35828 104.725 2.9579 104.725 3.59622C104.744 7.19397 104.705 10.7917 104.744 14.3701C105.711 14.3314 106.698 14.4475 107.665 14.3121C107.665 13.403 107.665 12.4939 107.665 11.5848C109.386 11.5848 111.108 11.5848 112.829 11.5848C112.829 12.4939 112.829 13.403 112.829 14.3121C113.816 14.4282 114.841 14.3701 115.847 14.3314C115.847 10.579 115.847 6.82645 115.847 3.07396ZM107.723 8.72205C107.703 7.5228 107.723 6.34289 107.703 5.14364C107.723 4.67941 107.684 4.09912 108.09 3.75096C108.477 3.38344 109.154 3.38344 109.657 3.3641C110.392 3.38344 111.166 3.30608 111.881 3.44148C112.365 3.51885 112.791 3.92504 112.829 4.42795C112.868 5.83997 112.81 7.252 112.868 8.66402C111.146 8.78008 109.425 8.7027 107.723 8.72205Z" fill="white"/>
<path opacity="0.5" d="M128.11 1.06232C127.607 0.578747 126.95 0.424006 126.273 0.404663C124.474 0.404663 122.694 0.404663 120.895 0.404663C120.025 0.404663 119.038 0.656118 118.381 1.25574C117.878 1.73931 117.704 2.37762 117.684 3.07396C117.684 5.83998 117.684 8.62533 117.684 11.3913C117.665 12.2618 117.994 13.2096 118.652 13.8092C119.193 14.2928 119.851 14.3895 120.547 14.3895C121.998 14.3895 123.429 14.3895 124.88 14.3895C125.828 14.3895 126.95 14.4862 127.82 13.9833C128.748 13.345 128.981 12.2811 129 11.2173C129 8.74139 129 6.24618 129 3.7703C129 2.82251 128.826 1.71997 128.11 1.06232ZM125.886 10.8111C125.75 11.1399 125.46 11.4107 125.073 11.4107C124.087 11.43 123.1 11.4107 122.114 11.43C121.746 11.4107 121.36 11.4881 121.069 11.2173C120.683 10.8884 120.605 10.3082 120.605 9.82459C120.605 8.54797 120.624 7.27134 120.586 6.01406C120.528 5.29838 120.489 4.48599 120.779 3.80899C121.089 3.30608 121.746 3.20936 122.288 3.19002C123.042 3.19002 123.797 3.17068 124.551 3.20936C125.073 3.24805 125.557 3.38345 125.866 3.82833C126.098 4.19585 126.118 4.7181 126.137 5.14364C126.137 6.42026 126.137 7.67754 126.137 8.95417C126.137 9.57313 126.118 10.2501 125.886 10.8111Z" fill="white"/>
<path d="M10.835 6.65232C11.338 5.9173 11.1252 4.79542 11.1832 3.94433C11.2219 2.8418 11.0285 1.79729 10.158 1.04292C9.50039 0.501323 8.76536 0.501323 7.95297 0.462638C5.59315 0.462638 3.21399 0.462638 0.854176 0.462638C0.583378 0.462638 0.293236 0.4433 0.0417804 0.540013C-0.0162479 0.984897 0.00309484 1.44912 0.00309484 1.89401C0.0224376 6.0527 0.00309484 10.2114 0.0224376 14.3894C2.44028 14.4475 4.85813 14.3894 7.25663 14.4281C8.2818 14.3701 9.24893 14.4281 10.1 13.7511C10.8157 13.2482 11.0865 12.4745 11.0285 11.6041C10.9511 10.3468 11.2412 9.24425 10.6803 8.19974C10.5256 7.81289 10.2161 7.60012 9.90659 7.34866C10.2548 7.13589 10.6029 7.01983 10.835 6.65232ZM7.91428 11.0044C7.45006 11.43 6.7924 11.43 6.21212 11.43C5.10958 11.4106 4.00705 11.4493 2.90451 11.4106C2.73042 11.1205 2.86582 10.5209 2.82714 10.1727C2.82714 9.72782 2.8078 9.28294 2.84648 8.83806C3.79428 8.79937 4.74207 8.83805 5.68987 8.81871C6.21212 8.83805 6.77306 8.78002 7.27597 8.87674C8.16574 9.08951 8.55259 10.3661 7.91428 11.0044ZM8.011 5.39504C7.70151 5.7819 7.1986 5.89795 6.73438 5.89795C5.43841 5.89795 4.14245 5.87861 2.86582 5.89795C2.82714 5.04687 2.82714 4.17645 2.86582 3.34471C3.87165 3.30603 4.87747 3.34471 5.88329 3.32537C6.34752 3.32537 6.85043 3.28668 7.29531 3.3834C8.08837 3.59617 8.51391 4.71804 8.011 5.39504Z" fill="white"/>
<path d="M24.3174 11.3913C24.3174 10.695 24.3368 9.90193 24.1046 9.24427C23.7758 8.41253 23.3503 7.67751 22.4992 7.31C23.0215 7.05854 23.505 6.82642 23.8339 6.30417C24.2207 5.72389 24.2594 5.10492 24.24 4.44726C24.2207 3.5575 24.3561 2.78379 23.9306 1.95205C23.5437 1.10097 22.7507 0.520686 21.7835 0.520686C19.7525 0.520686 17.7409 0.501341 15.7099 0.481998C14.8782 0.462655 13.9884 0.307913 13.176 0.481998C13.118 4.21515 13.176 7.96765 13.1566 11.7008C13.176 12.5519 13.118 13.403 13.176 14.254L13.2727 14.3314C14.1431 14.3894 15.0329 14.3508 15.9033 14.3508C15.9613 12.5132 15.9227 10.6563 15.942 8.81873C17.1799 8.81873 18.4372 8.81873 19.6752 8.81873C20.1587 8.83807 20.623 8.81873 21.0098 9.16689C21.3773 9.49572 21.3967 10.0373 21.4353 10.5016C21.4547 11.7782 21.4353 13.0548 21.4547 14.3314C22.3831 14.3894 23.3309 14.3508 24.2594 14.3508C24.3368 13.3643 24.3174 12.3778 24.3174 11.3913ZM21.3193 5.35638C21.1259 5.80126 20.7003 5.956 20.2361 5.956C18.8241 5.956 17.3927 5.99468 15.9807 5.89797C15.9613 5.04689 15.942 4.19581 15.9807 3.34473C17.0445 3.30604 18.1084 3.34473 19.1722 3.32539C19.7912 3.34473 20.3328 3.22867 20.8744 3.61553C21.5321 3.98304 21.5127 4.73741 21.3193 5.35638Z" fill="white"/>
<path d="M37.2763 11.488C37.2763 12.4358 37.2957 13.403 37.2763 14.3508C33.7947 14.3701 30.313 14.3508 26.8313 14.3508C26.5411 14.3508 26.251 14.3508 26.2703 13.9639C26.2703 9.4377 26.251 4.91149 26.2703 0.404632C28.2433 0.385289 30.2162 0.423974 32.1892 0.404632C33.872 0.520688 35.5548 0.462658 37.2377 0.462658C37.2763 1.41045 37.2957 2.37759 37.2377 3.32539C34.549 3.30605 31.8797 3.30605 29.1911 3.32539C29.1911 4.17647 29.2104 5.02755 29.1717 5.87863C30.9899 5.99469 32.8275 5.87863 34.6651 5.93666C34.6651 6.88446 34.7038 7.83225 34.6651 8.7607L34.5877 8.83807C32.7888 8.87676 30.9899 8.83808 29.1911 8.85742C29.1911 9.7085 29.1911 10.5789 29.1717 11.43C31.8797 11.5267 34.5684 11.4493 37.2763 11.488Z" fill="white"/>
<path d="M50.256 11.488C50.256 12.4358 50.2754 13.403 50.2367 14.3508C46.755 14.3895 43.2926 14.3508 39.8109 14.3701C39.5208 14.3701 39.192 14.3701 39.2307 13.9833C39.2307 9.45705 39.2307 4.93084 39.2307 0.42398C41.2036 0.404637 43.1959 0.443323 45.1689 0.42398C46.8517 0.540036 48.5345 0.462663 50.2173 0.482006C50.256 1.4298 50.2754 2.39694 50.2173 3.34474C47.5287 3.34474 44.8594 3.34474 42.1708 3.34474C42.1708 4.21516 42.1321 5.08559 42.1901 5.95601C43.989 5.93667 45.8072 5.93667 47.6061 5.95601C47.6061 6.92315 47.6254 7.90962 47.5867 8.87676C45.7879 8.87676 43.9696 8.87676 42.1708 8.87676C42.1708 9.72784 42.1708 10.5983 42.1514 11.4494C44.8594 11.5267 47.5674 11.4493 50.256 11.488Z" fill="white"/>
<path d="M63.3506 3.42214C63.3313 2.57106 63.1766 1.75866 62.5382 1.13969C61.958 0.559411 61.2229 0.462702 60.4299 0.443359C57.7026 0.443359 54.9752 0.443359 52.2479 0.443359C52.2286 5.08562 52.2286 9.72788 52.2479 14.3508C54.9752 14.3895 57.7026 14.3508 60.4299 14.3701C61.397 14.3895 62.4802 13.9253 62.9831 13.0742C63.37 12.4359 63.3313 11.7589 63.3506 11.0432C63.3506 8.48994 63.37 5.95604 63.3506 3.42214ZM60.4686 10.3468C60.4879 11.0625 59.869 11.4494 59.2113 11.4494C57.838 11.4494 56.4646 11.4687 55.0913 11.43C55.1106 8.76074 55.0719 6.09144 55.1106 3.44149C56.3099 3.4028 57.5091 3.44149 58.689 3.42214C59.0372 3.44149 59.4434 3.4028 59.7722 3.51886C60.2365 3.77031 60.4686 4.27322 60.4492 4.77614C60.4686 6.65238 60.4879 8.50929 60.4686 10.3468Z" fill="white"/>
<path d="M76.3496 11.5267C76.3109 12.4358 76.3883 13.3643 76.3109 14.2734C76.1175 14.4281 75.75 14.3508 75.5179 14.3701C72.4037 14.3701 69.2895 14.3701 66.156 14.3701C65.9238 14.3508 65.5563 14.4281 65.3629 14.2734C65.3049 13.8285 65.3436 13.3836 65.3242 12.9387C65.3242 8.78005 65.3242 4.60202 65.3242 0.443324C66.5235 0.385296 67.7227 0.443323 68.922 0.42398C70.0825 0.443323 71.2238 0.385292 72.3843 0.482006C73.6996 0.520692 75.0149 0.462665 76.3109 0.50135C76.3496 1.44915 76.3303 2.39694 76.3109 3.32539C73.6223 3.36408 70.9336 3.30605 68.2643 3.34474C68.2643 4.21516 68.2643 5.06624 68.2643 5.93667C70.0632 5.93667 71.8814 5.91732 73.6803 5.93667C73.6996 6.9038 73.6803 7.87094 73.6996 8.83808C71.8814 8.89611 70.0825 8.81873 68.2643 8.87676C68.2837 9.72784 68.2643 10.5983 68.2837 11.4494C70.4114 11.4494 72.5197 11.4494 74.6474 11.4494C75.2084 11.488 75.7887 11.4687 76.3496 11.5267Z" fill="white"/>
<path d="M89.5016 11.7395C89.5016 10.9271 89.521 10.018 89.2889 9.22491C88.9601 8.43186 88.5732 7.69683 87.7221 7.34866C88.2444 7.03918 88.7473 6.78772 89.0761 6.22678C89.579 5.47241 89.3856 4.29251 89.4243 3.42208C89.4823 2.39692 88.9601 1.27503 88.0316 0.791466C87.4707 0.501324 86.871 0.540012 86.2521 0.540012C84.4532 0.559355 82.6737 0.520668 80.8748 0.520668C80.043 0.46264 79.2113 0.443294 78.3602 0.462636C78.3215 5.1049 78.3409 9.74716 78.3602 14.3894C79.2693 14.3894 80.1784 14.3894 81.1069 14.3894C81.1456 12.5519 81.1069 10.695 81.1262 8.8574C82.3642 8.8574 83.6215 8.8574 84.8594 8.8574C85.343 8.87674 85.8265 8.8574 86.2134 9.20557C86.6002 9.59242 86.6389 10.2114 86.6389 10.7336C86.6389 11.9522 86.6389 13.1708 86.6389 14.3701C87.5674 14.4475 88.5152 14.3894 89.4436 14.4088C89.5403 13.4803 89.4823 12.6099 89.5016 11.7395ZM86.5422 5.16293C86.4648 5.6465 86.02 5.95598 85.5557 5.95598C84.0857 5.97533 82.635 5.97532 81.1649 5.9173C81.1069 5.06622 81.1262 4.19579 81.1456 3.34471C82.4415 3.30603 83.7569 3.34471 85.0528 3.32537C85.5944 3.28668 86.0973 3.55748 86.4262 3.96368C86.6389 4.2925 86.6002 4.79542 86.5422 5.16293Z" fill="white"/>
<path opacity="0.5" d="M102.52 3.248C102.539 2.37758 102.23 1.52649 101.533 0.965553C100.972 0.520669 100.295 0.462645 99.5989 0.443302C97.065 0.443302 94.5118 0.443302 91.9779 0.443302C91.7651 0.423959 91.5717 0.481985 91.4169 0.598041C91.4363 5.06622 91.4169 9.53439 91.4169 14.0026C91.3976 14.3894 91.6877 14.3894 91.9779 14.3894C94.5698 14.3701 97.1811 14.3894 99.773 14.3894C100.701 14.3701 101.669 13.9059 102.172 13.1128C102.462 12.6486 102.52 12.1263 102.52 11.5847C102.52 8.78003 102.52 6.01402 102.52 3.248ZM98.5738 11.4493C97.1617 11.488 95.7497 11.43 94.3183 11.4687C94.2603 8.79937 94.299 6.13007 94.299 3.46077C95.6337 3.32537 97.0457 3.40274 98.3803 3.42209C99.0767 3.40274 99.6183 3.94434 99.6376 4.62133C99.6376 6.53627 99.6376 8.4512 99.6376 10.3468C99.6956 10.9851 99.154 11.3913 98.5738 11.4493Z" fill="white"/>
<path opacity="0.5" d="M115.847 3.07396C115.847 2.4163 115.673 1.79734 115.208 1.33311C114.551 0.656114 113.506 0.462691 112.597 0.443348C110.914 0.443348 109.251 0.443348 107.568 0.443348C106.582 0.424006 105.576 0.926917 105.073 1.79734C104.763 2.35828 104.725 2.9579 104.725 3.59622C104.744 7.19397 104.705 10.7917 104.744 14.3701C105.711 14.3314 106.698 14.4475 107.665 14.3121C107.665 13.403 107.665 12.4939 107.665 11.5848C109.386 11.5848 111.108 11.5848 112.829 11.5848C112.829 12.4939 112.829 13.403 112.829 14.3121C113.816 14.4282 114.841 14.3701 115.847 14.3314C115.847 10.579 115.847 6.82645 115.847 3.07396ZM107.723 8.72205C107.703 7.5228 107.723 6.34289 107.703 5.14364C107.723 4.67941 107.684 4.09912 108.09 3.75096C108.477 3.38344 109.154 3.38344 109.657 3.3641C110.392 3.38344 111.166 3.30608 111.881 3.44148C112.365 3.51885 112.791 3.92504 112.829 4.42795C112.868 5.83997 112.81 7.252 112.868 8.66402C111.146 8.78008 109.425 8.7027 107.723 8.72205Z" fill="white"/>
<path opacity="0.5" d="M128.11 1.06232C127.607 0.578747 126.95 0.424006 126.273 0.404663C124.474 0.404663 122.694 0.404663 120.895 0.404663C120.025 0.404663 119.038 0.656118 118.381 1.25574C117.878 1.73931 117.704 2.37762 117.684 3.07396C117.684 5.83998 117.684 8.62533 117.684 11.3913C117.665 12.2618 117.994 13.2096 118.652 13.8092C119.193 14.2928 119.851 14.3895 120.547 14.3895C121.998 14.3895 123.429 14.3895 124.88 14.3895C125.828 14.3895 126.95 14.4862 127.82 13.9833C128.748 13.345 128.981 12.2811 129 11.2173C129 8.74139 129 6.24618 129 3.7703C129 2.82251 128.826 1.71997 128.11 1.06232ZM125.886 10.8111C125.75 11.1399 125.46 11.4107 125.073 11.4107C124.087 11.43 123.1 11.4107 122.114 11.43C121.746 11.4107 121.36 11.4881 121.069 11.2173C120.683 10.8884 120.605 10.3082 120.605 9.82459C120.605 8.54797 120.624 7.27134 120.586 6.01406C120.528 5.29838 120.489 4.48599 120.779 3.80899C121.089 3.30608 121.746 3.20936 122.288 3.19002C123.042 3.19002 123.797 3.17068 124.551 3.20936C125.073 3.24805 125.557 3.38345 125.866 3.82833C126.098 4.19585 126.118 4.7181 126.137 5.14364C126.137 6.42026 126.137 7.67754 126.137 8.95417C126.137 9.57313 126.118 10.2501 125.886 10.8111Z" fill="white"/>
</svg>
