<svg width="15" height="15" viewBox="0 0 15 15" fill="none" xmlns="http://www.w3.org/2000/svg">
<path d="M4 4.814C4.00933 4.34733 4.10267 3.94133 4.28 3.596C4.46667 3.24133 4.7 2.94733 4.98 2.714C5.26933 2.48067 5.596 2.30333 5.96 2.182C6.324 2.06067 6.69733 2 7.08 2C7.49067 2 7.892 2.07 8.284 2.21C8.676 2.35 9.026 2.55533 9.334 2.826C9.642 3.08733 9.88933 3.414 10.076 3.806C10.272 4.18867 10.37 4.62267 10.37 5.108C10.37 5.42533 10.328 5.70067 10.244 5.934C10.16 6.16733 10.0527 6.368 9.922 6.536C9.79133 6.704 9.64667 6.844 9.488 6.956C9.32933 7.05867 9.17533 7.152 9.026 7.236C8.466 7.52533 8.07867 7.84733 7.864 8.202C7.64933 8.54733 7.53267 8.89267 7.514 9.238H6.142C6.142 8.706 6.30067 8.21133 6.618 7.754C6.93533 7.28733 7.37867 6.93267 7.948 6.69C8.424 6.47533 8.75533 6.21867 8.942 5.92C9.12867 5.62133 9.222 5.29467 9.222 4.94C9.222 4.352 9.026 3.88533 8.634 3.54C8.25133 3.18533 7.738 3.008 7.094 3.008C6.45933 3.008 5.96467 3.176 5.61 3.512C5.25533 3.848 5.05933 4.282 5.022 4.814H4ZM6.814 10.792C7.01 10.792 7.178 10.862 7.318 11.002C7.458 11.142 7.528 11.31 7.528 11.506C7.528 11.702 7.458 11.87 7.318 12.01C7.178 12.1593 7.01 12.234 6.814 12.234C6.618 12.234 6.45 12.1593 6.31 12.01C6.17 11.87 6.1 11.702 6.1 11.506C6.1 11.31 6.17 11.142 6.31 11.002C6.45 10.862 6.618 10.792 6.814 10.792Z" fill="white"/>
</svg>
